<?xml version="1.0" encoding="utf-8"?>
<!-- Generator: Adobe Illustrator 25.0.0, SVG Export Plug-In . SVG Version: 6.00 Build 0)  -->
<svg version="1.1" id="Calque_1" xmlns="http://www.w3.org/2000/svg" xmlns:xlink="http://www.w3.org/1999/xlink" x="0px" y="0px"
	 viewBox="0 0 1920 1080" style="enable-background:new 0 0 1920 1080;" xml:space="preserve">
<style type="text/css">
	.st0{clip-path:url(#SVGID_2_);}
	.st1{fill:#FFFFFF;}
	.st2{font-family:'MyriadPro-Regular';}
	.st3{font-size:12px;}
	.st4{fill:none;}
</style>
<g>
	<defs>
		<rect id="SVGID_1_" x="44" y="587" width="324" height="324"/>
	</defs>
	<clipPath id="SVGID_2_">
		<use xlink:href="#SVGID_1_"  style="overflow:visible;"/>
	</clipPath>
	<g class="st0">
		<g>
			<g>
				<path class="st1" d="M44,911c0-108,0-216,0-324c108,0,216,0,324,0c0,108,0,216,0,324C260,911,152,911,44,911z M209.2,775.31
					c0.1,0.28,0.21,0.56,0.31,0.84c0.32,0.9,0.14,2.02,1.65,2.17c9.78,0.96,19.31,0.13,28.31-4.06
					c12.26-5.7,19.44-15.78,23.85-28.16c0.15-0.43,0.11-0.94,0.17-1.4c0.09-0.7,0.11-1.43,0.31-2.09c0.58-1.94,1.44-3.82,1.81-5.79
					c0.32-1.75-0.55-2.38-1.92-2.12c-1.82,3.39-1.17,7.15-2.58,10.58c-2.31,5.64-4.81,11.12-8.74,15.83
					c-8.3,9.93-19.31,14.03-31.88,14.52c-3.76,0.15-7.54-0.17-11.31-0.27c2.52-1.49,5.11-2.26,8.17-2.09
					c8.5,0.48,16.7-0.96,23.91-5.73c12.37-8.18,18.32-20.06,19.15-34.66c0.11-2.02,0.42-3.83,1.4-5.64
					c1.35-2.53,2.37-5.23,3.54-7.86c0.15-0.33,0.34-0.65,0.51-0.97c0.34,0.71,0.42,1.4,0.16,1.89c-1.76,3.26-1.97,6.74-1.66,10.31
					c0.03,0.41,0.28,0.8,0.46,1.32c2.25-2.88,3.05-6.19,2.37-9.29c-0.11-0.52-0.26-1.07-0.18-1.58c0.78-5.15,1.55-10.31,2.41-15.45
					c1.32-7.88,7.1-13.9,14.57-15.26c7.85-1.44,16.13,2.08,19.93,8.55c3.32,5.64,2.85,11.44,0.11,17.06
					c-2.52,5.17-5.43,10.15-8.14,15.23c-2.56,4.81-4.56,9.78-4.55,15.36c0,0.49-0.35,0.97-0.51,1.46c-0.81,2.54-1.78,5.05-2.33,7.64
					c-0.3,1.43,0.63,2.47,2.35,2.31c0.51-2.67,1.23-5.22,1.46-7.82c0.48-5.55,2.28-10.65,4.8-15.54c3.07-5.97,6.34-11.85,9.2-17.92
					c2.18-4.62,3.37-9.56,1.68-14.67c-2.64-8-8.13-13-16.46-14.31c-8.39-1.32-15.5,1.38-20.93,8.07c-0.41,0.51-0.82,1.02-1.4,1.74
					c-0.65-3.77-0.5-4.24,1.8-6.48c6.86-6.68,18.45-8.66,26.92-4.22c9.64,5.05,14.77,12.87,12.36,23.84
					c-1.15,5.22-3.29,10.25-5.34,15.23c-2.72,6.59-5.95,12.97-8.66,19.57c-1.86,4.53-2.69,9.34-1.67,14.28
					c0.13,0.64,0.43,1.23,0.66,1.85c0.18-0.02,0.37-0.05,0.55-0.07c0.07-0.59,0.17-1.19,0.22-1.78c0.2-2.56,0.13-5.17,0.62-7.68
					c1.38-7.05,4.92-13.23,8.24-19.48c3.18-5.99,6.58-11.89,8.28-18.51c2.61-10.14,0.43-19.01-7.78-25.79
					c-9.91-8.19-24.99-7.95-34.97,0.22c-0.48,0.39-0.99,0.74-1.55,1.17c-0.95-2.97-0.8-3.44,1.43-5.08
					c6.92-5.08,14.61-6.59,23.01-5.08c15.91,2.85,25.76,17.22,21.84,32.8c-1.69,6.7-4.53,13.13-7.1,19.58
					c-2.69,6.74-5.81,13.31-7.22,20.49c-0.13,0.64-0.1,1.3-0.15,1.95c0.18,0.05,0.37,0.1,0.55,0.15c0.25-0.47,0.61-0.91,0.73-1.41
					c1.55-6.8,4.65-12.96,7.86-19.07c1.11-2.11,2.49-4.22,2.99-6.5c1.76-8.01,3.23-16.09,4.73-24.16c0.79-4.22,0.57-8.15-2.05-11.98
					c-9.6-14.02-31.66-18.57-45.98-9.28c-0.48,0.31-1,0.55-1.67,0.92c-0.29-1.56-1.34-2.81,0.42-4.01
					c6.98-4.75,14.63-6.9,23.02-5.66c10.91,1.62,19.34,7.36,25.77,16.2c0.33,0.45,0.66,0.9,0.99,1.35c0.23-0.08,0.46-0.16,0.69-0.24
					c-0.25-1.39-0.05-3.14-0.82-4.11c-9.3-11.66-21.19-17.09-36.22-14.43c-4.78,0.85-9.17,2.74-13.32,5.23
					c-0.56,0.33-1.24,1.29-1.88,0.03c-0.01-0.09,0-0.17,0-0.25c-0.31-1.08-0.82-2.13,0.49-3.02c4.85-3.3,10.1-5.51,16.03-5.71
					c13.25-0.46,24.2,4.78,33.63,13.73c0.54,0.51,1.06,1.03,1.75,1.72c0.65-2.98,0.18-5.09-1.98-7.04
					c-13.83-12.5-31.77-14.82-48.32-6.1c-0.89,0.47-1.79,0.9-2.76,1.39c-0.38-0.71-0.69-1.28-1-1.85c0,0,0.03,0.04,0.03,0.04
					c0.48-0.59,0.83-1.43,1.44-1.73c14.29-6.98,28.53-6.26,42.6,0.6c3.46,1.69,6.62,4,9.99,6.06c0.22-1.82,0.28-3.54-1.77-4.65
					c-4.1-2.22-7.98-4.97-12.27-6.72c-13.66-5.58-27.19-5.78-40.19,2.19c-0.93,0.57-1.86,1.14-2.78,1.71
					c-1.2-1.98-1.22-2.35-0.02-2.95c2.4-1.22,4.75-2.55,7.24-3.54c16.75-6.64,32.71-5.55,47.64,5.07c0.47,0.33,0.97,0.63,1.5,0.97
					c0.48-2.26,0.34-2.6-1.38-3.62c-8.3-4.91-17.28-7.76-26.87-8.45c-10.33-0.75-20.17,1.16-29.33,6.18
					c-0.39,0.21-1.3,0.1-1.56-0.21c-0.6-0.73-0.58-1.54,0.51-1.99c3.43-1.41,6.76-3.15,10.29-4.22c16.37-4.97,32.2-4.03,47.18,4.85
					c0.18,0.11,0.41,0.11,0.65,0.17c0.43-1.49-0.68-1.85-1.53-2.33c-8.34-4.79-17.27-7.79-26.9-8.37
					c-10.7-0.65-20.78,1.27-29.64,7.76c-1.81,1.33-1.86,1.28-2.81-0.66c-3.15-6.46-6.92-12.48-12.29-17.37
					c-0.15-0.13-0.22-0.34-0.33-0.52c0.1-0.11,0.2-0.22,0.29-0.33c1.2,0.92,2.46,1.78,3.58,2.79c1.16,1.04,2.19,2.21,3.28,3.33
					c-4.87-7.56-14.02-16.88-24.06-22.02c-1.44-0.74-2.76-2.21-4.67-1.03c-0.19,0.12-0.62,0-0.86-0.14
					c-0.82-0.47-1.89-0.83-2.32-1.55c-0.52-0.88-0.48-2.08-0.69-3.22c-0.41,0.16-0.93,0.5-1.5,0.56c-0.53,0.06-1.5-0.04-1.58-0.29
					c-0.48-1.52-1.35-0.97-2.25-0.6c-0.52,0.21-1.06,0.38-1.74,0.62c-0.2-2.38-1.67-3-3.48-3.18c-0.95-0.09-1.92-0.09-2.87-0.21
					c-0.88-0.11-1.91-0.08-2.6-0.53c-0.67-0.43-0.99-1.4-1.48-2.16c-5.83,2.05-11.14,1.94-13.81-0.6c3.02,0,5.77,0,8.52,0
					c-0.53-0.57-1.12-0.88-1.71-0.91c-3.65-0.19-7.31-0.51-10.96-0.44c-9,0.19-17.95,1-26.77,2.93c-8.53,1.87-16.84,4.33-24.44,8.78
					c-4.04,2.36-7.78,5.14-9.64,9.61c-0.77,1.84-1.91,2.95-3.64,3.67c-4.37,1.8-7.59,4.96-10.26,8.74
					c-4.53,6.42-6.98,13.77-9.23,21.18c-0.48,1.59-1.2,2.88-2.37,4.1c-1.17,1.22-2.12,2.77-2.8,4.34
					c-2.51,5.82-2.19,11.97-1.56,18.06c1.01,9.77,3.9,19.13,6.44,28.57c3.8,14.13,11.79,25.23,23.46,33.95
					c4.83,3.61,9.48,7.58,13.67,11.9c2.59,2.67,5.46,4.23,8.83,5.34c2.78,0.92,5.51,1.98,8.21,3.11c0.7,0.29,1.2,1.05,1.8,1.6
					c-0.11,0.14-0.22,0.29-0.33,0.43c-1.36-0.41-2.72-0.84-4.09-1.23c-0.63-0.18-1.28-0.39-1.92-0.39c-0.47,0-0.93,0.34-1.4,0.52
					c0.29,0.39,0.49,0.98,0.87,1.15c2.03,0.88,4.05,1.84,6.17,2.45c9.62,2.74,19.39,2.32,29.06,0.56c8.01-1.46,15.9-3.54,23.85-5.31
					c0.9-0.2,1.87-0.13,2.8-0.18c0.02,0.19,0.04,0.37,0.06,0.56c-5.25,1.88-10.5,3.76-15.75,5.63c0.05,0.18,0.11,0.36,0.16,0.54
					c0.51-0.05,1.03-0.04,1.52-0.17c3.3-0.87,6.6-1.76,9.9-2.65C206.67,776.01,207.93,775.66,209.2,775.31z M144.94,848.89
					c-0.16,0.03-0.32,0.05-0.48,0.08c-0.18-0.29-0.39-0.57-0.53-0.87c-3-6.61-5.99-13.22-8.99-19.83c-2.64-5.82-1.58-5.01-8.09-5.05
					c-0.12,0-0.24,0.01-0.36,0c-1.2-0.04-1.77,0.55-1.77,1.74c0,9.48-0.02,18.96,0.04,28.44c0,0.54,0.43,1.33,0.88,1.56
					c2.15,1.06,3.94-0.11,3.94-2.47c0-7.08,0-14.16,0.01-21.24c0-0.64,0.11-1.28,0.22-2.4c0.45,0.67,0.61,0.85,0.7,1.05
					c3.04,6.72,6.08,13.44,9.09,20.18c2.36,5.28,2.34,5.29,8.13,5.05c0.06,0,0.12-0.01,0.18,0c1.38,0.05,1.93-0.66,1.93-1.99
					c-0.01-9.36,0.01-18.72-0.05-28.08c0-0.58-0.49-1.46-0.97-1.67c-2.41-1.03-3.91,0.06-3.91,2.69c0,6.36,0.01,12.72,0.02,19.08
					C144.94,846.4,144.94,847.65,144.94,848.89z M349.15,848.79c-0.18,0.05-0.37,0.1-0.55,0.15c-0.29-0.56-0.6-1.1-0.86-1.67
					c-2.88-6.33-5.72-12.68-8.62-19.01c-2.71-5.92-1.45-4.97-8.27-5.03c-1.34-0.01-1.99,0.51-1.98,1.91
					c0.01,9.36-0.02,18.72,0.02,28.08c0,0.56,0.33,1.37,0.76,1.65c1.98,1.27,4.13,0.02,4.13-2.32c0.01-7.08,0-14.16,0.01-21.24
					c0-0.67,0.08-1.34,0.12-2.01c0.67,0.46,0.93,0.97,1.17,1.49c2.98,6.55,5.94,13.11,8.92,19.66c2.34,5.15,1.4,4.68,7.82,4.71
					c1.64,0.01,2.23-0.65,2.2-2.26c-0.07-4.08-0.02-8.16-0.03-12.24c0-5.1,0.03-10.2-0.04-15.3c-0.01-0.67-0.34-1.68-0.83-1.94
					c-2.11-1.13-3.89,0.04-3.89,2.42c0,7.08,0.01,14.16,0,21.24C349.24,847.65,349.18,848.22,349.15,848.79z M162.73,839.18
					c0,4.62,0.02,9.24-0.01,13.86c-0.01,1.38,0.43,2.13,1.96,2.11c4.08-0.05,8.16,0.06,12.24-0.04c5.95-0.15,10.1-3.53,11.53-9.25
					c1.1-4.38,1.1-8.77,0.03-13.18c-1.43-5.86-5.72-9.37-11.75-9.44c-3.9-0.05-7.8,0.05-11.7-0.04c-1.73-0.04-2.34,0.63-2.32,2.31
					C162.76,830.06,162.72,834.62,162.73,839.18z M113.43,839.26c-0.13-0.02-0.25-0.03-0.38-0.05c0-1.08,0.06-2.16-0.01-3.24
					c-0.57-8.29-4.43-12.94-11.95-13.74c-8.06-0.86-13.55,2.41-15.26,10.68c-0.88,4.23-0.81,8.45-0.02,12.68
					c1.14,6.12,4.44,9.45,10.53,10.43c1.46,0.24,2.99,0.19,4.49,0.11c5.63-0.31,9.72-3.38,11.24-8.76
					C112.81,844.75,113,841.97,113.43,839.26z M317.57,839.96c-0.3-2.57-0.42-4.8-0.83-6.97c-1.29-6.84-5.21-10.31-12.14-10.89
					c-7.72-0.64-12.97,3.16-14.53,10.62c-0.9,4.33-0.9,8.71-0.04,13.04c1.21,6.12,4.56,9.38,10.49,10.27
					c1.53,0.23,3.12,0.19,4.67,0.1c5.63-0.36,9.6-3.47,11.1-8.91C316.96,844.76,317.19,842.17,317.57,839.96z M212.22,823.23
					c-3.83,0-3.83,0-4.97,3.6c-1.16,3.65-2.33,7.3-3.5,10.95c-1.57,4.91-3.17,9.81-4.68,14.73c-0.22,0.72-0.34,1.84,0.06,2.3
					c0.99,1.15,4.48,0.13,5-1.35c0.52-1.47,1-2.95,1.44-4.45c0.3-1.02,0.88-1.44,1.96-1.42c2.88,0.05,5.76-0.05,8.63,0.07
					c0.58,0.02,1.39,0.64,1.63,1.19c0.65,1.47,0.89,3.14,1.61,4.56c0.38,0.75,1.37,1.31,2.22,1.65c0.67,0.27,1.54,0.04,2.32,0.06
					c1.51,0.03,1.93-0.71,1.5-2.06c-2.96-9.37-5.92-18.74-8.88-28.11c-0.37-1.17-1.06-1.83-2.37-1.73
					C213.55,823.28,212.88,823.23,212.22,823.23z M284.12,737.74c0.26-0.38,0.41-0.54,0.5-0.74c1.63-3.73,3.22-7.48,4.88-11.2
					c2.2-4.92,4.9-9.68,6.56-14.77c2.28-6.97,2.29-5.92-3.46-10.04c-6.25-4.49-11.47-2.8-13.73,4.57
					c-1.5,4.89-2.54,10.03-2.98,15.12c-1.07,12.48-3.78,24.52-8.43,36.13c-3.78,9.43-6.96,19.04-8.63,29.09
					c-0.26,1.58-0.47,3.16-0.74,4.95c1.96-0.49,3.14-1.07,3.61-3.14c1.59-6.89,3.29-13.75,5.28-20.53
					c1.64-5.58,3.77-11.01,5.63-16.51c3.34-9.84,4.92-19.98,5.34-30.36c0.22-5.45,0.73-10.93,3.47-15.85
					c1.88-3.38,5.1-4.73,8.28-3.56c3.73,1.37,5.54,4.51,4.73,8.4c-0.25,1.22-0.61,2.47-1.18,3.57c-1.85,3.56-3.92,7.02-5.73,10.6
					c-1.4,2.77-2.67,5.62-3.75,8.53C283.12,733.79,283.18,735.73,284.12,737.74z M55.93,839.14c0,0,0.01,0,0.01,0
					c0,4.56,0.04,9.11-0.02,13.67c-0.02,1.72,0.69,2.44,2.36,2.33c0.42-0.03,0.84-0.03,1.26,0c1.68,0.12,2.39-0.6,2.35-2.32
					c-0.09-3.23,0-6.47-0.09-9.71c-0.04-1.43,0.34-2.06,1.9-1.99c2.57,0.11,5.15-0.01,7.73,0.04c1.47,0.03,2.29-0.53,2.29-2.07
					s-0.96-1.88-2.27-1.87c-2.58,0.02-5.16-0.04-7.73,0.03c-1.42,0.04-1.91-0.54-1.86-1.91c0.07-2.04,0.08-4.08,0.01-6.11
					c-0.05-1.35,0.52-1.78,1.82-1.75c3.29,0.08,6.59,0.05,9.89,0.11c1.46,0.03,2.05-0.59,2.02-2.05c-0.03-1.44-0.48-2.25-2.09-2.24
					c-5.09,0.04-10.19,0.05-15.28-0.01c-1.72-0.02-2.32,0.71-2.3,2.38C55.97,830.15,55.93,834.64,55.93,839.14z M244.63,840.97
					c0,3.48,0,6.95,0,10.43c0,3.69,0.15,3.83,3.87,3.72c0.18-0.01,0.42,0.07,0.53-0.03c0.6-0.53,1.37-1,1.69-1.68
					c0.3-0.65,0.13-1.53,0.13-2.31c-0.02-7.19-0.03-14.38-0.1-21.57c-0.01-1.35,0.31-1.94,1.81-1.83c2.15,0.17,4.31,0.06,6.47,0.14
					c1.55,0.06,2.16-0.61,2.16-2.13c0-1.48-0.35-2.42-2.09-2.41c-7.61,0.03-15.22,0.03-22.83,0.01c-1.7,0-2.17,0.97-2.13,2.43
					c0.05,1.46,0.74,2.17,2.27,2.11c2.09-0.09,4.2,0,6.29-0.13c1.47-0.09,2.01,0.4,1.97,1.92
					C244.57,833.42,244.63,837.2,244.63,840.97z M285.6,747.05c0.23,0.05,0.47,0.1,0.7,0.15c0.2-0.4,0.49-0.78,0.6-1.21
					c0.28-1.1,0.42-2.24,0.71-3.34c1.56-5.76,4.91-10.64,7.79-15.75c2.32-4.12,4.65-8.26,6.55-12.58c1.73-3.93,2.06-8.15,0.41-12.28
					c-2.29-5.73-6.8-8.54-12.76-9.03c-6.04-0.5-11.08,1.58-14.76,6.53c-3.38,4.55-4.15,9.86-4.26,15.34
					c-0.1,5.21-0.18,10.41-0.25,15.62c0,0.25,0.18,0.5,0.28,0.74c0.19,0.02,0.38,0.04,0.57,0.05c0.22-1,0.51-2,0.66-3.01
					c0.89-6.05,1.57-12.13,2.68-18.13c0.77-4.18,2.18-8.24,4.84-11.71c2.37-3.1,5.49-4.56,9.32-3.52
					c8.42,2.28,13.19,7.64,10.29,16.97c-0.52,1.66-1.03,3.34-1.78,4.89c-2.04,4.27-4.39,8.41-6.28,12.74
					c-1.91,4.37-3.52,8.89-5.07,13.41C285.42,744.19,285.66,745.67,285.6,747.05z M261.89,888.97
					C261.89,888.98,261.89,888.98,261.89,888.97c1.32,0.01,2.64,0.06,3.95,0c4.19-0.19,6.92-2.31,7.91-6.3
					c0.83-3.32,0.76-6.66-0.41-9.9c-1.02-2.84-3.08-4.65-6.06-4.95c-3.09-0.31-6.21-0.21-9.32-0.27c-1.09-0.02-1.65,0.53-1.65,1.66
					c0,6.05,0,12.1-0.01,18.15c0,1.13,0.52,1.64,1.64,1.63C259.25,888.96,260.57,888.97,261.89,888.97z M217.38,877.78
					c-0.28-1.5-0.43-3.44-1.01-5.24c-1.3-4.06-4.17-5.73-9.14-5.62c-4.19,0.09-6.98,2.15-8.1,6.09c-1.03,3.6-1.15,7.3,0.1,10.81
					c0.61,1.7,1.81,3.52,3.27,4.51c5.62,3.8,13.04,0.59,14.37-6.02C217.14,880.96,217.19,879.57,217.38,877.78z M135.79,879.28
					c0.31-0.21,0.49-0.36,0.7-0.47c3.05-1.7,3.92-3.49,3.29-6.78c-0.46-2.4-2.24-4.01-5.29-4.3c-2.73-0.25-5.5-0.15-8.25-0.2
					c-1.34-0.02-1.72,0.76-1.72,1.98c0.02,5.87,0.05,11.74,0,17.61c-0.01,1.6,0.8,1.88,2.14,1.88c1.39,0,2.34-0.26,2.28-1.96
					c-0.07-2.03-0.04-4.07,0.02-6.11c0.02-0.52,0.33-1.46,0.54-1.47c0.77-0.04,1.6,0.13,2.31,0.43c0.35,0.15,0.5,0.78,0.71,1.21
					c1.15,2.24,2.25,4.5,3.44,6.72c0.57,1.07,2.89,1.67,3.8,0.96c1.14-0.9,0.1-1.74-0.29-2.51
					C138.29,883.94,137.03,881.64,135.79,879.28z M328.68,879.25c0.41-0.24,0.61-0.37,0.82-0.48c2.86-1.53,3.8-3.38,3.27-6.46
					c-0.45-2.61-2.17-4.25-5.25-4.54c-2.67-0.25-5.38-0.14-8.07-0.24c-1.5-0.06-1.99,0.65-1.98,2.07c0.04,5.81,0.04,11.62,0,17.43
					c-0.01,1.34,0.44,1.97,1.86,1.97c2.2,0,2.52-0.21,2.54-2.4c0.02-2.37,0.01-4.74,0.01-7.06c2.5-0.34,2.52-0.35,3.51,1.54
					c1.2,2.28,2.33,4.59,3.55,6.86c0.53,0.99,2.7,1.52,3.68,0.89c1.32-0.85,0.21-1.71-0.16-2.45
					C331.28,884.01,330,881.72,328.68,879.25z M113.07,879.3c0.34-0.26,0.43-0.34,0.53-0.4c3.11-1.64,4.07-3.48,3.49-6.67
					c-0.49-2.67-2.17-4.2-5.49-4.51c-2.73-0.25-5.5-0.14-8.25-0.17c-1.2-0.01-1.49,0.76-1.49,1.79c0.01,5.99,0.02,11.98-0.01,17.96
					c-0.01,1.4,0.73,1.73,1.94,1.68c1.16-0.05,2.37,0.11,2.35-1.65c-0.03-2.1-0.01-4.19,0.01-6.29c0.02-1.61,0.76-2.19,2.24-1.64
					c0.47,0.18,0.88,0.76,1.14,1.25c1.24,2.32,2.39,4.69,3.62,7.02c0.64,1.21,2.84,1.87,3.88,1.09c1.25-0.95,0.04-1.83-0.35-2.62
					C115.55,883.84,114.29,881.61,113.07,879.3z M271.98,839.24c0,4.55-0.02,9.11,0.03,13.66c0.01,0.65,0.32,1.81,0.61,1.85
					c1.5,0.21,3.09,0.35,4.54,0.02c0.46-0.11,0.81-1.73,0.82-2.66c0.06-8.63,0.03-17.25,0.03-25.88c0-2.86-0.17-3.02-3.07-3.02
					c-0.18,0-0.36,0-0.54,0c-2.15,0.03-2.4,0.25-2.41,2.36C271.96,830.14,271.98,834.69,271.98,839.24z M296.21,888.99
					c2.15,0.01,2.41-0.3,1.86-2.07c-1.83-5.82-3.78-11.61-5.5-17.47c-0.63-2.14-2.09-1.86-3.65-1.95c-1.56-0.09-2.41,0.5-2.88,2.02
					c-1.76,5.72-3.62,11.41-5.44,17.11c-0.66,2.09-0.01,2.86,2.11,2.24c0.64-0.19,1.29-1.01,1.55-1.69c1.23-3.14,1.18-3.16,4.6-3.16
					c0.24,0,0.48-0.01,0.72,0c3.5,0.1,2.9-0.67,4.01,2.91C294.06,888.46,294.82,889.21,296.21,888.99z M80.75,878.4
					C80.75,878.4,80.74,878.4,80.75,878.4c-0.01,2.94,0,5.87-0.01,8.81c0,1.04,0.29,1.76,1.5,1.76c3.77-0.01,7.55,0.01,11.32-0.01
					c1.08,0,1.45-0.68,1.42-1.66c-0.03-0.95-0.37-1.63-1.48-1.6c-1.26,0.03-2.51,0.04-3.77,0.05c-4.89,0.04-4.84,0.04-4.72-4.86
					c0.03-1.29,0.5-1.64,1.71-1.59c1.85,0.08,3.72,0.1,5.56-0.06c0.47-0.04,1.2-0.84,1.21-1.31c0.01-0.46-0.68-1.23-1.18-1.33
					c-1.04-0.21-2.14-0.07-3.22-0.09c-4.78-0.08-3.94,0.72-4.06-4.29c-0.03-1.18,0.43-1.59,1.58-1.55c2.03,0.08,4.07,0.03,6.11,0.07
					c1.04,0.02,1.79-0.24,1.83-1.44c0.04-1.27-0.7-1.63-1.84-1.62c-3.35,0.02-6.71,0.05-10.06-0.01c-1.41-0.03-1.93,0.54-1.91,1.91
					C80.78,872.53,80.75,875.47,80.75,878.4z M340.26,878.25c0,3,0.02,5.99-0.01,8.99c-0.01,1.05,0.27,1.75,1.49,1.75
					c3.71-0.01,7.43-0.01,11.14-0.01c1.06,0,1.48-0.56,1.49-1.58c0.02-1.1-0.4-1.72-1.56-1.69c-1.2,0.02-2.4,0.05-3.59,0.06
					c-4.86,0.04-4.83,0.04-4.69-4.87c0.03-1.13,0.34-1.62,1.54-1.57c1.85,0.08,3.72,0.1,5.57-0.04c0.51-0.04,0.96-0.77,1.44-1.18
					c-0.45-0.51-0.83-1.33-1.37-1.47c-0.96-0.25-2.02-0.07-3.04-0.09c-4.75-0.11-4.05,0.93-4.13-4.4c-0.02-1.1,0.44-1.47,1.51-1.43
					c2.03,0.07,4.07,0.04,6.11,0.08c1.02,0.02,1.77-0.17,1.8-1.43c0.03-1.29-0.65-1.65-1.8-1.64c-3.35,0.02-6.71,0.05-10.06-0.02
					c-1.45-0.03-1.87,0.6-1.85,1.94C340.3,872.5,340.27,875.37,340.26,878.25z M147.31,878.28c0,0,0.01,0,0.01,0
					c0,3,0.03,5.99-0.01,8.99c-0.02,1.24,0.52,1.73,1.72,1.72c3.53-0.02,7.07-0.02,10.61,0.01c1.15,0.01,1.79-0.34,1.79-1.64
					c0-1.28-0.6-1.71-1.77-1.67c-1.08,0.04-2.16,0.09-3.23,0.06c-5.87-0.15-4.67,1.22-4.83-5.08c-0.03-1.01,0.38-1.38,1.38-1.35
					c1.92,0.05,3.84,0.11,5.75-0.06c0.51-0.05,1.19-0.85,1.32-1.41c0.07-0.33-0.75-1.13-1.28-1.25c-0.97-0.21-2.02-0.05-3.04-0.08
					c-4.76-0.13-4.04,0.98-4.12-4.39c-0.02-1.11,0.45-1.48,1.51-1.45c2.1,0.06,4.19,0.04,6.29,0.07c1,0.01,1.58-0.35,1.6-1.45
					c0.03-1.15-0.49-1.61-1.62-1.61c-3.42,0.02-6.83,0.03-10.25-0.02c-1.43-0.02-1.87,0.62-1.84,1.97
					C147.35,872.52,147.31,875.4,147.31,878.28z M178.59,884.12c-1.17,2.8-0.92,3.46,2,4.64c0.78,0.31,1.58,0.58,2.4,0.75
					c3.51,0.73,6.7-0.34,8.01-2.62c2.41-4.21,0.28-9.48-4.38-10.83c-0.58-0.17-1.16-0.29-1.74-0.46c-2.22-0.65-3.22-1.99-2.78-3.68
					c0.4-1.55,2.03-2.35,4.14-1.74c1.33,0.38,2.54,1.17,3.8,1.77c1.1-2.01,1.08-3.37-0.2-4c-2.78-1.36-5.7-1.54-8.51-0.28
					c-0.99,0.44-1.94,1.48-2.42,2.48c-1.87,3.93,0.16,8.2,4.32,9.43c0.8,0.24,1.63,0.39,2.43,0.64c1.92,0.6,2.82,1.98,2.48,3.79
					c-0.31,1.69-1.4,2.6-3.48,2.19C182.65,885.8,180.71,884.86,178.59,884.12z M279.69,735.09c0.15,0.03,0.31,0.06,0.46,0.08
					c1.21-2.59,2.49-5.14,3.61-7.76c2.56-5.99,5.16-11.97,7.49-18.05c1.17-3.06-0.27-4.94-3.51-5.53c-1.34-0.24-2.05,0.15-2.68,1.36
					c-3.29,6.3-4.54,13.08-4.93,20.07C279.95,728.54,279.83,731.82,279.69,735.09z M264.56,787.44c2.16-0.63,3.02-1.65,3.41-3.49
					c1.05-4.98,2.36-9.91,3.58-14.86c0.13-0.51,0.39-0.98,0.73-1.8c0.96,4.65,1.82,8.85,2.7,13.14c1.98-0.62,2.56-1.46,2.05-3.3
					c-1.76-6.35-2.47-12.83-1.99-19.41c0.07-0.99,0.16-1.97,0.25-3.07c-2.12,0.93-2.22,0.89-3.08,3.75
					c-2.07,6.89-4.1,13.79-6.01,20.72C265.47,781.75,265.13,784.48,264.56,787.44z M247.49,795.23c2.66-0.31,2.9-0.52,2.58-2.96
					c-0.23-1.72-0.54-3.44-1.04-5.1c-1.83-6.11-8.27-10.28-14.44-8.45c-1.49,0.44-3.06,0.63-4.53,1.14
					c-5.67,1.96-11.5,2.17-17.41,1.71c-0.5-0.04-1-0.01-1.65-0.01c0.3,1.42-0.01,2.99,1.9,2.94c2.93-0.08,5.89-0.07,8.78-0.48
					c4.62-0.66,9.17-1.79,13.79-2.45c6.04-0.86,9.93,2,11.18,8.01C247.04,791.45,247.21,793.35,247.49,795.23z M67.05,879.76
					c0,0,0.01,0,0.01,0c0-2.52,0.04-5.04-0.02-7.55c-0.02-1.09,0.36-1.53,1.46-1.46c1.26,0.08,2.52,0.05,3.77,0.08
					c1.06,0.03,1.74-0.31,1.74-1.51c-0.01-1.16-0.59-1.55-1.7-1.55c-4.98,0.03-9.95,0.03-14.93-0.01c-1.17-0.01-1.6,0.49-1.6,1.62
					c0,1.12,0.57,1.48,1.57,1.46c1.14-0.03,2.28,0.02,3.41-0.1c1.47-0.16,1.98,0.35,1.95,1.88c-0.09,4.79,0.02,9.59-0.05,14.39
					c-0.02,1.69,0.81,1.98,2.23,2.01c1.5,0.03,2.22-0.45,2.17-2.06C66.99,884.56,67.05,882.16,67.05,879.76z M267.09,744.23
					c-7.2,15.7-12.67,31.74-14.5,49.06c1.85-0.26,3.03-0.65,3.12-2.68c0.1-2.2,0.56-4.39,0.93-6.58
					c2.17-12.67,6.18-24.74,11.72-36.32C269.06,746.27,269.22,745.09,267.09,744.23z M224.48,878.28c0,0,0.01,0,0.01,0
					c0,2.94,0.02,5.87-0.01,8.81c-0.01,1.24,0.43,1.91,1.77,1.9c3.06-0.03,6.11-0.01,9.17-0.01c0.98,0,1.61-0.35,1.59-1.47
					c-0.02-1.09-0.48-1.7-1.62-1.68c-1.44,0.03-2.88,0.01-4.31,0.13c-1.62,0.14-2.22-0.43-2.19-2.12c0.09-4.73,0.01-9.47,0.04-14.2
					c0.01-1.49-0.56-2.17-2.13-2.16c-1.55,0.01-2.37,0.51-2.34,2.17C224.51,872.53,224.48,875.41,224.48,878.28z M212.09,786.39
					c0.02,3.02,0.19,3.16,2.71,2.82c1.13-0.15,2.26-0.26,3.39-0.39c5.48-0.6,10.95-1.31,16.45-1.77c5.22-0.44,7.15,1.45,7.25,6.67
					c0.02,1.06,0,2.13,0,3.27c1.65,0.04,2.51-0.5,2.29-2.18c-0.3-2.25-0.4-4.55-0.93-6.75c-0.72-2.97-2.05-3.81-5.1-3.62
					c-5.98,0.39-11.96,0.83-17.94,1.27C217.53,785.92,214.86,786.16,212.09,786.39z M316.36,653.18c0.14-0.18,0.28-0.36,0.42-0.55
					c-0.53-0.5-0.99-1.16-1.62-1.49c-12.2-6.4-25.06-9.34-38.89-7.65c-4.13,0.5-7.38,2.22-10.4,5.57
					C283.57,643.07,300.26,644.68,316.36,653.18z M315.44,647.11c0.25-2.31,0.04-2.99-1.18-3.52c-10.87-4.77-22.21-6.71-34.05-5.49
					c-1.43,0.15-3.58,1.75-4.39,3.25C289.81,638.01,302.81,641.24,315.44,647.11z M279.6,776.86c2.3-1.25,2.46-1.44,2.07-2.95
					c-2.51-9.7-2.39-19.31,0.97-28.81c0.42-1.18-0.29-2.96-1.25-3.13c-1.56-0.28-1.68,0.98-1.95,2.02
					c-2.09,8.22-2.66,16.54-1.42,24.94C278.4,771.56,279.05,774.15,279.6,776.86z M309.44,878.42c0-2.88-0.05-5.75,0.02-8.63
					c0.04-1.58-0.5-2.26-2.17-2.29c-1.74-0.04-2.15,0.75-2.14,2.28c0.04,5.75,0.05,11.51-0.01,17.26c-0.02,1.52,0.59,2,2.03,1.96
					c1.37-0.03,2.33-0.23,2.29-1.95C309.38,884.17,309.43,881.3,309.44,878.42z M244.01,878.43
					C244.02,878.43,244.02,878.43,244.01,878.43c0.01,2.93,0.05,5.87-0.01,8.8c-0.03,1.53,0.79,1.77,2.04,1.76
					c1.27-0.01,2.26-0.14,2.25-1.79c-0.04-5.93-0.04-11.85-0.02-17.78c0.01-1.55-0.84-1.9-2.18-1.91c-1.37-0.01-2.13,0.38-2.1,1.93
					C244.06,872.44,244.01,875.43,244.01,878.43z M213.42,792.66c0.7,1.09,0.46,2.9,2.45,2.67c5.53-0.64,11.06-1.25,16.6-1.86
					c1.34-0.15,2.68-0.25,4.2-0.38c0,1.93,0,3.55,0,5.64c0.85-0.59,1.86-0.99,1.83-1.32c-0.18-2.64-0.56-5.27-0.9-8.1
					C229.47,791.78,221.55,792.55,213.42,792.66z M314.3,640.03c0.13-1.7,0.09-1.87-1.2-2.41c-7.91-3.3-16.14-5.23-24.72-5.63
					c-1.85-0.09-2.87,0.95-3.77,2.02c5.05,0.65,10.12,1.02,15.07,2.02C304.62,637.04,309.45,638.68,314.3,640.03z M249.29,782.92
					c2.55-2.91,3.12-6.14,3.97-9.23c0.07-0.25-0.2-0.67-0.42-0.92c-1.18-1.34-3.2-1.93-4.75-0.98c-1.89,1.15-3.55,2.66-5.56,4.22
					C246.04,777.34,249.23,778.38,249.29,782.92z M312.91,632.77c0.06-1.29-0.19-2.47-1.96-2.8c-5.45-1-10.9-2.03-16.35-3.05
					c-1.64-0.31-2.65,0.57-3.43,1.6C298.39,629.94,305.6,631.34,312.91,632.77z M311.49,627.46c-0.33-3.35-0.71-3.85-3.7-4.41
					c-2.35-0.44-4.72-0.81-7.09-1.16c-2.18-0.32-3.34,0.36-4.36,2.43C301.38,625.36,306.43,626.41,311.49,627.46z M217.26,797.91
					c1.03,0.4,1.8,0.71,2.57,1c3.09,1.19,6.14,0.17,9.21-0.16c0.94-0.1,1.93,0.25,2.88,0.16c0.62-0.06,1.61-0.47,1.71-0.89
					c0.25-1.04,0.08-2.18,0.08-3.17C228.12,795.9,222.85,796.87,217.26,797.91z M282,760.06c0.68,4.23,1.37,8.45,2.07,12.84
					c1.85-0.8,2.51-1.74,2.26-3.3c-0.21-1.3-0.21-2.63-0.42-3.93C285.52,763.32,284.65,761.23,282,760.06z M268.06,743.65
					c3.22-4.82,4.94-10.04,1.3-12.02C269.06,735.59,266.39,739.21,268.06,743.65z M271.7,773.68c-0.15-0.02-0.31-0.04-0.46-0.05
					c-0.58,3.5-1.15,7-1.73,10.49c0.17,0.07,0.35,0.13,0.52,0.2c0.92-0.64,1.89-1.21,2.74-1.94c0.32-0.27,0.54-0.93,0.46-1.35
					C272.78,778.57,272.22,776.13,271.7,773.68z M284.44,759.72c1.85-2.59,1.57-5.36,1.21-8.27
					C282.86,753.28,282.28,757.21,284.44,759.72z M308.54,619.81c-0.58-2.04-1.14-3.54-3.29-3.59c-1.69-0.04-2.16,1.31-3.29,2.46
					C304.28,619.08,306.26,619.42,308.54,619.81z M289.32,760.63c0,2.73,0,5.05,0,7.39C290.97,766.94,291.19,762.74,289.32,760.63z"
					/>
				<path d="M264.31,670.18c0.31,0.57,0.61,1.14,1,1.85c0.98-0.49,1.88-0.93,2.76-1.39c16.55-8.72,34.49-6.4,48.32,6.1
					c2.15,1.95,2.62,4.06,1.98,7.04c-0.7-0.68-1.22-1.21-1.75-1.72c-9.42-8.95-20.38-14.19-33.63-13.73
					c-5.93,0.21-11.17,2.41-16.03,5.71c-1.31,0.89-0.8,1.94-0.49,3.02c-0.4-0.56-0.81-1.11-1.2-1.65c-1.45,0.98-1.38,2.15,0.36,4
					c0.32-0.8,0.58-1.44,0.84-2.09c0.64,1.25,1.32,0.3,1.88-0.03c4.15-2.49,8.55-4.39,13.32-5.23c15.03-2.66,26.92,2.76,36.22,14.43
					c0.78,0.97,0.57,2.72,0.82,4.11c-0.23,0.08-0.46,0.16-0.69,0.24c-0.33-0.45-0.66-0.9-0.99-1.35
					c-6.43-8.84-14.85-14.58-25.77-16.2c-8.39-1.24-16.04,0.91-23.02,5.66c-1.76,1.2-0.71,2.45-0.42,4.01
					c0.67-0.37,1.19-0.61,1.67-0.92c14.32-9.29,36.38-4.74,45.98,9.28c2.62,3.83,2.84,7.76,2.05,11.98
					c-1.5,8.07-2.97,16.15-4.73,24.16c-0.5,2.28-1.88,4.38-2.99,6.5c-3.22,6.12-6.31,12.27-7.86,19.07
					c-0.11,0.5-0.48,0.94-0.73,1.41c-0.18-0.05-0.37-0.1-0.55-0.15c0.05-0.65,0.03-1.32,0.15-1.95c1.41-7.18,4.53-13.75,7.22-20.49
					c2.57-6.45,5.41-12.88,7.1-19.58c3.92-15.58-5.93-29.95-21.84-32.8c-8.4-1.51-16.09,0-23.01,5.08
					c-2.23,1.64-2.38,2.11-1.43,5.08c0.56-0.42,1.07-0.77,1.55-1.17c9.98-8.18,25.06-8.41,34.97-0.22
					c8.2,6.78,10.39,15.66,7.78,25.79c-1.71,6.63-5.11,12.52-8.28,18.51c-3.32,6.25-6.86,12.43-8.24,19.48
					c-0.49,2.5-0.42,5.11-0.62,7.68c-0.05,0.6-0.15,1.19-0.22,1.78c-0.18,0.02-0.37,0.05-0.55,0.07c-0.22-0.62-0.53-1.22-0.66-1.85
					c-1.03-4.94-0.19-9.75,1.67-14.28c2.71-6.6,5.94-12.98,8.66-19.57c2.05-4.97,4.2-10.01,5.34-15.23
					c2.41-10.96-2.72-18.79-12.36-23.84c-8.48-4.44-20.07-2.46-26.92,4.22c-2.3,2.24-2.45,2.71-1.8,6.48
					c0.58-0.72,0.99-1.23,1.4-1.74c5.43-6.69,12.54-9.39,20.93-8.07c8.32,1.31,13.81,6.31,16.46,14.31
					c1.69,5.11,0.5,10.05-1.68,14.67c-2.86,6.07-6.13,11.95-9.2,17.92c-2.52,4.89-4.31,9.99-4.8,15.54
					c-0.23,2.6-0.95,5.16-1.46,7.82c-1.72,0.16-2.65-0.88-2.35-2.31c0.55-2.6,1.53-5.1,2.33-7.64c0.16-0.49,0.51-0.97,0.51-1.46
					c-0.01-5.58,1.98-10.56,4.55-15.36c2.71-5.08,5.62-10.06,8.14-15.23c2.74-5.62,3.21-11.42-0.11-17.06
					c-3.81-6.47-12.08-9.98-19.93-8.55c-7.47,1.37-13.25,7.38-14.57,15.26c-0.86,5.14-1.64,10.3-2.41,15.45
					c-0.08,0.51,0.07,1.06,0.18,1.58c0.68,3.1-0.12,6.41-2.37,9.29c-0.19-0.52-0.43-0.91-0.46-1.32c-0.31-3.57-0.1-7.06,1.66-10.31
					c0.27-0.49,0.18-1.18-0.16-1.89c-0.17,0.32-0.36,0.64-0.51,0.97c-1.17,2.63-2.19,5.33-3.54,7.86c-0.97,1.82-1.28,3.62-1.4,5.64
					c-0.83,14.6-6.78,26.48-19.15,34.66c-7.21,4.77-15.41,6.21-23.91,5.73c-3.06-0.17-5.65,0.6-8.17,2.09l0.04-0.04
					c-1.26,0.35-2.52,0.7-3.78,1.04c-3.3,0.89-6.59,1.78-9.9,2.65c-0.49,0.13-1.01,0.11-1.52,0.17c-0.05-0.18-0.11-0.36-0.16-0.54
					c5.25-1.88,10.5-3.76,15.75-5.63c-0.02-0.19-0.04-0.37-0.06-0.56c-0.94,0.05-1.9-0.02-2.8,0.18
					c-7.95,1.76-15.84,3.85-23.85,5.31c-9.67,1.76-19.44,2.19-29.06-0.56c-2.12-0.6-4.14-1.56-6.17-2.45
					c-0.39-0.17-0.59-0.76-0.87-1.15c0.47-0.19,0.93-0.52,1.4-0.52c0.64,0,1.29,0.21,1.92,0.39c1.37,0.39,2.73,0.82,4.09,1.23
					c0.11-0.14,0.22-0.29,0.33-0.43c-0.59-0.55-1.1-1.31-1.8-1.6c-2.7-1.13-5.43-2.19-8.21-3.11c-3.37-1.11-6.23-2.67-8.83-5.34
					c-4.2-4.32-8.84-8.29-13.67-11.9c-11.67-8.72-19.65-19.82-23.46-33.95c-2.54-9.44-5.43-18.8-6.44-28.57
					c-0.63-6.1-0.95-12.24,1.56-18.06c0.68-1.57,1.63-3.12,2.8-4.34c1.17-1.22,1.89-2.51,2.37-4.1c2.25-7.42,4.7-14.76,9.23-21.18
					c2.67-3.79,5.89-6.95,10.26-8.74c1.73-0.71,2.87-1.82,3.64-3.67c1.87-4.47,5.61-7.24,9.64-9.61c7.59-4.45,15.91-6.91,24.44-8.78
					c8.82-1.93,17.77-2.74,26.77-2.93c3.65-0.08,7.31,0.24,10.96,0.44c0.6,0.03,1.18,0.34,1.71,0.91c-2.75,0-5.49,0-8.52,0
					c2.67,2.54,7.98,2.65,13.81,0.6c0.49,0.76,0.82,1.73,1.48,2.16c0.69,0.45,1.71,0.42,2.6,0.53c0.95,0.11,1.91,0.11,2.87,0.21
					c1.81,0.18,3.29,0.8,3.48,3.18c0.69-0.24,1.22-0.41,1.74-0.62c0.9-0.37,1.78-0.93,2.25,0.6c0.08,0.25,1.05,0.35,1.58,0.29
					c0.56-0.06,1.09-0.4,1.5-0.56c0.21,1.14,0.17,2.34,0.69,3.22c0.43,0.73,1.5,1.08,2.32,1.55c0.24,0.14,0.67,0.26,0.86,0.14
					c1.91-1.18,3.23,0.29,4.67,1.03c10.04,5.14,19.19,14.46,24.06,22.02c-1.09-1.12-2.12-2.29-3.28-3.33
					c-1.13-1.01-2.38-1.87-3.58-2.79c-0.1,0.11-0.2,0.22-0.29,0.33c0.11,0.17,0.18,0.39,0.33,0.52c5.37,4.89,9.15,10.91,12.29,17.37
					c0.95,1.95,1,1.99,2.81,0.66c8.86-6.49,18.94-8.41,29.64-7.76c9.63,0.58,18.55,3.58,26.9,8.37c0.84,0.48,1.96,0.84,1.53,2.33
					c-0.24-0.06-0.47-0.07-0.65-0.17c-14.98-8.88-30.81-9.82-47.18-4.85c-3.53,1.07-6.86,2.81-10.29,4.22
					c-1.09,0.45-1.12,1.26-0.51,1.99c0.25,0.31,1.17,0.42,1.56,0.21c9.16-5.02,19-6.92,29.33-6.18c9.59,0.69,18.57,3.54,26.87,8.45
					c1.72,1.02,1.87,1.36,1.38,3.62c-0.53-0.34-1.03-0.63-1.5-0.97c-14.93-10.62-30.89-11.71-47.64-5.07
					c-2.49,0.99-4.85,2.32-7.24,3.54c-1.2,0.61-1.18,0.98,0.02,2.95c0.93-0.57,1.85-1.14,2.78-1.71c13-7.97,26.53-7.77,40.19-2.19
					c4.29,1.75,8.17,4.5,12.27,6.72c2.05,1.11,1.98,2.83,1.77,4.65c-3.37-2.07-6.53-4.37-9.99-6.06c-14.06-6.86-28.31-7.58-42.6-0.6
					c-0.62,0.3-0.97,1.14-1.44,1.73c-0.57,0.01-1.15,0.03-1.72,0.04c0.05,0.97,0.1,1.94,0.16,3.01
					C264.65,672.67,264.65,672.67,264.31,670.18z M104.32,712.6c1.09,3.03,0.3,5.92,0.07,8.83c-0.09,1.1,0.07,2.46,0.66,3.34
					c10.98,16.43,25.09,29.29,43.36,37.18c18.63,8.04,37.46,8.22,56.36,0.79c0.54-0.21,1.04-0.52,1.56-0.78
					c-0.72-0.13-1.28,0.05-1.83,0.25c-11.93,4.24-24.19,5.74-36.66,3.52c-22.18-3.96-39.11-15.86-50.72-35.09
					c-9.92-16.44-12.69-34.09-7.73-52.77c1.78-6.72,4.76-12.9,8.7-18.46c0.89,0.02,1.84,0.04,2.34-0.42
					c0.59-0.55,0.79-1.52,1.16-2.3c-0.83-0.21-1.66-0.42-2.63-0.67c0.54-0.62,1.06-1.18,1.55-1.77c1.72-2.07,3.5-4.1,5.11-6.26
					c0.33-0.45,0.02-1.38,0-2.1c-0.56,0.2-1.25,0.26-1.67,0.63c-6.57,5.86-11.84,12.71-15.56,20.71
					c-5.3,11.39-7.22,23.42-6.56,35.91c0.04,0.83,0.01,1.67,0.01,2.5c-1.48-6.02-1.74-12.13-1.23-18.24
					c0.88-10.48,4.52-20.1,9.93-29.03c3.76-6.2,7.87-12.19,11.8-18.29c0.41-0.64,0.73-1.34,1.1-2.01c-0.18-0.14-0.35-0.29-0.53-0.43
					c-1.65,1.43-3.46,2.72-4.93,4.31c-7.78,8.42-12.96,18.38-16.87,29.06c-3.32,9.06-5.53,18.33-3.78,28.01
					c0.77,4.27,2.27,8.41,3.64,12.55C101.46,713.03,102.63,713.99,104.32,712.6z M129.39,636.03c2.26-1.44,4.45-3.01,6.8-4.3
					c10.13-5.57,21.18-7.93,32.58-8.63c12.7-0.78,25.27,0.27,37.55,3.91c11.37,3.37,21.79,8.42,30.19,17.05
					c0.13,0.13,0.33,0.18,0.5,0.27c0.12-0.15,0.24-0.3,0.36-0.45c-2.65-2.48-5.17-5.13-7.98-7.41
					c-9.48-7.67-20.62-11.82-32.25-14.87c-3.84-1.01-7.71-1.85-11.57-2.77c0-0.17,0-0.34,0-0.51c1.26-0.08,2.54-0.32,3.79-0.21
					c1.54,0.14,3.05,0.62,4.59,0.87c1.57,0.26,2.95,0,3.66-1.72c-0.22-0.17-0.34-0.3-0.49-0.37c-0.27-0.12-0.55-0.25-0.84-0.3
					c-7.3-1.42-14.63-2.68-22.12-2.23c-4.5,0.27-8.78,1.31-12.38,4.23c-0.6,0.48-1.06,1.14-1.58,1.71c0.12,0.19,0.25,0.37,0.37,0.56
					c1.31-0.49,2.65-0.88,3.91-1.47c2.11-1,2.78-0.73,3.45,1.77c-5.33,0.86-10.65,1.69-15.96,2.57c-5.27,0.87-10.53,1.83-15.34,4.3
					C133.24,629.76,130.6,632.24,129.39,636.03z M257.27,734.36c-1.03,1.33-1.96,2.21-2.48,3.28c-1.35,2.74-2.56,5.55-3.74,8.37
					c-2.91,6.9-7.65,12.1-14.26,15.59c-5.08,2.68-10.16,5.36-15.23,8.05c-0.38,0.2-0.72,0.47-1.08,0.71
					c10.2,0.39,19.15-2.36,26.17-9.98c6.43-6.97,9.24-15.56,10.77-24.68C257.44,735.44,257.35,735.17,257.27,734.36z M200.65,620.27
					c8,2.19,15.28,5.1,22.13,9.04c6.89,3.95,13.05,8.89,18.89,14.27C236.38,632.26,210.66,617.52,200.65,620.27z M256.29,693.06
					c-0.65,2.05-1.46,4.06-1.91,6.15c-1.39,6.42-2.65,12.86-3.95,19.3c-0.01,0.07,0.12,0.17,0.18,0.26
					C255.27,715,258.9,699.82,256.29,693.06z M111.7,712.93c-0.16,0.09-0.33,0.17-0.49,0.26c0,0.27-0.03,0.54,0.01,0.81
					c0.7,4.6,2.15,8.95,4.68,12.87c0.63,0.98,1.5,1.87,2.42,2.6c0.96,0.76,2.11,0.92,3.33-0.06c-2.65-2.07-3.92-4.89-5.11-7.76
					c-0.74-1.76-1.45-3.55-2.35-5.23C113.5,715.17,112.53,714.09,111.7,712.93z M237,653.09c0.09-0.15,0.19-0.31,0.28-0.46
					c-4.15-3.96-8.21-8.02-12.47-11.86c-2.21-1.99-4.69-3.73-7.2-5.35c-1.81-1.17-3.84-2.01-6.16-1.68
					c5.11,1.69,8.98,5.15,12.77,8.72c3.01,2.83,5.99,5.7,9.09,8.43C234.36,651.82,235.76,652.37,237,653.09z M264.44,712.85
					c1.55-5.35,2.76-10.73,3.16-16.7C265.02,698.57,262.9,710.07,264.44,712.85z M252.77,721.38c-0.15-0.08-0.31-0.16-0.46-0.24
					c-3.38,2.61-6.13,5.71-7.67,10.36c1.56-0.8,3.15-1.1,3.77-2.03C250.08,726.91,251.34,724.09,252.77,721.38z M255.3,659.51
					c-1.22-1.45-2.22-2.75-3.35-3.92c-0.21-0.21-1.02,0-1.44,0.22c-0.2,0.1-0.31,0.78-0.17,1.04c0.69,1.25,1.44,2.48,2.27,3.64
					c0.18,0.26,0.85,0.41,1.16,0.28C254.24,660.58,254.61,660.1,255.3,659.51z M258.8,684.71c0.23,0.16,0.47,0.32,0.7,0.48
					c0.8-1.01,1.91-1.91,2.31-3.06c0.29-0.85-0.35-2.02-0.58-3.05c-0.7,0.37-1.65,0.56-2.06,1.14
					C258.18,681.6,258.44,683.19,258.8,684.71z M245.83,733.75c-3.22,0.16-4.86,2-6.18,4.51
					C242.89,738.28,244.5,736.35,245.83,733.75z M254.46,690.83c2.14-2.17,2.32-3.55,0.89-6.08
					C253.64,685.91,253.51,686.7,254.46,690.83z M239.4,741.78c-2.84-0.29-3.82,0.28-5.69,3.13
					C236.18,744.94,237.99,743.91,239.4,741.78z M262.44,684.84c-0.19-0.04-0.38-0.08-0.56-0.13c-0.64,0.77-1.38,1.48-1.86,2.33
					c-0.2,0.36,0.01,1.17,0.31,1.54c0.32,0.39,1.01,0.69,1.5,0.63c0.3-0.03,0.7-0.79,0.73-1.25
					C262.62,686.94,262.49,685.89,262.44,684.84z M226.34,750.89c0.08,0.17,0.16,0.35,0.25,0.52c1.78-0.87,3.56-1.73,5.76-2.81
					C229.23,747.73,227.96,749.67,226.34,750.89z M254.66,664.71c2.02-1.06,2.09-1.35,0.8-3.07
					C253.51,662.53,253.41,662.86,254.66,664.71z M257.81,667.39c-1.71,0.34-2.05,1.06-1.38,2.1c0.32,0.49,0.91,0.79,1.38,1.18
					C257.81,669.64,257.81,668.62,257.81,667.39z M246.07,745.16c1.64,0.75,3.05-0.28,3.53-2.65
					C248.37,743.43,247.32,744.22,246.07,745.16z M253.53,681.64c0.21,0.02,0.42,0.04,0.63,0.06c0.88-1.02,0.41-2.02-0.63-3.01
					C253.53,679.67,253.53,680.65,253.53,681.64z M266.74,680.73c-0.23,0.01-0.46,0.01-0.69,0.02c-0.76,1.13-0.09,2.07,0.54,3.01
					c0.19-0.03,0.39-0.05,0.58-0.08C267.03,682.7,266.89,681.71,266.74,680.73z"/>
				<path d="M144.94,848.89c0-1.25,0-2.49,0-3.74c-0.01-6.36-0.01-12.72-0.02-19.08c0-2.63,1.5-3.72,3.91-2.69
					c0.49,0.21,0.97,1.09,0.97,1.67c0.06,9.36,0.03,18.72,0.05,28.08c0,1.33-0.55,2.04-1.93,1.99c-0.06,0-0.12,0-0.18,0
					c-5.79,0.24-5.77,0.23-8.13-5.05c-3.01-6.73-6.06-13.45-9.09-20.18c-0.09-0.21-0.25-0.38-0.7-1.05
					c-0.11,1.12-0.22,1.76-0.22,2.4c-0.01,7.08-0.01,14.16-0.01,21.24c0,2.35-1.8,3.53-3.94,2.47c-0.45-0.22-0.88-1.02-0.88-1.56
					c-0.05-9.48-0.04-18.96-0.04-28.44c0-1.19,0.57-1.78,1.77-1.74c0.12,0,0.24-0.01,0.36,0c6.51,0.04,5.46-0.77,8.09,5.05
					c2.99,6.61,5.99,13.22,8.99,19.83c0.14,0.31,0.35,0.58,0.53,0.87C144.62,848.95,144.78,848.92,144.94,848.89z"/>
				<path d="M349.15,848.79c0.03-0.57,0.08-1.14,0.08-1.71c0-7.08-0.01-14.16,0-21.24c0-2.39,1.78-3.56,3.89-2.42
					c0.49,0.26,0.82,1.27,0.83,1.94c0.07,5.1,0.04,10.2,0.04,15.3c0,4.08-0.04,8.16,0.03,12.24c0.03,1.61-0.56,2.27-2.2,2.26
					c-6.41-0.03-5.47,0.44-7.82-4.71c-2.98-6.55-5.95-13.11-8.92-19.66c-0.24-0.52-0.5-1.03-1.17-1.49
					c-0.04,0.67-0.12,1.34-0.12,2.01c-0.01,7.08,0,14.16-0.01,21.24c0,2.35-2.16,3.59-4.13,2.32c-0.44-0.28-0.76-1.08-0.76-1.65
					c-0.04-9.36-0.01-18.72-0.02-28.08c0-1.4,0.65-1.92,1.98-1.91c6.82,0.07,5.56-0.88,8.27,5.03c2.9,6.32,5.74,12.67,8.62,19.01
					c0.26,0.57,0.57,1.12,0.86,1.67C348.78,848.89,348.97,848.84,349.15,848.79z"/>
				<path d="M162.72,839.18c0-4.56,0.04-9.12-0.02-13.68c-0.02-1.68,0.59-2.36,2.32-2.31c3.9,0.09,7.8-0.01,11.7,0.04
					c6.03,0.08,10.32,3.58,11.75,9.44c1.07,4.4,1.07,8.79-0.03,13.18c-1.43,5.72-5.58,9.09-11.53,9.25
					c-4.08,0.11-8.16-0.01-12.24,0.04c-1.54,0.02-1.97-0.73-1.96-2.11C162.74,848.42,162.73,843.8,162.72,839.18z M168.51,839.12
					c0,3.6,0.03,7.19-0.02,10.79c-0.02,1.2,0.33,1.77,1.63,1.71c1.74-0.08,3.48,0.03,5.21-0.04c3.59-0.16,6.18-2.08,7.18-5.51
					c1.31-4.53,1.24-9.14-0.02-13.66c-0.86-3.08-2.96-5.08-6.21-5.49c-1.95-0.25-3.94-0.14-5.91-0.29c-1.43-0.1-1.9,0.5-1.87,1.88
					C168.54,832.04,168.51,835.58,168.51,839.12z"/>
				<path d="M113.43,839.26c-0.44,2.71-0.63,5.49-1.37,8.11c-1.52,5.38-5.6,8.45-11.24,8.76c-1.49,0.08-3.02,0.13-4.49-0.11
					c-6.09-0.98-9.39-4.31-10.53-10.43c-0.79-4.23-0.86-8.45,0.02-12.68c1.71-8.27,7.21-11.54,15.26-10.68
					c7.52,0.8,11.38,5.45,11.95,13.74c0.07,1.07,0.01,2.16,0.01,3.24C113.18,839.23,113.31,839.25,113.43,839.26z M107.52,838.72
					c-0.47-2.76-0.73-5.46-1.44-8.04c-0.94-3.42-3.27-4.99-6.78-5.06c-3.42-0.08-5.79,1.53-6.98,4.84c-0.38,1.06-0.61,2.2-0.77,3.32
					c-0.61,4.38-0.57,8.74,0.6,13.03c0.75,2.74,2.21,4.96,5.23,5.6c4.14,0.87,7.33-0.8,8.54-4.89
					C106.77,844.65,107.01,841.63,107.52,838.72z"/>
				<path d="M317.57,839.96c-0.38,2.21-0.6,4.8-1.28,7.26c-1.5,5.44-5.47,8.55-11.1,8.91c-1.55,0.1-3.14,0.13-4.67-0.1
					c-5.93-0.88-9.28-4.14-10.49-10.27c-0.86-4.33-0.86-8.71,0.04-13.04c1.56-7.46,6.81-11.26,14.53-10.62
					c6.92,0.57,10.85,4.04,12.14,10.89C317.14,835.16,317.27,837.38,317.57,839.96z M295.07,838.66c0.47,2.91,0.72,5.73,1.43,8.44
					c0.99,3.76,3.36,5.49,6.82,5.52c3.43,0.02,5.87-1.72,6.94-5.41c1.58-5.47,1.62-11.03,0.07-16.52c-0.94-3.34-3.33-5-6.8-5.08
					c-3.43-0.09-5.95,1.47-6.94,4.84C295.8,833.11,295.55,835.94,295.07,838.66z"/>
				<path d="M212.22,823.23c0.66,0,1.32,0.04,1.98-0.01c1.31-0.1,2,0.56,2.37,1.73c2.96,9.37,5.92,18.74,8.88,28.11
					c0.43,1.36,0,2.1-1.5,2.06c-0.78-0.02-1.64,0.2-2.32-0.06c-0.84-0.33-1.84-0.9-2.22-1.65c-0.73-1.42-0.96-3.09-1.61-4.56
					c-0.24-0.55-1.06-1.16-1.63-1.19c-2.87-0.12-5.75-0.03-8.63-0.07c-1.08-0.02-1.66,0.41-1.96,1.42
					c-0.44,1.49-0.92,2.98-1.44,4.45c-0.53,1.48-4.02,2.5-5,1.35c-0.39-0.46-0.28-1.58-0.06-2.3c1.51-4.93,3.11-9.82,4.68-14.73
					c1.17-3.65,2.34-7.3,3.5-10.95C208.4,823.24,208.39,823.23,212.22,823.23z M211.97,829.54c-0.16-0.01-0.32-0.03-0.48-0.04
					c-1.4,4.76-2.79,9.53-4.24,14.47c3.12,0,5.98,0,9.01,0C214.79,839,213.38,834.27,211.97,829.54z"/>
				<path d="M284.12,737.74c-0.94-2.02-1-3.95-0.33-5.74c1.08-2.91,2.35-5.76,3.75-8.53c1.81-3.58,3.87-7.04,5.73-10.6
					c0.57-1.1,0.93-2.35,1.18-3.57c0.8-3.89-1.01-7.03-4.73-8.4c-3.18-1.17-6.4,0.17-8.28,3.56c-2.74,4.93-3.25,10.41-3.47,15.85
					c-0.41,10.38-2,20.52-5.34,30.36c-1.87,5.51-4,10.94-5.63,16.51c-1.99,6.78-3.7,13.65-5.28,20.53
					c-0.48,2.06-1.65,2.64-3.61,3.14c0.27-1.79,0.48-3.37,0.74-4.95c1.68-10.05,4.86-19.66,8.63-29.09
					c4.65-11.61,7.36-23.65,8.43-36.13c0.44-5.1,1.48-10.23,2.98-15.12c2.26-7.38,7.48-9.06,13.73-4.57
					c5.75,4.13,5.74,3.07,3.46,10.04c-1.66,5.09-4.37,9.85-6.56,14.77c-1.66,3.72-3.25,7.47-4.88,11.2
					C284.53,737.2,284.38,737.37,284.12,737.74z"/>
				<path d="M55.93,839.14c0-4.5,0.04-8.99-0.02-13.49c-0.02-1.67,0.58-2.4,2.3-2.38c5.09,0.06,10.19,0.05,15.28,0.01
					c1.61-0.01,2.06,0.8,2.09,2.24c0.03,1.46-0.57,2.07-2.02,2.05c-3.3-0.06-6.59-0.03-9.89-0.11c-1.29-0.03-1.86,0.4-1.82,1.75
					c0.07,2.04,0.07,4.08-0.01,6.11c-0.05,1.37,0.44,1.95,1.86,1.91c2.58-0.07,5.15,0,7.73-0.03c1.31-0.01,2.27,0.33,2.27,1.87
					s-0.83,2.09-2.29,2.07c-2.58-0.04-5.16,0.07-7.73-0.04c-1.55-0.06-1.94,0.56-1.9,1.99c0.09,3.23,0,6.47,0.09,9.71
					c0.05,1.72-0.67,2.44-2.35,2.32c-0.42-0.03-0.84-0.02-1.26,0c-1.67,0.11-2.38-0.61-2.36-2.33c0.07-4.55,0.02-9.11,0.02-13.67
					C55.94,839.14,55.93,839.14,55.93,839.14z"/>
				<path d="M244.63,840.97c0-3.78-0.06-7.55,0.03-11.33c0.03-1.51-0.5-2-1.97-1.92c-2.09,0.12-4.19,0.04-6.29,0.13
					c-1.53,0.06-2.22-0.65-2.27-2.11c-0.05-1.46,0.43-2.43,2.13-2.43c7.61,0.02,15.22,0.03,22.83-0.01
					c1.74-0.01,2.09,0.93,2.09,2.41c0,1.52-0.61,2.19-2.16,2.13c-2.15-0.09-4.32,0.02-6.47-0.14c-1.5-0.12-1.83,0.48-1.81,1.83
					c0.07,7.19,0.08,14.38,0.1,21.57c0,0.78,0.17,1.66-0.13,2.31c-0.31,0.68-1.09,1.15-1.69,1.68c-0.1,0.09-0.35,0.02-0.53,0.03
					c-3.72,0.11-3.87-0.03-3.87-3.72C244.63,847.92,244.63,844.45,244.63,840.97z"/>
				<path d="M285.6,747.05c0.07-1.38-0.18-2.86,0.25-4.11c1.55-4.52,3.16-9.03,5.07-13.41c1.9-4.33,4.24-8.47,6.28-12.74
					c0.75-1.56,1.26-3.24,1.78-4.89c2.9-9.33-1.87-14.69-10.29-16.97c-3.83-1.04-6.94,0.42-9.32,3.52
					c-2.65,3.47-4.06,7.53-4.84,11.71c-1.11,6-1.79,12.09-2.68,18.13c-0.15,1.01-0.44,2.01-0.66,3.01
					c-0.19-0.02-0.38-0.04-0.57-0.05c-0.1-0.25-0.28-0.5-0.28-0.74c0.07-5.21,0.15-10.41,0.25-15.62
					c0.11-5.48,0.88-10.79,4.26-15.34c3.67-4.95,8.72-7.02,14.76-6.53c5.96,0.49,10.46,3.3,12.76,9.03
					c1.65,4.13,1.32,8.35-0.41,12.28c-1.91,4.32-4.23,8.46-6.55,12.58c-2.89,5.11-6.24,9.99-7.79,15.75
					c-0.3,1.1-0.44,2.23-0.71,3.34c-0.11,0.43-0.39,0.81-0.6,1.21C286.06,747.15,285.83,747.1,285.6,747.05z"/>
				<path d="M261.89,888.97c-1.32,0-2.64-0.01-3.95,0c-1.11,0.01-1.64-0.5-1.64-1.63c0.02-6.05,0.02-12.1,0.01-18.15
					c0-1.12,0.56-1.68,1.65-1.66c3.11,0.06,6.24-0.04,9.32,0.27c2.97,0.3,5.03,2.12,6.06,4.95c1.17,3.25,1.23,6.59,0.41,9.9
					c-0.99,3.99-3.72,6.11-7.91,6.3C264.52,889.03,263.2,888.98,261.89,888.97C261.89,888.98,261.89,888.98,261.89,888.97z
					 M260.6,878.06c0,0-0.01,0-0.01,0c0,0.78,0,1.56,0,2.34c0,0.84-0.02,1.68,0,2.52c0.08,3.83-0.65,3.48,3.63,3.43
					c3.44-0.04,5.16-1.47,5.54-4.87c0.24-2.18,0.21-4.43-0.06-6.61c-0.37-3.02-2.19-4.51-5.21-4.72c-0.78-0.05-1.56,0.05-2.34,0
					c-1.19-0.07-1.59,0.48-1.57,1.61C260.63,873.86,260.6,875.96,260.6,878.06z"/>
				<path d="M209.16,775.35c3.77,0.1,7.55,0.42,11.31,0.27c12.57-0.5,23.58-4.6,31.88-14.52c3.94-4.71,6.43-10.19,8.74-15.83
					c1.41-3.43,0.76-7.19,2.58-10.58c1.38-0.25,2.25,0.38,1.92,2.12c-0.37,1.97-1.22,3.85-1.81,5.79c-0.2,0.67-0.22,1.39-0.31,2.09
					c-0.06,0.47-0.02,0.97-0.17,1.4c-4.41,12.38-11.59,22.46-23.85,28.16c-9,4.18-18.54,5.02-28.31,4.06
					c-1.51-0.15-1.33-1.27-1.65-2.17c-0.1-0.28-0.2-0.56-0.31-0.84C209.19,775.31,209.16,775.35,209.16,775.35z"/>
				<path d="M217.38,877.78c-0.19,1.79-0.23,3.18-0.5,4.52c-1.34,6.62-8.75,9.82-14.37,6.02c-1.46-0.99-2.66-2.81-3.27-4.51
					c-1.26-3.51-1.13-7.2-0.1-10.81c1.12-3.94,3.91-6,8.1-6.09c4.98-0.11,7.84,1.56,9.14,5.62
					C216.95,874.34,217.1,876.28,217.38,877.78z M213.1,878.04c-0.24-1.68-0.33-3.36-0.73-4.97c-0.62-2.47-2.14-3.59-4.48-3.61
					c-2.46-0.02-3.97,1.09-4.62,3.66c-0.87,3.43-0.81,6.89,0.1,10.3c0.65,2.46,2.24,3.66,4.49,3.64c2.2-0.02,3.89-1.3,4.47-3.7
					C212.74,881.64,212.85,879.83,213.1,878.04z"/>
				<path d="M135.79,879.28c1.25,2.36,2.51,4.66,3.68,7c0.39,0.77,1.43,1.61,0.29,2.51c-0.9,0.71-3.23,0.11-3.8-0.96
					c-1.18-2.22-2.29-4.48-3.44-6.72c-0.22-0.43-0.37-1.06-0.71-1.21c-0.71-0.31-1.54-0.47-2.31-0.43
					c-0.21,0.01-0.52,0.95-0.54,1.47c-0.07,2.03-0.09,4.07-0.02,6.11c0.06,1.7-0.89,1.96-2.28,1.96c-1.34,0-2.16-0.28-2.14-1.88
					c0.05-5.87,0.03-11.74,0-17.61c-0.01-1.21,0.38-2,1.72-1.98c2.75,0.04,5.52-0.06,8.25,0.2c3.05,0.28,4.83,1.89,5.29,4.3
					c0.63,3.29-0.24,5.08-3.29,6.78C136.28,878.92,136.1,879.06,135.79,879.28z M128.92,873.65c0.06,3.88-0.58,3.47,3.59,3.44
					c2.33-0.02,3.39-1.17,3.4-3.46c0.01-2.23-0.93-3.23-3.22-3.43C128.93,869.88,128.93,869.88,128.92,873.65z"/>
				<path d="M328.68,879.25c1.32,2.47,2.6,4.76,3.78,7.11c0.37,0.74,1.48,1.6,0.16,2.45c-0.97,0.63-3.14,0.1-3.68-0.89
					c-1.22-2.27-2.35-4.58-3.55-6.86c-0.99-1.88-1.01-1.87-3.51-1.54c0,2.32,0.02,4.69-0.01,7.06c-0.02,2.19-0.34,2.41-2.54,2.4
					c-1.43,0-1.87-0.63-1.86-1.97c0.04-5.81,0.04-11.62,0-17.43c-0.01-1.42,0.48-2.12,1.98-2.07c2.69,0.1,5.39-0.01,8.07,0.24
					c3.09,0.29,4.81,1.92,5.25,4.54c0.53,3.08-0.41,4.93-3.27,6.46C329.29,878.88,329.09,879.01,328.68,879.25z M321.88,873.57
					c0.11,3.78-0.82,3.59,3.52,3.52c2.29-0.04,3.4-1.15,3.45-3.25c0.06-2.4-0.8-3.38-3.19-3.65
					C321.87,869.75,321.86,869.76,321.88,873.57z"/>
				<path d="M113.07,879.3c1.23,2.31,2.49,4.55,3.61,6.85c0.39,0.79,1.6,1.67,0.35,2.62c-1.04,0.78-3.24,0.12-3.88-1.09
					c-1.23-2.33-2.38-4.7-3.62-7.02c-0.26-0.49-0.66-1.07-1.14-1.25c-1.48-0.55-2.22,0.04-2.24,1.64c-0.02,2.1-0.04,4.19-0.01,6.29
					c0.03,1.76-1.18,1.6-2.35,1.65c-1.21,0.05-1.95-0.28-1.94-1.68c0.03-5.99,0.02-11.98,0.01-17.96c0-1.03,0.29-1.8,1.49-1.79
					c2.75,0.03,5.52-0.08,8.25,0.17c3.32,0.3,5,1.84,5.49,4.51c0.58,3.19-0.38,5.04-3.49,6.67
					C113.5,878.96,113.41,879.04,113.07,879.3z M106.14,873.47c0.05,4.04-0.55,3.65,3.41,3.63c2.46-0.01,3.55-1.04,3.6-3.23
					c0.06-2.6-0.77-3.49-3.47-3.68C106.14,869.93,106.14,869.93,106.14,873.47z"/>
				<path d="M271.98,839.24c0-4.55-0.01-9.11,0.01-13.66c0.01-2.12,0.26-2.33,2.41-2.36c0.18,0,0.36,0,0.54,0
					c2.9,0,3.07,0.16,3.07,3.02c0,8.63,0.03,17.25-0.03,25.88c-0.01,0.93-0.35,2.55-0.82,2.66c-1.45,0.33-3.04,0.19-4.54-0.02
					c-0.29-0.04-0.6-1.2-0.61-1.85C271.95,848.35,271.98,843.79,271.98,839.24z"/>
				<path d="M296.21,888.99c-1.39,0.22-2.14-0.53-2.62-2.05c-1.11-3.58-0.51-2.81-4.01-2.91c-0.24-0.01-0.48,0-0.72,0
					c-3.41,0-3.36,0.02-4.6,3.16c-0.27,0.68-0.92,1.5-1.55,1.69c-2.12,0.62-2.78-0.15-2.11-2.24c1.82-5.7,3.67-11.39,5.44-17.11
					c0.47-1.53,1.32-2.11,2.88-2.02c1.55,0.09,3.02-0.18,3.65,1.95c1.72,5.86,3.67,11.65,5.5,17.47
					C298.62,888.69,298.35,889,296.21,888.99z M289.22,872.74c-0.15,0-0.3-0.01-0.45-0.01c-0.83,2.81-1.66,5.62-2.55,8.62
					c1.93,0,3.62,0,5.56,0C290.89,878.36,290.06,875.55,289.22,872.74z"/>
				<path d="M80.75,878.4c0-2.94,0.03-5.87-0.01-8.81c-0.02-1.37,0.5-1.93,1.91-1.91c3.35,0.06,6.71,0.03,10.06,0.01
					c1.13-0.01,1.88,0.35,1.84,1.62c-0.04,1.19-0.79,1.46-1.83,1.44c-2.04-0.04-4.07,0-6.11-0.07c-1.15-0.04-1.61,0.37-1.58,1.55
					c0.13,5.01-0.71,4.21,4.06,4.29c1.08,0.02,2.19-0.13,3.22,0.09c0.49,0.1,1.19,0.87,1.18,1.33c-0.01,0.46-0.74,1.27-1.21,1.31
					c-1.84,0.16-3.71,0.13-5.56,0.06c-1.21-0.05-1.68,0.3-1.71,1.59c-0.12,4.89-0.17,4.89,4.72,4.86c1.26-0.01,2.52-0.02,3.77-0.05
					c1.11-0.03,1.45,0.65,1.48,1.6c0.03,0.98-0.33,1.66-1.42,1.66c-3.77,0.01-7.55,0-11.32,0.01c-1.21,0-1.51-0.72-1.5-1.76
					C80.75,884.27,80.74,881.34,80.75,878.4C80.74,878.4,80.75,878.4,80.75,878.4z"/>
				<path d="M340.26,878.25c0-2.88,0.04-5.75-0.01-8.63c-0.03-1.34,0.4-1.97,1.85-1.94c3.35,0.07,6.71,0.04,10.06,0.02
					c1.15-0.01,1.83,0.34,1.8,1.64c-0.03,1.25-0.78,1.45-1.8,1.43c-2.04-0.04-4.07-0.01-6.11-0.08c-1.07-0.04-1.53,0.33-1.51,1.43
					c0.08,5.33-0.61,4.29,4.13,4.4c1.02,0.02,2.08-0.16,3.04,0.09c0.55,0.14,0.92,0.96,1.37,1.47c-0.48,0.41-0.93,1.14-1.44,1.18
					c-1.85,0.15-3.71,0.12-5.57,0.04c-1.2-0.05-1.51,0.44-1.54,1.57c-0.14,4.91-0.17,4.91,4.69,4.87c1.2-0.01,2.4-0.04,3.59-0.06
					c1.16-0.02,1.58,0.6,1.56,1.69c-0.02,1.02-0.43,1.58-1.49,1.58c-3.71,0-7.43,0-11.14,0.01c-1.21,0-1.5-0.69-1.49-1.75
					C340.28,884.24,340.26,881.24,340.26,878.25z"/>
				<path d="M147.31,878.28c0-2.88,0.04-5.75-0.02-8.63c-0.03-1.35,0.4-1.99,1.84-1.97c3.41,0.05,6.83,0.04,10.25,0.02
					c1.13-0.01,1.65,0.45,1.62,1.61c-0.02,1.1-0.6,1.47-1.6,1.45c-2.1-0.03-4.19-0.01-6.29-0.07c-1.06-0.03-1.52,0.34-1.51,1.45
					c0.08,5.37-0.64,4.27,4.12,4.39c1.02,0.03,2.07-0.13,3.04,0.08c0.52,0.11,1.35,0.92,1.28,1.25c-0.12,0.56-0.81,1.36-1.32,1.41
					c-1.9,0.17-3.83,0.11-5.75,0.06c-1-0.03-1.4,0.34-1.38,1.35c0.16,6.29-1.04,4.93,4.83,5.08c1.08,0.03,2.16-0.02,3.23-0.06
					c1.17-0.04,1.77,0.39,1.77,1.67c0,1.3-0.64,1.65-1.79,1.64c-3.53-0.03-7.07-0.03-10.61-0.01c-1.2,0.01-1.74-0.48-1.72-1.72
					c0.04-3,0.01-5.99,0.01-8.99C147.32,878.28,147.31,878.28,147.31,878.28z"/>
				<path d="M178.59,884.12c2.12,0.74,4.05,1.68,6.09,2.07c2.08,0.4,3.17-0.5,3.48-2.19c0.33-1.8-0.56-3.19-2.48-3.79
					c-0.8-0.25-1.63-0.4-2.43-0.64c-4.17-1.23-6.19-5.5-4.32-9.43c0.48-1,1.43-2.04,2.42-2.48c2.81-1.25,5.73-1.08,8.51,0.28
					c1.28,0.63,1.3,1.99,0.2,4c-1.26-0.61-2.48-1.39-3.8-1.77c-2.12-0.61-3.74,0.19-4.14,1.74c-0.44,1.7,0.56,3.03,2.78,3.68
					c0.57,0.17,1.16,0.29,1.74,0.46c4.66,1.34,6.79,6.62,4.38,10.83c-1.31,2.29-4.5,3.35-8.01,2.62c-0.82-0.17-1.62-0.44-2.4-0.75
					C177.67,887.58,177.42,886.92,178.59,884.12z"/>
				<path d="M279.69,735.09c0.14-3.28,0.26-6.55,0.44-9.83c0.39-7,1.64-13.78,4.93-20.07c0.64-1.22,1.34-1.61,2.68-1.36
					c3.24,0.59,4.68,2.48,3.51,5.53c-2.34,6.08-4.94,12.06-7.49,18.05c-1.12,2.62-2.4,5.18-3.61,7.76
					C279.99,735.15,279.84,735.12,279.69,735.09z M283.76,719.32c0.23,0.09,0.46,0.19,0.69,0.28c1.37-2.76,2.87-5.46,4.06-8.3
					c0.7-1.67,0.53-3.46-1.04-5.11C284.33,710.25,284.01,714.78,283.76,719.32z"/>
				<path d="M264.56,787.44c0.57-2.96,0.92-5.69,1.64-8.32c1.91-6.93,3.94-13.83,6.01-20.72c0.86-2.85,0.96-2.82,3.08-3.75
					c-0.09,1.1-0.18,2.08-0.25,3.07c-0.48,6.59,0.24,13.07,1.99,19.41c0.51,1.84-0.07,2.67-2.05,3.3c-0.88-4.29-1.74-8.49-2.7-13.14
					c-0.34,0.82-0.6,1.3-0.73,1.8c-1.22,4.95-2.53,9.87-3.58,14.86C267.57,785.79,266.72,786.81,264.56,787.44z"/>
				<path d="M247.49,795.23c-0.27-1.88-0.45-3.78-0.84-5.64c-1.26-6.01-5.15-8.87-11.18-8.01c-4.62,0.66-9.17,1.79-13.79,2.45
					c-2.89,0.41-5.85,0.4-8.78,0.48c-1.91,0.05-1.6-1.52-1.9-2.94c0.65,0,1.15-0.03,1.65,0.01c5.9,0.46,11.73,0.25,17.41-1.71
					c1.46-0.5,3.04-0.69,4.53-1.14c6.18-1.84,12.61,2.33,14.44,8.45c0.5,1.66,0.81,3.38,1.04,5.1
					C250.39,794.71,250.15,794.92,247.49,795.23z"/>
				<path d="M67.05,879.76c0,2.4-0.06,4.8,0.02,7.19c0.05,1.61-0.67,2.09-2.17,2.06c-1.41-0.03-2.25-0.32-2.23-2.01
					c0.07-4.8-0.04-9.59,0.05-14.39c0.03-1.53-0.48-2.03-1.95-1.88c-1.13,0.12-2.28,0.07-3.41,0.1c-1,0.03-1.57-0.34-1.57-1.46
					c0-1.13,0.44-1.63,1.6-1.62c4.98,0.03,9.95,0.03,14.93,0.01c1.11-0.01,1.69,0.39,1.7,1.55c0.01,1.2-0.68,1.54-1.74,1.51
					c-1.26-0.04-2.52-0.01-3.77-0.08c-1.1-0.07-1.48,0.37-1.46,1.46c0.06,2.52,0.02,5.04,0.02,7.55
					C67.06,879.76,67.06,879.76,67.05,879.76z"/>
				<path d="M267.09,744.23c2.13,0.86,1.97,2.04,1.28,3.48c-5.54,11.58-9.55,23.65-11.72,36.32c-0.37,2.18-0.83,4.38-0.93,6.58
					c-0.09,2.04-1.28,2.42-3.12,2.68C254.42,775.97,259.89,759.93,267.09,744.23z"/>
				<path d="M224.48,878.28c0-2.88,0.03-5.75-0.01-8.63c-0.03-1.66,0.79-2.16,2.34-2.17c1.57-0.01,2.14,0.66,2.13,2.16
					c-0.03,4.73,0.05,9.47-0.04,14.2c-0.03,1.69,0.57,2.25,2.19,2.12c1.43-0.12,2.87-0.1,4.31-0.13c1.14-0.02,1.6,0.59,1.62,1.68
					c0.02,1.12-0.61,1.47-1.59,1.47c-3.06,0-6.11-0.02-9.17,0.01c-1.34,0.01-1.78-0.65-1.77-1.9c0.03-2.94,0.01-5.87,0.01-8.81
					C224.49,878.28,224.48,878.28,224.48,878.28z"/>
				<path d="M212.09,786.39c2.77-0.23,5.44-0.46,8.12-0.66c5.98-0.44,11.96-0.88,17.94-1.27c3.05-0.2,4.38,0.65,5.1,3.62
					c0.53,2.2,0.63,4.5,0.93,6.75c0.22,1.68-0.64,2.22-2.29,2.18c0-1.14,0.02-2.21,0-3.27c-0.1-5.23-2.03-7.11-7.25-6.67
					c-5.49,0.46-10.96,1.17-16.45,1.77c-1.13,0.12-2.27,0.23-3.39,0.39C212.28,789.55,212.11,789.41,212.09,786.39z"/>
				<path d="M316.36,653.18c-16.1-8.5-32.79-10.11-50.49-4.13c3.02-3.35,6.27-5.06,10.4-5.57c13.83-1.68,26.69,1.25,38.89,7.65
					c0.63,0.33,1.08,0.99,1.62,1.49C316.64,652.82,316.5,653,316.36,653.18z"/>
				<path d="M315.44,647.11c-12.63-5.87-25.64-9.09-39.62-5.76c0.81-1.5,2.96-3.1,4.39-3.25c11.84-1.21,23.17,0.72,34.05,5.49
					C315.48,644.12,315.69,644.8,315.44,647.11z"/>
				<path d="M279.6,776.86c-0.55-2.71-1.2-5.31-1.58-7.94c-1.24-8.4-0.67-16.72,1.42-24.94c0.26-1.03,0.38-2.29,1.95-2.02
					c0.96,0.17,1.67,1.95,1.25,3.13c-3.35,9.51-3.48,19.11-0.97,28.81C282.06,775.42,281.9,775.61,279.6,776.86z"/>
				<path d="M309.44,878.42c0,2.88-0.06,5.75,0.02,8.63c0.05,1.72-0.92,1.92-2.29,1.95c-1.44,0.04-2.05-0.45-2.03-1.96
					c0.06-5.75,0.05-11.5,0.01-17.26c-0.01-1.53,0.39-2.31,2.14-2.28c1.67,0.03,2.21,0.71,2.17,2.29
					C309.39,872.67,309.44,875.54,309.44,878.42z"/>
				<path d="M244.01,878.43c0-2.99,0.05-5.99-0.02-8.98c-0.04-1.56,0.73-1.94,2.1-1.93c1.34,0.01,2.19,0.36,2.18,1.91
					c-0.02,5.93-0.02,11.85,0.02,17.78c0.01,1.64-0.98,1.78-2.25,1.79c-1.25,0.01-2.08-0.23-2.04-1.76
					C244.07,884.29,244.02,881.36,244.01,878.43C244.02,878.43,244.02,878.43,244.01,878.43z"/>
				<path d="M213.42,792.66c8.13-0.11,16.05-0.88,24.18-3.36c0.34,2.83,0.72,5.46,0.9,8.1c0.02,0.33-0.98,0.73-1.83,1.32
					c0-2.09,0-3.71,0-5.64c-1.52,0.14-2.86,0.24-4.2,0.38c-5.53,0.61-11.07,1.22-16.6,1.86
					C213.88,795.55,214.12,793.75,213.42,792.66z"/>
				<path d="M314.3,640.03c-4.85-1.35-9.68-2.99-14.63-3.99c-4.95-1-10.03-1.37-15.07-2.02c0.9-1.07,1.92-2.11,3.77-2.02
					c8.58,0.4,16.81,2.32,24.72,5.63C314.39,638.16,314.43,638.33,314.3,640.03z"/>
				<path d="M249.29,782.92c-0.06-4.54-3.24-5.58-6.77-6.91c2.01-1.55,3.68-3.07,5.56-4.22c1.56-0.95,3.57-0.36,4.75,0.98
					c0.22,0.25,0.49,0.66,0.42,0.92C252.4,776.78,251.84,780.01,249.29,782.92z"/>
				<path d="M312.91,632.77c-7.31-1.43-14.52-2.84-21.75-4.25c0.78-1.03,1.79-1.91,3.43-1.6c5.45,1.02,10.9,2.05,16.35,3.05
					C312.72,630.3,312.98,631.48,312.91,632.77z"/>
				<path d="M311.49,627.46c-5.06-1.05-10.11-2.1-15.15-3.15c1.02-2.06,2.18-2.75,4.36-2.43c2.37,0.35,4.73,0.72,7.09,1.16
					C310.78,623.61,311.17,624.12,311.49,627.46z"/>
				<path d="M217.26,797.91c5.6-1.04,10.87-2.02,16.45-3.06c0,0.99,0.17,2.13-0.08,3.17c-0.1,0.42-1.09,0.83-1.71,0.89
					c-0.94,0.1-1.93-0.26-2.88-0.16c-3.07,0.33-6.12,1.35-9.21,0.16C219.06,798.62,218.29,798.32,217.26,797.91z"/>
				<path d="M282,760.06c2.66,1.18,3.53,3.27,3.91,5.62c0.21,1.3,0.21,2.63,0.42,3.93c0.25,1.56-0.4,2.49-2.26,3.3
					C283.36,768.51,282.68,764.28,282,760.06z"/>
				<path d="M268.06,743.65c-1.66-4.44,1.01-8.05,1.3-12.02C272.99,733.6,271.28,738.82,268.06,743.65z"/>
				<path d="M271.7,773.68c0.52,2.45,1.07,4.89,1.53,7.35c0.08,0.42-0.14,1.08-0.46,1.35c-0.84,0.73-1.82,1.3-2.74,1.94
					c-0.17-0.07-0.35-0.13-0.52-0.2c0.58-3.5,1.15-7,1.73-10.49C271.39,773.65,271.55,773.66,271.7,773.68z"/>
				<path d="M284.44,759.72c-2.16-2.52-1.58-6.45,1.21-8.27C286.02,754.36,286.29,757.13,284.44,759.72z"/>
				<path d="M308.54,619.81c-2.28-0.39-4.25-0.73-6.58-1.13c1.13-1.15,1.6-2.5,3.29-2.46C307.4,616.27,307.96,617.77,308.54,619.81z
					"/>
				<path d="M289.32,760.63c1.87,2.11,1.65,6.31,0,7.39C289.32,765.69,289.32,763.36,289.32,760.63z"/>
				<path class="st1" d="M266.47,677.33c-0.26,0.64-0.52,1.29-0.84,2.09c-1.74-1.85-1.81-3.02-0.36-4c0.4,0.54,0.8,1.09,1.2,1.65
					C266.46,677.16,266.46,677.24,266.47,677.33z"/>
				<path class="st1" d="M104.32,712.6c-1.69,1.39-2.86,0.43-3.35-1.04c-1.37-4.14-2.87-8.28-3.64-12.55
					c-1.75-9.68,0.46-18.96,3.78-28.01c3.91-10.67,9.08-20.64,16.87-29.06c1.47-1.59,3.28-2.88,4.93-4.31
					c0.18,0.14,0.35,0.29,0.53,0.43c-0.36,0.67-0.68,1.37-1.1,2.01c-3.94,6.09-8.05,12.08-11.8,18.29
					c-5.4,8.93-9.04,18.55-9.93,29.03c-0.51,6.11-0.25,12.22,1.23,18.24c0-0.84,0.04-1.67-0.01-2.5
					c-0.66-12.49,1.26-24.51,6.56-35.91c3.72-8,8.99-14.85,15.56-20.71c0.41-0.37,1.1-0.43,1.67-0.63c0.02,0.71,0.33,1.65,0,2.1
					c-1.6,2.16-3.38,4.19-5.11,6.26c-0.49,0.59-1.01,1.15-1.55,1.77c0.98,0.25,1.8,0.46,2.63,0.67c-0.37,0.79-0.57,1.76-1.16,2.3
					c-0.5,0.46-1.45,0.44-2.34,0.42c-3.94,5.56-6.92,11.74-8.7,18.46c-4.96,18.69-2.19,36.34,7.73,52.77
					c11.61,19.23,28.54,31.13,50.72,35.09c12.47,2.23,24.73,0.73,36.66-3.52c0.55-0.2,1.11-0.38,1.83-0.25
					c-0.52,0.26-1.02,0.57-1.56,0.78c-18.89,7.44-37.72,7.25-56.36-0.79c-18.27-7.88-32.38-20.75-43.36-37.18
					c-0.59-0.88-0.75-2.24-0.66-3.34C104.62,718.51,105.41,715.62,104.32,712.6z"/>
				<path class="st1" d="M129.39,636.03c1.2-3.79,3.85-6.26,7.24-8c4.81-2.47,10.07-3.43,15.34-4.3c5.31-0.88,10.63-1.71,15.96-2.57
					c-0.68-2.5-1.34-2.77-3.45-1.77c-1.25,0.59-2.6,0.99-3.91,1.47c-0.12-0.19-0.25-0.37-0.37-0.56c0.52-0.58,0.98-1.23,1.58-1.71
					c3.6-2.92,7.88-3.96,12.38-4.23c7.49-0.45,14.81,0.8,22.12,2.23c0.29,0.06,0.57,0.18,0.84,0.3c0.15,0.07,0.27,0.2,0.49,0.37
					c-0.71,1.72-2.09,1.98-3.66,1.72c-1.54-0.25-3.04-0.73-4.59-0.87c-1.25-0.11-2.53,0.13-3.79,0.21c0,0.17,0,0.34,0,0.51
					c3.86,0.92,7.73,1.77,11.57,2.77c11.62,3.05,22.77,7.21,32.25,14.87c2.82,2.28,5.33,4.93,7.98,7.41
					c-0.12,0.15-0.24,0.3-0.36,0.45c-0.17-0.09-0.37-0.14-0.5-0.27c-8.4-8.62-18.82-13.68-30.19-17.05
					c-12.27-3.64-24.84-4.69-37.55-3.91c-11.39,0.7-22.44,3.06-32.58,8.63C133.85,633.02,131.65,634.59,129.39,636.03z"/>
				<path class="st1" d="M257.27,734.36c0.09,0.8,0.18,1.08,0.13,1.33c-1.53,9.13-4.34,17.71-10.77,24.68
					c-7.02,7.62-15.97,10.37-26.17,9.98c0.36-0.24,0.7-0.51,1.08-0.71c5.08-2.69,10.16-5.37,15.23-8.05
					c6.61-3.5,11.36-8.69,14.26-15.59c1.19-2.82,2.4-5.63,3.74-8.37C255.31,736.57,256.24,735.69,257.27,734.36z"/>
				<path class="st1" d="M200.65,620.27c10.01-2.76,35.73,11.98,41.02,23.3c-5.84-5.37-11.99-10.31-18.89-14.27
					C215.92,625.38,208.65,622.46,200.65,620.27z"/>
				<path class="st1" d="M256.29,693.06c2.61,6.76-1.02,21.94-5.68,25.71c-0.06-0.09-0.2-0.19-0.18-0.26
					c1.3-6.44,2.56-12.88,3.95-19.3C254.83,697.12,255.64,695.11,256.29,693.06z"/>
				<path class="st1" d="M111.7,712.93c0.84,1.16,1.8,2.24,2.48,3.49c0.91,1.68,1.62,3.46,2.35,5.23c1.2,2.87,2.46,5.7,5.11,7.76
					c-1.22,0.99-2.36,0.83-3.33,0.06c-0.92-0.73-1.79-1.62-2.42-2.6c-2.53-3.93-3.98-8.27-4.68-12.87
					c-0.04-0.26-0.01-0.54-0.01-0.81C111.37,713.1,111.53,713.02,111.7,712.93z"/>
				<path class="st1" d="M237,653.09c-1.24-0.72-2.63-1.27-3.69-2.2c-3.1-2.73-6.08-5.6-9.09-8.43c-3.79-3.57-7.65-7.03-12.77-8.72
					c2.31-0.33,4.35,0.52,6.16,1.68c2.51,1.62,4.99,3.35,7.2,5.35c4.26,3.84,8.33,7.89,12.47,11.86
					C237.19,652.78,237.09,652.94,237,653.09z"/>
				<path class="st1" d="M264.44,712.85c-1.54-2.78,0.58-14.28,3.16-16.7C267.2,702.12,265.99,707.5,264.44,712.85z"/>
				<path class="st1" d="M252.77,721.38c-1.43,2.71-2.69,5.54-4.36,8.09c-0.62,0.94-2.21,1.24-3.77,2.03
					c1.54-4.65,4.29-7.75,7.67-10.36C252.46,721.22,252.61,721.3,252.77,721.38z"/>
				<path class="st1" d="M255.3,659.51c-0.69,0.59-1.06,1.07-1.54,1.27c-0.31,0.13-0.97-0.03-1.16-0.28
					c-0.83-1.16-1.58-2.39-2.27-3.64c-0.14-0.26-0.02-0.94,0.17-1.04c0.43-0.22,1.23-0.43,1.44-0.22
					C253.09,656.76,254.09,658.06,255.3,659.51z"/>
				<path class="st1" d="M258.8,684.71c-0.36-1.52-0.61-3.1,0.37-4.49c0.41-0.58,1.36-0.77,2.06-1.14c0.23,1.03,0.87,2.2,0.58,3.05
					c-0.39,1.15-1.5,2.05-2.31,3.06C259.27,685.03,259.03,684.87,258.8,684.71z"/>
				<path class="st1" d="M245.83,733.75c-1.33,2.6-2.94,4.53-6.18,4.51C240.97,735.75,242.61,733.91,245.83,733.75z"/>
				<path class="st1" d="M254.46,690.83c-0.94-4.13-0.82-4.92,0.89-6.08C256.78,687.28,256.6,688.66,254.46,690.83z"/>
				<path class="st1" d="M239.4,741.78c-1.41,2.13-3.22,3.16-5.69,3.13C235.58,742.05,236.56,741.49,239.4,741.78z"/>
				<path class="st1" d="M262.44,684.84c0.05,1.04,0.18,2.09,0.11,3.13c-0.03,0.45-0.43,1.21-0.73,1.25
					c-0.49,0.05-1.17-0.25-1.5-0.63c-0.31-0.36-0.52-1.17-0.31-1.54c0.48-0.86,1.22-1.56,1.86-2.33
					C262.07,684.76,262.25,684.8,262.44,684.84z"/>
				<path class="st1" d="M226.34,750.89c1.61-1.22,2.89-3.16,6.01-2.29c-2.2,1.07-3.98,1.94-5.76,2.81
					C226.51,751.23,226.42,751.06,226.34,750.89z"/>
				<path class="st1" d="M264.31,670.18c0.34,2.5,0.34,2.5-1.53,3.1c-0.06-1.07-0.11-2.04-0.16-3.01c0.57-0.01,1.15-0.03,1.72-0.04
					C264.34,670.22,264.31,670.18,264.31,670.18z"/>
				<path class="st1" d="M254.66,664.71c-1.24-1.85-1.15-2.17,0.8-3.07C256.74,663.35,256.68,663.64,254.66,664.71z"/>
				<path class="st1" d="M257.81,667.39c0,1.23,0,2.25,0,3.27c-0.47-0.39-1.06-0.69-1.38-1.18
					C255.75,668.44,256.1,667.73,257.81,667.39z"/>
				<path class="st1" d="M246.07,745.16c1.25-0.93,2.3-1.73,3.53-2.65C249.12,744.88,247.72,745.91,246.07,745.16z"/>
				<path class="st1" d="M253.53,681.64c0-0.98,0-1.97,0-2.95c1.05,0.99,1.51,1.98,0.63,3.01
					C253.95,681.68,253.74,681.66,253.53,681.64z"/>
				<path class="st1" d="M266.74,680.73c0.15,0.98,0.29,1.97,0.44,2.95c-0.19,0.03-0.39,0.05-0.58,0.08
					c-0.63-0.94-1.3-1.88-0.54-3.01C266.28,680.74,266.51,680.74,266.74,680.73z"/>
				<path class="st1" d="M168.51,839.12c0-3.54,0.04-7.07-0.02-10.61c-0.02-1.38,0.45-1.98,1.87-1.88c1.97,0.14,3.96,0.04,5.91,0.29
					c3.25,0.41,5.35,2.4,6.21,5.49c1.27,4.53,1.34,9.13,0.02,13.66c-0.99,3.43-3.59,5.35-7.18,5.51c-1.74,0.08-3.48-0.03-5.21,0.04
					c-1.29,0.06-1.64-0.52-1.63-1.71C168.54,846.31,168.51,842.71,168.51,839.12z"/>
				<path class="st1" d="M107.52,838.72c-0.51,2.92-0.75,5.94-1.59,8.78c-1.21,4.09-4.4,5.76-8.54,4.89
					c-3.02-0.64-4.48-2.85-5.23-5.6c-1.17-4.29-1.21-8.65-0.6-13.03c0.16-1.12,0.39-2.26,0.77-3.32c1.19-3.32,3.56-4.92,6.98-4.84
					c3.51,0.08,5.84,1.65,6.78,5.06C106.79,833.25,107.05,835.96,107.52,838.72z"/>
				<path class="st1" d="M295.07,838.66c0.48-2.72,0.74-5.55,1.52-8.22c0.99-3.37,3.5-4.92,6.94-4.84c3.47,0.09,5.86,1.74,6.8,5.08
					c1.55,5.49,1.51,11.05-0.07,16.52c-1.07,3.69-3.51,5.43-6.94,5.41c-3.46-0.02-5.83-1.76-6.82-5.52
					C295.78,844.39,295.54,841.57,295.07,838.66z"/>
				<path class="st1" d="M211.97,829.54c1.41,4.73,2.81,9.46,4.29,14.43c-3.03,0-5.89,0-9.01,0c1.45-4.94,2.84-9.71,4.24-14.47
					C211.65,829.51,211.81,829.52,211.97,829.54z"/>
				<path class="st1" d="M260.6,878.06c0-2.1,0.03-4.2-0.01-6.3c-0.02-1.13,0.38-1.68,1.57-1.61c0.78,0.05,1.56-0.05,2.34,0
					c3.02,0.21,4.84,1.7,5.21,4.72c0.27,2.18,0.3,4.43,0.06,6.61c-0.38,3.4-2.1,4.83-5.54,4.87c-4.27,0.05-3.55,0.4-3.63-3.43
					c-0.02-0.84,0-1.68,0-2.52c0-0.78,0-1.56,0-2.34C260.59,878.06,260.59,878.06,260.6,878.06z"/>
				<path class="st1" d="M213.1,878.04c-0.25,1.79-0.37,3.6-0.78,5.33c-0.58,2.4-2.27,3.68-4.47,3.7c-2.24,0.02-3.83-1.18-4.49-3.64
					c-0.91-3.41-0.97-6.88-0.1-10.3c0.65-2.57,2.17-3.68,4.62-3.66c2.34,0.02,3.87,1.14,4.48,3.61
					C212.78,874.68,212.87,876.36,213.1,878.04z"/>
				<path class="st1" d="M128.92,873.65c0-3.77,0-3.77,3.77-3.45c2.29,0.2,3.23,1.2,3.22,3.43c-0.01,2.28-1.07,3.44-3.4,3.46
					C128.35,877.12,128.98,877.53,128.92,873.65z"/>
				<path class="st1" d="M321.88,873.57c-0.02-3.8,0-3.81,3.78-3.38c2.39,0.27,3.25,1.25,3.19,3.65c-0.05,2.1-1.16,3.21-3.45,3.25
					C321.06,877.16,321.99,877.34,321.88,873.57z"/>
				<path class="st1" d="M106.14,873.47c0-3.54,0-3.54,3.54-3.28c2.7,0.2,3.53,1.08,3.47,3.68c-0.05,2.19-1.14,3.22-3.6,3.23
					C105.59,877.11,106.19,877.5,106.14,873.47z"/>
				<path class="st1" d="M289.22,872.74c0.83,2.81,1.67,5.62,2.56,8.61c-1.94,0-3.63,0-5.56,0c0.89-3,1.72-5.81,2.55-8.62
					C288.92,872.73,289.07,872.74,289.22,872.74z"/>
				<path class="st1" d="M283.76,719.32c0.25-4.55,0.57-9.07,3.7-13.13c1.57,1.65,1.74,3.45,1.04,5.11
					c-1.19,2.83-2.69,5.54-4.06,8.3C284.22,719.51,283.99,719.41,283.76,719.32z"/>
			</g>
		</g>
	</g>
</g>
<text transform="matrix(1 0 0 1 712 239)" class="st2 st3">t</text>
<rect x="687" y="204" class="st4" width="343" height="248"/>
<text transform="matrix(1 0 0 1 687 212.52)" class="st2 st3">50</text>
</svg>
