<?xml version="1.0" encoding="utf-8"?>
<!-- Generator: Adobe Illustrator 25.0.0, SVG Export Plug-In . SVG Version: 6.00 Build 0)  -->
<svg version="1.1" id="Calque_1" xmlns="http://www.w3.org/2000/svg" xmlns:xlink="http://www.w3.org/1999/xlink" x="0px" y="0px"
	 viewBox="0 0 1077.68 687.48" style="enable-background:new 0 0 1077.68 687.48;" xml:space="preserve">
<style type="text/css">
	.st0{clip-path:url(#SVGID_2_);}
	.st1{fill:#FFFFFF;}
	.st2{clip-path:url(#SVGID_4_);}
	.st3{fill:none;}
	.st4{clip-path:url(#SVGID_6_);}
	.st5{clip-path:url(#SVGID_8_);}
	.st6{clip-path:url(#SVGID_10_);}
	.st7{clip-path:url(#SVGID_12_);}
	.st8{fill:none;stroke:#000000;stroke-width:12;stroke-miterlimit:10;}
	.st9{fill:none;stroke:#000000;stroke-width:4;stroke-miterlimit:10;}
	.st10{clip-path:url(#SVGID_14_);}
	.st11{fill:none;stroke:#000000;stroke-width:3;stroke-miterlimit:10;}
	.st12{clip-path:url(#SVGID_16_);}
	.st13{font-family:'ComicSansMS';}
	.st14{font-size:116.9043px;}
</style>
<g>
	<defs>
		<rect id="SVGID_15_" x="562.58" y="260.07" width="212.63" height="212.63"/>
	</defs>
	<clipPath id="SVGID_2_">
		<use xlink:href="#SVGID_15_"  style="overflow:visible;"/>
	</clipPath>
	<g class="st0">
		<g>
			<g>
				<path class="st1" d="M562.58,472.69c0-70.88,0-141.75,0-212.63c70.88,0,141.75,0,212.63,0c0,70.88,0,141.75,0,212.63
					C704.33,472.69,633.46,472.69,562.58,472.69z M670.99,383.64c0.07,0.18,0.14,0.37,0.2,0.55c0.21,0.59,0.09,1.33,1.08,1.42
					c6.42,0.63,12.67,0.08,18.58-2.66c8.04-3.74,12.76-10.35,15.65-18.48c0.1-0.28,0.07-0.61,0.11-0.92
					c0.06-0.46,0.07-0.94,0.2-1.37c0.38-1.27,0.94-2.5,1.19-3.8c0.21-1.15-0.36-1.56-1.26-1.39c-1.2,2.22-0.77,4.69-1.69,6.94
					c-1.52,3.7-3.15,7.3-5.74,10.39c-5.45,6.51-12.67,9.2-20.92,9.53c-2.47,0.1-4.95-0.11-7.42-0.18c1.65-0.98,3.35-1.48,5.36-1.37
					c5.58,0.32,10.96-0.63,15.69-3.76c8.12-5.37,12.03-13.17,12.57-22.75c0.08-1.33,0.28-2.51,0.92-3.7
					c0.89-1.66,1.56-3.44,2.32-5.16c0.1-0.22,0.22-0.42,0.34-0.64c0.22,0.47,0.28,0.92,0.1,1.24c-1.16,2.14-1.29,4.42-1.09,6.77
					c0.02,0.27,0.18,0.52,0.3,0.86c1.48-1.89,2-4.06,1.55-6.1c-0.07-0.34-0.17-0.7-0.12-1.03c0.51-3.38,1.02-6.77,1.58-10.14
					c0.87-5.17,4.66-9.12,9.56-10.02c5.15-0.94,10.58,1.36,13.08,5.61c2.18,3.7,1.87,7.51,0.07,11.2c-1.65,3.39-3.56,6.66-5.34,9.99
					c-1.68,3.15-2.99,6.42-2.98,10.08c0,0.32-0.23,0.63-0.33,0.96c-0.53,1.67-1.17,3.31-1.53,5.02c-0.2,0.94,0.41,1.62,1.54,1.51
					c0.34-1.75,0.81-3.43,0.96-5.14c0.32-3.64,1.5-6.99,3.15-10.2c2.02-3.92,4.16-7.78,6.04-11.76c1.43-3.03,2.21-6.27,1.1-9.63
					c-1.73-5.25-5.34-8.53-10.8-9.39c-5.51-0.86-10.17,0.9-13.73,5.3c-0.27,0.33-0.54,0.67-0.92,1.14
					c-0.42-2.47-0.33-2.78,1.18-4.25c4.5-4.38,12.1-5.68,17.67-2.77c6.33,3.31,9.7,8.45,8.11,15.64c-0.75,3.42-2.16,6.73-3.51,9.99
					c-1.79,4.33-3.91,8.51-5.68,12.84c-1.22,2.98-1.77,6.13-1.09,9.37c0.09,0.42,0.28,0.81,0.43,1.21c0.12-0.02,0.24-0.03,0.36-0.05
					c0.05-0.39,0.11-0.78,0.14-1.17c0.13-1.68,0.09-3.39,0.41-5.04c0.91-4.62,3.23-8.68,5.41-12.78c2.08-3.93,4.32-7.8,5.44-12.15
					c1.71-6.65,0.28-12.48-5.1-16.93c-6.5-5.37-16.4-5.22-22.95,0.15c-0.31,0.26-0.65,0.49-1.02,0.77
					c-0.62-1.95-0.53-2.26,0.94-3.33c4.54-3.33,9.59-4.32,15.1-3.34c10.44,1.87,16.9,11.3,14.33,21.53
					c-1.11,4.4-2.97,8.62-4.66,12.85c-1.77,4.42-3.81,8.74-4.74,13.45c-0.08,0.42-0.07,0.85-0.1,1.28c0.12,0.03,0.24,0.06,0.36,0.1
					c0.16-0.31,0.4-0.6,0.48-0.92c1.02-4.46,3.05-8.5,5.16-12.52c0.73-1.39,1.64-2.77,1.96-4.26c1.16-5.26,2.12-10.56,3.11-15.86
					c0.52-2.77,0.38-5.35-1.35-7.86c-6.3-9.2-20.78-12.19-30.17-6.09c-0.31,0.2-0.65,0.36-1.09,0.61c-0.19-1.02-0.88-1.84,0.28-2.63
					c4.58-3.12,9.6-4.53,15.11-3.72c7.16,1.06,12.69,4.83,16.91,10.63c0.21,0.3,0.43,0.59,0.65,0.89c0.15-0.05,0.3-0.11,0.45-0.16
					c-0.17-0.91-0.03-2.06-0.54-2.7c-6.11-7.65-13.91-11.21-23.77-9.47c-3.14,0.56-6.02,1.8-8.74,3.43
					c-0.37,0.22-0.81,0.84-1.23,0.02c0-0.06,0-0.11,0-0.17c-0.2-0.71-0.54-1.4,0.32-1.98c3.19-2.16,6.63-3.61,10.52-3.75
					c8.7-0.3,15.88,3.14,22.07,9.01c0.35,0.33,0.69,0.68,1.15,1.13c0.42-1.96,0.12-3.34-1.3-4.62c-9.08-8.2-20.85-9.72-31.71-4
					c-0.58,0.31-1.17,0.59-1.81,0.91c-0.25-0.47-0.45-0.84-0.65-1.22c0,0,0.02,0.03,0.02,0.03c0.31-0.39,0.54-0.94,0.95-1.13
					c9.38-4.58,18.72-4.11,27.95,0.39c2.27,1.11,4.35,2.62,6.56,3.98c0.14-1.19,0.19-2.32-1.16-3.05c-2.69-1.46-5.24-3.26-8.05-4.41
					c-8.97-3.66-17.85-3.79-26.38,1.44c-0.61,0.37-1.22,0.75-1.83,1.12c-0.79-1.3-0.8-1.54-0.01-1.94c1.57-0.8,3.12-1.67,4.75-2.32
					c10.99-4.36,21.47-3.64,31.27,3.33c0.31,0.22,0.64,0.41,0.99,0.64c0.32-1.48,0.22-1.71-0.91-2.38
					c-5.45-3.22-11.34-5.09-17.63-5.55c-6.78-0.49-13.24,0.76-19.25,4.05c-0.25,0.14-0.85,0.06-1.02-0.14
					c-0.4-0.48-0.38-1.01,0.34-1.31c2.25-0.93,4.44-2.07,6.75-2.77c10.74-3.26,21.13-2.64,30.96,3.18c0.12,0.07,0.27,0.07,0.43,0.11
					c0.28-0.98-0.45-1.21-1-1.53c-5.47-3.14-11.33-5.11-17.65-5.49c-7.02-0.43-13.64,0.84-19.45,5.1c-1.19,0.87-1.22,0.84-1.84-0.44
					c-2.06-4.24-4.54-8.19-8.07-11.4c-0.1-0.09-0.14-0.23-0.21-0.34c0.06-0.07,0.13-0.14,0.19-0.22c0.79,0.61,1.61,1.17,2.35,1.83
					c0.76,0.68,1.44,1.45,2.15,2.18c-3.19-4.96-9.2-11.08-15.79-14.45c-0.94-0.48-1.81-1.45-3.06-0.67c-0.12,0.08-0.4,0-0.56-0.09
					c-0.54-0.31-1.24-0.54-1.52-1.02c-0.34-0.57-0.31-1.37-0.45-2.11c-0.27,0.11-0.61,0.33-0.98,0.37
					c-0.35,0.04-0.98-0.03-1.04-0.19c-0.31-1-0.89-0.64-1.48-0.39c-0.34,0.14-0.69,0.25-1.14,0.41c-0.13-1.56-1.09-1.97-2.28-2.09
					c-0.63-0.06-1.26-0.06-1.88-0.14c-0.58-0.07-1.25-0.05-1.7-0.35c-0.44-0.29-0.65-0.92-0.97-1.42c-3.82,1.35-7.31,1.27-9.06-0.4
					c1.98,0,3.79,0,5.59,0c-0.35-0.38-0.73-0.58-1.12-0.6c-2.4-0.13-4.8-0.34-7.19-0.29c-5.91,0.12-11.78,0.66-17.57,1.92
					c-5.6,1.22-11.05,2.84-16.04,5.76c-2.65,1.55-5.1,3.37-6.33,6.3c-0.51,1.21-1.25,1.94-2.39,2.41c-2.87,1.18-4.98,3.25-6.74,5.74
					c-2.97,4.21-4.58,9.03-6.05,13.9c-0.32,1.05-0.79,1.89-1.56,2.69c-0.77,0.8-1.39,1.82-1.84,2.85
					c-1.65,3.82-1.44,7.85-1.03,11.85c0.66,6.41,2.56,12.55,4.22,18.75c2.5,9.28,7.74,16.56,15.39,22.28
					c3.17,2.37,6.22,4.97,8.97,7.81c1.7,1.75,3.58,2.78,5.79,3.51c1.82,0.6,3.62,1.3,5.39,2.04c0.46,0.19,0.79,0.69,1.18,1.05
					c-0.07,0.09-0.14,0.19-0.22,0.28c-0.89-0.27-1.78-0.55-2.68-0.81c-0.41-0.12-0.84-0.26-1.26-0.26c-0.31,0-0.61,0.22-0.92,0.34
					c0.19,0.26,0.32,0.64,0.57,0.75c1.33,0.58,2.66,1.21,4.05,1.61c6.32,1.8,12.72,1.52,19.07,0.37c5.25-0.96,10.43-2.32,15.65-3.48
					c0.59-0.13,1.22-0.08,1.84-0.12c0.01,0.12,0.03,0.24,0.04,0.36c-3.45,1.23-6.89,2.47-10.34,3.7c0.04,0.12,0.07,0.24,0.11,0.36
					c0.33-0.03,0.68-0.03,0.99-0.11c2.17-0.57,4.33-1.15,6.5-1.74C669.34,384.11,670.16,383.87,670.99,383.64z M628.83,431.94
					c-0.11,0.02-0.21,0.04-0.32,0.05c-0.12-0.19-0.26-0.37-0.35-0.57c-1.97-4.34-3.93-8.67-5.9-13.01
					c-1.73-3.82-1.04-3.29-5.31-3.31c-0.08,0-0.16,0.01-0.24,0c-0.79-0.03-1.16,0.36-1.16,1.14c0,6.22-0.01,12.44,0.02,18.66
					c0,0.35,0.28,0.88,0.58,1.02c1.41,0.7,2.59-0.08,2.59-1.62c0-4.65,0-9.29,0.01-13.94c0-0.42,0.08-0.84,0.15-1.57
					c0.3,0.44,0.4,0.56,0.46,0.69c1.99,4.41,3.99,8.82,5.97,13.24c1.55,3.47,1.54,3.47,5.34,3.31c0.04,0,0.08,0,0.12,0
					c0.91,0.03,1.27-0.43,1.27-1.31c-0.01-6.14,0.01-12.28-0.03-18.43c0-0.38-0.32-0.96-0.64-1.1c-1.58-0.67-2.57,0.04-2.57,1.77
					c0,4.17,0.01,8.35,0.01,12.52C628.83,430.3,628.83,431.12,628.83,431.94z M762.84,431.87c-0.12,0.03-0.24,0.07-0.36,0.1
					c-0.19-0.37-0.39-0.72-0.56-1.1c-1.89-4.16-3.75-8.32-5.66-12.47c-1.78-3.88-0.95-3.26-5.43-3.3c-0.88-0.01-1.3,0.34-1.3,1.25
					c0.01,6.14-0.01,12.28,0.01,18.42c0,0.37,0.21,0.9,0.5,1.08c1.3,0.83,2.71,0.02,2.71-1.53c0.01-4.65,0-9.29,0-13.94
					c0-0.44,0.05-0.88,0.08-1.32c0.44,0.3,0.61,0.64,0.77,0.98c1.95,4.3,3.9,8.6,5.86,12.9c1.54,3.38,0.92,3.07,5.13,3.09
					c1.08,0.01,1.46-0.43,1.45-1.48c-0.04-2.68-0.02-5.35-0.02-8.03c0-3.35,0.02-6.69-0.03-10.04c-0.01-0.44-0.22-1.1-0.55-1.27
					c-1.39-0.74-2.55,0.02-2.55,1.59c0,4.65,0,9.29,0,13.94C762.9,431.12,762.86,431.49,762.84,431.87z M640.5,425.56
					c0,3.03,0.01,6.06-0.01,9.09c-0.01,0.91,0.28,1.4,1.29,1.38c2.68-0.04,5.35,0.04,8.03-0.03c3.9-0.1,6.63-2.32,7.57-6.07
					c0.72-2.88,0.72-5.76,0.02-8.65c-0.94-3.85-3.75-6.15-7.71-6.2c-2.56-0.03-5.12,0.03-7.68-0.03c-1.14-0.03-1.54,0.41-1.52,1.52
					C640.52,419.58,640.49,422.57,640.5,425.56z M608.15,425.62c-0.08-0.01-0.17-0.02-0.25-0.03c0-0.71,0.04-1.42-0.01-2.12
					c-0.37-5.44-2.91-8.49-7.84-9.02c-5.29-0.56-8.89,1.58-10.02,7.01c-0.57,2.77-0.53,5.55-0.01,8.32c0.75,4.01,2.92,6.2,6.91,6.84
					c0.96,0.15,1.97,0.12,2.94,0.07c3.7-0.2,6.38-2.22,7.37-5.75C607.74,429.22,607.86,427.39,608.15,425.62z M742.11,426.07
					c-0.2-1.69-0.28-3.15-0.55-4.57c-0.85-4.49-3.42-6.77-7.97-7.15c-5.07-0.42-8.51,2.07-9.54,6.97c-0.59,2.84-0.59,5.72-0.03,8.56
					c0.8,4.02,2.99,6.16,6.88,6.74c1,0.15,2.05,0.13,3.06,0.06c3.7-0.23,6.3-2.27,7.29-5.84
					C741.72,429.22,741.86,427.52,742.11,426.07z M672.98,415.1c-2.52,0-2.51,0-3.26,2.36c-0.76,2.4-1.53,4.79-2.3,7.19
					c-1.03,3.22-2.08,6.44-3.07,9.67c-0.14,0.47-0.22,1.21,0.04,1.51c0.65,0.75,2.94,0.08,3.28-0.89c0.34-0.96,0.66-1.94,0.94-2.92
					c0.2-0.67,0.58-0.94,1.29-0.93c1.89,0.03,3.78-0.03,5.66,0.05c0.38,0.02,0.91,0.42,1.07,0.78c0.43,0.97,0.58,2.06,1.06,2.99
					c0.25,0.49,0.9,0.86,1.45,1.08c0.44,0.18,1.01,0.03,1.52,0.04c0.99,0.02,1.27-0.46,0.99-1.35c-1.94-6.15-3.89-12.3-5.83-18.45
					c-0.24-0.76-0.7-1.2-1.55-1.14C673.85,415.12,673.41,415.1,672.98,415.1z M720.16,358.99c0.17-0.25,0.27-0.36,0.33-0.48
					c1.07-2.45,2.11-4.91,3.2-7.35c1.44-3.23,3.22-6.35,4.31-9.69c1.49-4.57,1.5-3.88-2.27-6.59c-4.1-2.94-7.52-1.84-9.01,3
					c-0.98,3.21-1.67,6.58-1.96,9.93c-0.7,8.19-2.48,16.09-5.53,23.71c-2.48,6.19-4.57,12.49-5.67,19.09
					c-0.17,1.03-0.31,2.07-0.49,3.25c1.29-0.32,2.06-0.7,2.37-2.06c1.04-4.52,2.16-9.03,3.47-13.47c1.07-3.66,2.47-7.22,3.7-10.84
					c2.19-6.46,3.23-13.11,3.5-19.93c0.14-3.57,0.48-7.17,2.28-10.4c1.24-2.22,3.35-3.1,5.43-2.34c2.45,0.9,3.63,2.96,3.11,5.51
					c-0.17,0.8-0.4,1.62-0.78,2.34c-1.22,2.34-2.57,4.6-3.76,6.96c-0.92,1.82-1.75,3.69-2.46,5.6
					C719.51,356.4,719.55,357.67,720.16,358.99z M570.41,425.53C570.41,425.53,570.42,425.53,570.41,425.53
					c0.01,2.99,0.04,5.98-0.01,8.97c-0.02,1.13,0.45,1.6,1.55,1.53c0.27-0.02,0.55-0.02,0.83,0c1.1,0.08,1.57-0.4,1.54-1.52
					c-0.06-2.12,0-4.25-0.06-6.37c-0.03-0.94,0.22-1.35,1.24-1.31c1.69,0.07,3.38,0,5.07,0.02c0.96,0.02,1.51-0.35,1.5-1.36
					c0-1.01-0.63-1.24-1.49-1.23c-1.69,0.01-3.38-0.03-5.07,0.02c-0.93,0.03-1.25-0.36-1.22-1.26c0.05-1.34,0.05-2.68,0-4.01
					c-0.03-0.89,0.34-1.17,1.19-1.15c2.16,0.05,4.33,0.03,6.49,0.07c0.96,0.02,1.35-0.39,1.33-1.34c-0.02-0.95-0.31-1.48-1.37-1.47
					c-3.34,0.03-6.69,0.03-10.03-0.01c-1.13-0.01-1.53,0.46-1.51,1.56C570.44,419.63,570.41,422.58,570.41,425.53z M694.25,426.74
					c0,2.28,0,4.56,0,6.84c0,2.42,0.1,2.52,2.54,2.44c0.12,0,0.28,0.04,0.35-0.02c0.39-0.35,0.9-0.66,1.11-1.1
					c0.2-0.43,0.09-1,0.09-1.51c-0.01-4.72-0.02-9.44-0.07-14.15c-0.01-0.89,0.2-1.28,1.19-1.2c1.41,0.11,2.83,0.04,4.24,0.09
					c1.01,0.04,1.42-0.4,1.42-1.4c0-0.97-0.23-1.59-1.37-1.58c-4.99,0.02-9.99,0.02-14.98,0c-1.12,0-1.43,0.63-1.4,1.59
					c0.03,0.96,0.49,1.43,1.49,1.38c1.37-0.06,2.75,0,4.13-0.08c0.97-0.06,1.32,0.26,1.3,1.26
					C694.21,421.78,694.25,424.26,694.25,426.74z M721.13,365.1c0.15,0.03,0.31,0.07,0.46,0.1c0.13-0.26,0.32-0.51,0.39-0.79
					c0.18-0.72,0.27-1.47,0.47-2.19c1.02-3.78,3.22-6.98,5.11-10.34c1.52-2.7,3.05-5.42,4.3-8.25c1.14-2.58,1.35-5.35,0.27-8.06
					c-1.5-3.76-4.46-5.6-8.37-5.93c-3.96-0.33-7.27,1.04-9.69,4.28c-2.22,2.99-2.72,6.47-2.79,10.07
					c-0.07,3.42-0.12,6.83-0.17,10.25c0,0.16,0.12,0.33,0.18,0.49c0.13,0.01,0.25,0.02,0.38,0.03c0.15-0.66,0.34-1.31,0.43-1.98
					c0.58-3.97,1.03-7.96,1.76-11.9c0.51-2.75,1.43-5.41,3.17-7.69c1.56-2.04,3.6-2.99,6.12-2.31c5.53,1.5,8.65,5.01,6.75,11.14
					c-0.34,1.09-0.68,2.19-1.17,3.21c-1.34,2.8-2.88,5.52-4.12,8.36c-1.26,2.87-2.31,5.83-3.33,8.8
					C721.02,363.22,721.18,364.2,721.13,365.1z M705.57,458.24C705.57,458.24,705.57,458.24,705.57,458.24
					c0.86,0.01,1.73,0.04,2.59,0c2.75-0.12,4.54-1.52,5.19-4.14c0.54-2.18,0.5-4.37-0.27-6.5c-0.67-1.86-2.02-3.05-3.98-3.25
					c-2.02-0.2-4.08-0.14-6.12-0.18c-0.72-0.01-1.08,0.35-1.08,1.09c0,3.97,0,7.94-0.01,11.91c0,0.74,0.34,1.08,1.07,1.07
					C703.84,458.23,704.71,458.24,705.57,458.24z M676.36,450.89c-0.18-0.99-0.28-2.26-0.66-3.44c-0.85-2.66-2.73-3.76-6-3.69
					c-2.75,0.06-4.58,1.41-5.32,4c-0.67,2.36-0.76,4.79,0.07,7.09c0.4,1.11,1.19,2.31,2.15,2.96c3.69,2.49,8.56,0.39,9.43-3.95
					C676.21,452.98,676.24,452.07,676.36,450.89z M622.82,451.88c0.21-0.14,0.32-0.24,0.46-0.31c2-1.12,2.57-2.29,2.16-4.45
					c-0.3-1.58-1.47-2.63-3.47-2.82c-1.79-0.17-3.61-0.1-5.41-0.13c-0.88-0.01-1.13,0.5-1.13,1.3c0.02,3.85,0.03,7.71,0,11.56
					c-0.01,1.05,0.53,1.24,1.41,1.23c0.91,0,1.53-0.17,1.49-1.29c-0.05-1.33-0.03-2.67,0.01-4.01c0.01-0.34,0.21-0.96,0.35-0.96
					c0.5-0.03,1.05,0.08,1.52,0.29c0.23,0.1,0.33,0.52,0.47,0.79c0.75,1.47,1.48,2.95,2.26,4.41c0.38,0.7,1.9,1.1,2.49,0.63
					c0.75-0.59,0.07-1.14-0.19-1.65C624.46,454.93,623.64,453.42,622.82,451.88z M749.4,451.86c0.27-0.16,0.4-0.24,0.53-0.32
					c1.88-1.01,2.49-2.22,2.15-4.24c-0.29-1.72-1.42-2.79-3.45-2.98c-1.75-0.16-3.53-0.09-5.29-0.15c-0.98-0.04-1.31,0.42-1.3,1.36
					c0.02,3.81,0.02,7.62,0,11.44c-0.01,0.88,0.29,1.29,1.22,1.29c1.44,0,1.65-0.14,1.67-1.58c0.01-1.56,0-3.11,0-4.63
					c1.64-0.22,1.65-0.23,2.3,1.01c0.79,1.49,1.53,3.01,2.33,4.5c0.35,0.65,1.77,1,2.41,0.59c0.86-0.56,0.14-1.12-0.11-1.61
					C751.11,454.98,750.27,453.48,749.4,451.86z M607.91,451.89c0.23-0.17,0.28-0.22,0.35-0.26c2.04-1.07,2.67-2.28,2.29-4.38
					c-0.32-1.75-1.42-2.76-3.6-2.96c-1.79-0.16-3.61-0.09-5.41-0.11c-0.79-0.01-0.98,0.5-0.98,1.17c0,3.93,0.01,7.86-0.01,11.79
					c0,0.92,0.48,1.14,1.27,1.1c0.76-0.03,1.56,0.07,1.54-1.08c-0.02-1.38-0.01-2.75,0.01-4.13c0.01-1.06,0.5-1.44,1.47-1.08
					c0.31,0.11,0.57,0.5,0.75,0.82c0.81,1.53,1.57,3.08,2.38,4.61c0.42,0.79,1.87,1.23,2.55,0.71c0.82-0.62,0.02-1.2-0.23-1.72
					C609.54,454.87,608.71,453.4,607.91,451.89z M712.19,425.6c0,2.99-0.02,5.98,0.02,8.96c0,0.43,0.21,1.19,0.4,1.22
					c0.98,0.14,2.03,0.23,2.98,0.01c0.3-0.07,0.53-1.13,0.54-1.74c0.04-5.66,0.02-11.32,0.02-16.98c0-1.88-0.11-1.98-2.01-1.98
					c-0.12,0-0.24,0-0.35,0c-1.41,0.02-1.58,0.16-1.58,1.55C712.19,419.63,712.2,422.61,712.19,425.6z M728.1,458.25
					c1.41,0.01,1.58-0.2,1.22-1.36c-1.2-3.82-2.48-7.62-3.61-11.46c-0.41-1.4-1.37-1.22-2.39-1.28c-1.03-0.06-1.58,0.33-1.89,1.33
					c-1.16,3.75-2.38,7.49-3.57,11.23c-0.44,1.37-0.01,1.87,1.39,1.47c0.42-0.12,0.85-0.66,1.02-1.11c0.81-2.06,0.78-2.07,3.02-2.07
					c0.16,0,0.31,0,0.47,0c2.3,0.07,1.9-0.44,2.63,1.91C726.69,457.9,727.18,458.39,728.1,458.25z M586.7,451.3
					C586.7,451.3,586.69,451.3,586.7,451.3c0,1.93,0,3.85-0.01,5.78c0,0.68,0.19,1.16,0.99,1.16c2.48,0,4.95,0,7.43,0
					c0.71,0,0.95-0.45,0.93-1.09c-0.02-0.63-0.24-1.07-0.97-1.05c-0.83,0.02-1.65,0.03-2.48,0.03c-3.21,0.02-3.18,0.02-3.1-3.19
					c0.02-0.85,0.33-1.08,1.12-1.05c1.22,0.05,2.44,0.07,3.65-0.04c0.31-0.03,0.79-0.55,0.79-0.86c0-0.3-0.45-0.81-0.77-0.87
					c-0.68-0.14-1.41-0.05-2.11-0.06c-3.13-0.06-2.59,0.47-2.67-2.82c-0.02-0.77,0.28-1.04,1.04-1.02c1.33,0.05,2.67,0.02,4.01,0.05
					c0.68,0.01,1.18-0.16,1.2-0.94c0.03-0.84-0.46-1.07-1.21-1.07c-2.2,0.01-4.4,0.03-6.6,0c-0.92-0.02-1.27,0.35-1.25,1.25
					C586.72,447.45,586.7,449.38,586.7,451.3z M757.01,451.2c0,1.97,0.01,3.93-0.01,5.9c-0.01,0.69,0.18,1.15,0.98,1.15
					c2.44-0.01,4.88-0.01,7.31-0.01c0.7,0,0.97-0.37,0.98-1.04c0.01-0.72-0.26-1.13-1.02-1.11c-0.79,0.02-1.57,0.03-2.36,0.04
					c-3.19,0.03-3.17,0.03-3.08-3.2c0.02-0.74,0.22-1.06,1.01-1.03c1.22,0.05,2.44,0.07,3.65-0.03c0.33-0.03,0.63-0.51,0.95-0.78
					c-0.3-0.34-0.54-0.87-0.9-0.96c-0.63-0.16-1.33-0.04-1.99-0.06c-3.11-0.07-2.66,0.61-2.71-2.89c-0.01-0.72,0.29-0.97,0.99-0.94
					c1.34,0.05,2.67,0.02,4.01,0.05c0.67,0.01,1.16-0.11,1.18-0.94c0.02-0.85-0.43-1.08-1.18-1.08c-2.2,0.01-4.4,0.03-6.6-0.01
					c-0.95-0.02-1.23,0.39-1.21,1.28C757.03,447.43,757.01,449.31,757.01,451.2z M630.38,451.22
					C630.38,451.22,630.38,451.22,630.38,451.22c0.01,1.97,0.03,3.93,0,5.9c-0.01,0.82,0.34,1.13,1.13,1.13
					c2.32-0.01,4.64-0.01,6.96,0.01c0.75,0.01,1.18-0.22,1.18-1.08c0-0.84-0.39-1.12-1.16-1.1c-0.71,0.03-1.42,0.06-2.12,0.04
					c-3.85-0.1-3.07,0.8-3.17-3.33c-0.02-0.66,0.25-0.9,0.9-0.89c1.26,0.03,2.52,0.07,3.77-0.04c0.33-0.03,0.78-0.56,0.86-0.92
					c0.05-0.22-0.49-0.74-0.84-0.82c-0.64-0.14-1.33-0.04-2-0.05c-3.13-0.08-2.65,0.64-2.7-2.88c-0.01-0.73,0.29-0.97,0.99-0.95
					c1.38,0.04,2.75,0.03,4.13,0.05c0.66,0.01,1.04-0.23,1.05-0.95c0.02-0.76-0.32-1.06-1.06-1.05c-2.24,0.01-4.48,0.02-6.72-0.01
					c-0.94-0.01-1.22,0.41-1.21,1.29C630.41,447.44,630.38,449.33,630.38,451.22z M650.91,455.05c-0.77,1.84-0.6,2.27,1.31,3.04
					c0.51,0.2,1.04,0.38,1.57,0.49c2.3,0.48,4.4-0.22,5.26-1.72c1.58-2.76,0.19-6.22-2.87-7.11c-0.38-0.11-0.76-0.19-1.14-0.3
					c-1.46-0.43-2.11-1.3-1.82-2.42c0.27-1.02,1.33-1.54,2.72-1.14c0.87,0.25,1.67,0.77,2.5,1.16c0.72-1.32,0.71-2.21-0.13-2.62
					c-1.82-0.89-3.74-1.01-5.59-0.19c-0.65,0.29-1.27,0.97-1.59,1.63c-1.23,2.58,0.1,5.38,2.84,6.19c0.53,0.16,1.07,0.25,1.6,0.42
					c1.26,0.39,1.85,1.3,1.63,2.49c-0.2,1.11-0.92,1.7-2.29,1.44C653.57,456.15,652.3,455.54,650.91,455.05z M717.25,357.25
					c0.1,0.02,0.2,0.04,0.3,0.06c0.79-1.7,1.63-3.37,2.37-5.1c1.68-3.93,3.38-7.86,4.92-11.85c0.77-2.01-0.18-3.25-2.3-3.63
					c-0.88-0.16-1.34,0.1-1.76,0.9c-2.16,4.13-2.98,8.58-3.23,13.17C717.42,352.95,717.35,355.1,717.25,357.25z M707.32,391.61
					c1.42-0.41,1.98-1.08,2.24-2.29c0.69-3.27,1.55-6.5,2.35-9.75c0.08-0.33,0.26-0.64,0.48-1.18c0.63,3.05,1.19,5.81,1.77,8.62
					c1.3-0.41,1.68-0.96,1.35-2.16c-1.15-4.16-1.62-8.42-1.31-12.74c0.05-0.65,0.11-1.29,0.17-2.02c-1.39,0.61-1.46,0.59-2.02,2.46
					c-1.36,4.52-2.69,9.05-3.94,13.6C707.93,387.87,707.7,389.67,707.32,391.61z M696.12,396.72c1.75-0.2,1.9-0.34,1.69-1.94
					c-0.15-1.13-0.36-2.26-0.68-3.34c-1.2-4.01-5.43-6.75-9.48-5.54c-0.98,0.29-2.01,0.41-2.97,0.75
					c-3.72,1.28-7.55,1.42-11.42,1.12c-0.33-0.03-0.66,0-1.08,0c0.2,0.93-0.01,1.96,1.25,1.93c1.92-0.05,3.86-0.04,5.76-0.31
					c3.03-0.43,6.02-1.17,9.05-1.61c3.96-0.57,6.52,1.31,7.34,5.26C695.83,394.24,695.94,395.49,696.12,396.72z M577.71,452.19
					C577.71,452.19,577.72,452.19,577.71,452.19c0.01-1.65,0.03-3.31,0-4.96c-0.02-0.71,0.24-1,0.96-0.96
					c0.82,0.05,1.65,0.03,2.48,0.06c0.69,0.02,1.14-0.2,1.14-0.99c0-0.76-0.38-1.02-1.11-1.01c-3.27,0.02-6.53,0.02-9.8,0
					c-0.77,0-1.05,0.32-1.05,1.06c0,0.73,0.38,0.97,1.03,0.96c0.75-0.02,1.5,0.01,2.24-0.07c0.97-0.1,1.3,0.23,1.28,1.23
					c-0.06,3.15,0.01,6.3-0.03,9.44c-0.02,1.11,0.53,1.3,1.46,1.32c0.98,0.02,1.46-0.3,1.42-1.35
					C577.67,455.34,577.71,453.77,577.71,452.19z M708.99,363.25c-4.72,10.3-8.32,20.83-9.52,32.2c1.21-0.17,1.99-0.42,2.05-1.76
					c0.07-1.45,0.37-2.88,0.61-4.32c1.42-8.31,4.05-16.24,7.69-23.83C710.28,364.59,710.38,363.81,708.99,363.25z M681.02,451.22
					C681.03,451.22,681.03,451.22,681.02,451.22c0.01,1.93,0.02,3.85,0,5.78c-0.01,0.82,0.28,1.25,1.16,1.24
					c2.01-0.02,4.01,0,6.02,0c0.64,0,1.05-0.23,1.04-0.96c-0.01-0.72-0.31-1.12-1.06-1.1c-0.94,0.02-1.89,0.01-2.83,0.09
					c-1.06,0.09-1.46-0.28-1.44-1.39c0.06-3.11,0.01-6.21,0.03-9.32c0.01-0.98-0.36-1.42-1.4-1.42c-1.02,0.01-1.55,0.33-1.54,1.42
					C681.04,447.45,681.02,449.34,681.02,451.22z M672.89,390.91c0.02,1.98,0.12,2.08,1.78,1.85c0.74-0.1,1.48-0.17,2.23-0.25
					c3.6-0.39,7.19-0.86,10.79-1.16c3.42-0.29,4.69,0.95,4.76,4.38c0.01,0.7,0,1.4,0,2.14c1.08,0.03,1.65-0.33,1.5-1.43
					c-0.2-1.48-0.26-2.99-0.61-4.43c-0.47-1.95-1.34-2.5-3.35-2.37c-3.93,0.26-7.85,0.55-11.77,0.84
					C676.46,390.61,674.71,390.77,672.89,390.91z M741.32,303.5c0.09-0.12,0.18-0.24,0.28-0.36c-0.35-0.33-0.65-0.76-1.06-0.98
					c-8.01-4.2-16.45-6.13-25.52-5.02c-2.71,0.33-4.84,1.46-6.83,3.65C719.8,296.86,730.75,297.92,741.32,303.5z M740.72,299.51
					c0.16-1.51,0.03-1.96-0.77-2.31c-7.14-3.13-14.57-4.4-22.34-3.6c-0.94,0.1-2.35,1.15-2.88,2.13
					C723.89,293.54,732.43,295.66,740.72,299.51z M717.19,384.66c1.51-0.82,1.61-0.95,1.36-1.93c-1.65-6.37-1.57-12.67,0.63-18.91
					c0.27-0.78-0.19-1.94-0.82-2.05c-1.03-0.18-1.1,0.65-1.28,1.32c-1.37,5.39-1.75,10.85-0.93,16.37
					C716.41,381.18,716.83,382.88,717.19,384.66z M736.78,451.31c0-1.89-0.03-3.78,0.01-5.66c0.02-1.04-0.33-1.48-1.42-1.5
					c-1.14-0.02-1.41,0.49-1.4,1.49c0.03,3.77,0.03,7.55-0.01,11.33c-0.01,1,0.39,1.31,1.33,1.29c0.9-0.02,1.53-0.15,1.5-1.28
					C736.74,455.09,736.78,453.2,736.78,451.31z M693.84,451.32C693.84,451.32,693.85,451.32,693.84,451.32
					c0,1.92,0.03,3.85-0.01,5.77c-0.02,1,0.52,1.16,1.34,1.16c0.83-0.01,1.48-0.09,1.48-1.17c-0.02-3.89-0.03-7.78-0.01-11.67
					c0-1.02-0.55-1.25-1.43-1.25c-0.9-0.01-1.4,0.25-1.38,1.27C693.88,447.39,693.84,449.35,693.84,451.32z M673.77,395.03
					c0.46,0.72,0.3,1.9,1.61,1.75c3.63-0.42,7.26-0.82,10.89-1.22c0.88-0.1,1.76-0.16,2.75-0.25c0,1.26,0,2.33,0,3.7
					c0.56-0.39,1.22-0.65,1.2-0.86c-0.12-1.73-0.37-3.46-0.59-5.32C684.3,394.45,679.1,394.96,673.77,395.03z M739.97,294.87
					c0.08-1.12,0.06-1.23-0.79-1.58c-5.19-2.17-10.59-3.43-16.22-3.69c-1.22-0.06-1.89,0.63-2.48,1.33
					c3.31,0.43,6.64,0.67,9.89,1.33C733.62,292.91,736.78,293.98,739.97,294.87z M697.3,388.64c1.68-1.91,2.05-4.03,2.6-6.06
					c0.05-0.17-0.13-0.44-0.27-0.6c-0.78-0.88-2.1-1.27-3.12-0.65c-1.24,0.75-2.33,1.75-3.65,2.77
					C695.17,384.98,697.27,385.66,697.3,388.64z M739.06,290.1c0.04-0.85-0.12-1.62-1.29-1.84c-3.58-0.66-7.16-1.33-10.73-2
					c-1.08-0.2-1.74,0.38-2.25,1.05C729.53,288.24,734.26,289.17,739.06,290.1z M738.13,286.62c-0.21-2.2-0.47-2.53-2.43-2.9
					c-1.54-0.29-3.1-0.53-4.65-0.76c-1.43-0.21-2.19,0.24-2.86,1.59C731.49,285.24,734.81,285.93,738.13,286.62z M676.28,398.48
					c0.68,0.27,1.18,0.46,1.68,0.66c2.03,0.78,4.03,0.11,6.05-0.1c0.62-0.07,1.27,0.17,1.89,0.1c0.41-0.04,1.06-0.31,1.12-0.58
					c0.16-0.68,0.05-1.43,0.05-2.08C683.41,397.16,679.96,397.8,676.28,398.48z M718.77,373.64c0.45,2.77,0.9,5.55,1.36,8.43
					c1.21-0.53,1.65-1.14,1.48-2.16c-0.14-0.85-0.14-1.73-0.28-2.58C721.08,375.78,720.51,374.41,718.77,373.64z M709.62,362.87
					c2.11-3.17,3.24-6.59,0.86-7.89C710.28,357.58,708.53,359.95,709.62,362.87z M712.01,382.58c-0.1-0.01-0.2-0.02-0.3-0.04
					c-0.38,2.3-0.76,4.59-1.13,6.89c0.11,0.04,0.23,0.09,0.34,0.13c0.6-0.42,1.24-0.8,1.8-1.27c0.21-0.18,0.35-0.61,0.3-0.89
					C712.72,385.79,712.35,384.18,712.01,382.58z M720.37,373.42c1.21-1.7,1.03-3.52,0.8-5.43
					C719.34,369.19,718.95,371.77,720.37,373.42z M736.19,281.6c-0.38-1.34-0.75-2.32-2.16-2.36c-1.11-0.03-1.42,0.86-2.16,1.62
					C733.39,281.12,734.69,281.34,736.19,281.6z M723.57,374.01c0,1.79,0,3.32,0,4.85C724.66,378.15,724.8,375.4,723.57,374.01z"/>
				<path d="M707.16,314.65c0.2,0.37,0.4,0.75,0.65,1.22c0.64-0.32,1.23-0.61,1.81-0.91c10.86-5.72,22.64-4.2,31.71,4
					c1.41,1.28,1.72,2.66,1.3,4.62c-0.46-0.45-0.8-0.79-1.15-1.13c-6.18-5.87-13.37-9.31-22.07-9.01
					c-3.89,0.13-7.33,1.58-10.52,3.75c-0.86,0.58-0.53,1.27-0.32,1.98c-0.26-0.36-0.53-0.73-0.79-1.08
					c-0.95,0.64-0.91,1.41,0.24,2.62c0.21-0.52,0.38-0.95,0.55-1.37c0.42,0.82,0.87,0.2,1.23-0.02c2.72-1.64,5.61-2.88,8.74-3.43
					c9.87-1.75,17.67,1.81,23.77,9.47c0.51,0.64,0.38,1.79,0.54,2.7c-0.15,0.05-0.3,0.11-0.45,0.16c-0.22-0.3-0.43-0.59-0.65-0.89
					c-4.22-5.8-9.75-9.57-16.91-10.63c-5.5-0.82-10.52,0.6-15.11,3.72c-1.15,0.78-0.47,1.61-0.28,2.63c0.44-0.24,0.78-0.4,1.09-0.61
					c9.4-6.1,23.87-3.11,30.17,6.09c1.72,2.52,1.86,5.1,1.35,7.86c-0.99,5.29-1.95,10.6-3.11,15.86c-0.33,1.49-1.23,2.88-1.96,4.26
					c-2.11,4.01-4.14,8.05-5.16,12.52c-0.07,0.33-0.31,0.62-0.48,0.92c-0.12-0.03-0.24-0.06-0.36-0.1c0.03-0.43,0.02-0.86,0.1-1.28
					c0.93-4.71,2.97-9.03,4.74-13.45c1.69-4.23,3.55-8.45,4.66-12.85c2.57-10.23-3.89-19.66-14.33-21.53
					c-5.51-0.99-10.56,0-15.1,3.34c-1.47,1.08-1.56,1.38-0.94,3.33c0.37-0.28,0.7-0.51,1.02-0.77c6.55-5.37,16.45-5.52,22.95-0.15
					c5.38,4.45,6.82,10.27,5.1,16.93c-1.12,4.35-3.35,8.22-5.44,12.15c-2.18,4.1-4.5,8.16-5.41,12.78
					c-0.32,1.64-0.28,3.36-0.41,5.04c-0.03,0.39-0.1,0.78-0.14,1.17c-0.12,0.02-0.24,0.03-0.36,0.05c-0.15-0.4-0.34-0.8-0.43-1.21
					c-0.67-3.24-0.13-6.4,1.09-9.37c1.78-4.33,3.9-8.52,5.68-12.84c1.35-3.26,2.75-6.57,3.51-9.99c1.58-7.2-1.78-12.33-8.11-15.64
					c-5.56-2.91-13.17-1.61-17.67,2.77c-1.51,1.47-1.6,1.78-1.18,4.25c0.38-0.47,0.65-0.81,0.92-1.14c3.56-4.39,8.23-6.16,13.73-5.3
					c5.46,0.86,9.06,4.14,10.8,9.39c1.11,3.35,0.33,6.6-1.1,9.63c-1.88,3.98-4.02,7.84-6.04,11.76c-1.65,3.21-2.83,6.56-3.15,10.2
					c-0.15,1.71-0.62,3.39-0.96,5.14c-1.13,0.11-1.74-0.58-1.54-1.51c0.36-1.7,1-3.35,1.53-5.02c0.1-0.32,0.33-0.64,0.33-0.96
					c-0.01-3.66,1.3-6.93,2.98-10.08c1.78-3.33,3.69-6.6,5.34-9.99c1.8-3.69,2.11-7.49-0.07-11.2c-2.5-4.25-7.93-6.55-13.08-5.61
					c-4.9,0.9-8.7,4.85-9.56,10.02c-0.56,3.37-1.07,6.76-1.58,10.14c-0.05,0.33,0.05,0.7,0.12,1.03c0.45,2.03-0.08,4.21-1.55,6.1
					c-0.12-0.34-0.28-0.6-0.3-0.86c-0.2-2.34-0.06-4.63,1.09-6.77c0.18-0.32,0.12-0.78-0.1-1.24c-0.11,0.21-0.24,0.42-0.34,0.64
					c-0.77,1.72-1.44,3.5-2.32,5.16c-0.64,1.19-0.84,2.38-0.92,3.7c-0.54,9.58-4.45,17.38-12.57,22.75
					c-4.73,3.13-10.11,4.08-15.69,3.76c-2.01-0.11-3.71,0.39-5.36,1.37l0.02-0.02c-0.83,0.23-1.65,0.46-2.48,0.69
					c-2.16,0.58-4.33,1.17-6.5,1.74c-0.32,0.08-0.66,0.08-0.99,0.11c-0.04-0.12-0.07-0.24-0.11-0.36c3.45-1.23,6.89-2.47,10.34-3.7
					c-0.01-0.12-0.03-0.24-0.04-0.36c-0.61,0.04-1.25-0.01-1.84,0.12c-5.22,1.16-10.4,2.53-15.65,3.48
					c-6.35,1.16-12.76,1.43-19.07-0.37c-1.39-0.4-2.72-1.03-4.05-1.61c-0.25-0.11-0.39-0.5-0.57-0.75c0.31-0.12,0.61-0.34,0.92-0.34
					c0.42,0,0.85,0.14,1.26,0.26c0.9,0.26,1.79,0.54,2.68,0.81c0.07-0.09,0.14-0.19,0.22-0.28c-0.39-0.36-0.72-0.86-1.18-1.05
					c-1.77-0.74-3.57-1.44-5.39-2.04c-2.21-0.73-4.09-1.75-5.79-3.51c-2.75-2.84-5.8-5.44-8.97-7.81
					c-7.66-5.72-12.9-13.01-15.39-22.28c-1.67-6.2-3.56-12.34-4.22-18.75c-0.41-4-0.62-8.03,1.03-11.85
					c0.44-1.03,1.07-2.05,1.84-2.85c0.77-0.8,1.24-1.65,1.56-2.69c1.47-4.87,3.08-9.69,6.05-13.9c1.75-2.48,3.87-4.56,6.74-5.74
					c1.14-0.47,1.89-1.2,2.39-2.41c1.22-2.93,3.68-4.75,6.33-6.3c4.98-2.92,10.44-4.54,16.04-5.76c5.79-1.27,11.66-1.8,17.57-1.92
					c2.39-0.05,4.8,0.16,7.19,0.29c0.39,0.02,0.77,0.22,1.12,0.6c-1.8,0-3.6,0-5.59,0c1.75,1.67,5.24,1.74,9.06,0.4
					c0.32,0.5,0.54,1.13,0.97,1.42c0.45,0.29,1.12,0.28,1.7,0.35c0.62,0.07,1.26,0.07,1.88,0.14c1.19,0.12,2.16,0.53,2.28,2.09
					c0.45-0.16,0.8-0.27,1.14-0.41c0.59-0.24,1.17-0.61,1.48,0.39c0.05,0.16,0.69,0.23,1.04,0.19c0.37-0.04,0.72-0.26,0.98-0.37
					c0.14,0.75,0.11,1.54,0.45,2.11c0.28,0.48,0.99,0.71,1.52,1.02c0.16,0.09,0.44,0.17,0.56,0.09c1.25-0.78,2.12,0.19,3.06,0.67
					c6.59,3.37,12.59,9.49,15.79,14.45c-0.71-0.73-1.39-1.5-2.15-2.18c-0.74-0.66-1.56-1.22-2.35-1.83
					c-0.06,0.07-0.13,0.14-0.19,0.22c0.07,0.11,0.12,0.25,0.21,0.34c3.53,3.21,6,7.16,8.07,11.4c0.62,1.28,0.65,1.31,1.84,0.44
					c5.82-4.26,12.43-5.52,19.45-5.1c6.32,0.38,12.18,2.35,17.65,5.49c0.55,0.32,1.28,0.55,1,1.53c-0.16-0.04-0.31-0.05-0.43-0.11
					c-9.83-5.83-20.22-6.44-30.96-3.18c-2.32,0.7-4.5,1.84-6.75,2.77c-0.72,0.3-0.73,0.83-0.34,1.31c0.17,0.2,0.77,0.28,1.02,0.14
					c6.01-3.29,12.47-4.54,19.25-4.05c6.29,0.46,12.19,2.32,17.63,5.55c1.13,0.67,1.23,0.89,0.91,2.38
					c-0.35-0.22-0.68-0.42-0.99-0.64c-9.8-6.97-20.27-7.68-31.27-3.33c-1.63,0.65-3.18,1.52-4.75,2.32
					c-0.78,0.4-0.78,0.64,0.01,1.94c0.61-0.37,1.22-0.75,1.83-1.12c8.53-5.23,17.41-5.1,26.38-1.44c2.81,1.15,5.36,2.95,8.05,4.41
					c1.35,0.73,1.3,1.86,1.16,3.05c-2.21-1.36-4.29-2.87-6.56-3.98c-9.23-4.5-18.58-4.98-27.95-0.39c-0.4,0.2-0.64,0.75-0.95,1.13
					c-0.38,0.01-0.75,0.02-1.13,0.03c0.03,0.64,0.07,1.28,0.11,1.98C707.39,316.29,707.39,316.29,707.16,314.65z M602.17,342.49
					c0.72,1.99,0.2,3.88,0.04,5.79c-0.06,0.72,0.05,1.62,0.43,2.19c7.21,10.78,16.47,19.22,28.46,24.4
					c12.23,5.27,24.59,5.4,36.98,0.52c0.35-0.14,0.68-0.34,1.02-0.51c-0.47-0.08-0.84,0.04-1.2,0.16
					c-7.83,2.78-15.87,3.77-24.06,2.31c-14.55-2.6-25.67-10.41-33.28-23.03c-6.51-10.79-8.33-22.37-5.07-34.63
					c1.17-4.41,3.12-8.47,5.71-12.12c0.58,0.01,1.21,0.03,1.54-0.28c0.39-0.36,0.52-1,0.76-1.51c-0.54-0.14-1.09-0.28-1.73-0.44
					c0.35-0.4,0.69-0.77,1.02-1.16c1.13-1.36,2.3-2.69,3.35-4.11c0.22-0.3,0.01-0.91,0-1.38c-0.37,0.13-0.82,0.17-1.09,0.41
					c-4.31,3.84-7.77,8.34-10.21,13.59c-3.48,7.48-4.74,15.37-4.31,23.56c0.03,0.55,0,1.1,0,1.64c-0.97-3.95-1.14-7.96-0.81-11.97
					c0.58-6.88,2.97-13.19,6.51-19.05c2.46-4.07,5.16-8,7.75-12c0.27-0.42,0.48-0.88,0.72-1.32c-0.12-0.09-0.23-0.19-0.35-0.28
					c-1.08,0.94-2.27,1.78-3.24,2.83c-5.11,5.52-8.5,12.06-11.07,19.07c-2.18,5.94-3.63,12.03-2.48,18.38
					c0.51,2.8,1.49,5.52,2.39,8.23C600.29,342.77,601.06,343.4,602.17,342.49z M618.62,292.24c1.48-0.94,2.92-1.97,4.46-2.82
					c6.65-3.66,13.9-5.2,21.38-5.66c8.34-0.51,16.58,0.18,24.64,2.56c7.46,2.21,14.3,5.53,19.81,11.19
					c0.08,0.08,0.22,0.12,0.33,0.18c0.08-0.1,0.16-0.2,0.24-0.3c-1.74-1.63-3.39-3.37-5.24-4.86c-6.22-5.03-13.53-7.76-21.16-9.76
					c-2.52-0.66-5.06-1.22-7.59-1.82c0-0.11,0-0.22,0-0.33c0.83-0.05,1.67-0.21,2.49-0.14c1.01,0.09,2,0.41,3.01,0.57
					c1.03,0.17,1.94,0,2.4-1.13c-0.14-0.11-0.22-0.2-0.32-0.24c-0.18-0.08-0.36-0.16-0.55-0.2c-4.79-0.93-9.6-1.76-14.52-1.46
					c-2.95,0.18-5.76,0.86-8.12,2.78c-0.39,0.32-0.69,0.75-1.04,1.12c0.08,0.12,0.16,0.25,0.24,0.37c0.86-0.32,1.74-0.58,2.56-0.97
					c1.39-0.66,1.82-0.48,2.27,1.16c-3.5,0.56-6.99,1.11-10.47,1.69c-3.46,0.57-6.91,1.2-10.07,2.82
					C621.15,288.13,619.41,289.75,618.62,292.24z M702.54,356.77c-0.67,0.87-1.28,1.45-1.63,2.15c-0.88,1.8-1.68,3.64-2.46,5.49
					c-1.91,4.53-5.02,7.94-9.36,10.23c-3.33,1.76-6.67,3.52-10,5.28c-0.25,0.13-0.47,0.31-0.71,0.46
					c6.69,0.26,12.57-1.55,17.17-6.55c4.22-4.58,6.07-10.21,7.07-16.2C702.65,357.48,702.6,357.3,702.54,356.77z M665.38,281.9
					c5.25,1.44,10.02,3.35,14.52,5.93c4.52,2.6,8.56,5.84,12.39,9.36C688.84,289.77,671.95,280.09,665.38,281.9z M701.9,329.67
					c-0.42,1.34-0.96,2.67-1.25,4.04c-0.91,4.21-1.74,8.44-2.59,12.67c-0.01,0.05,0.08,0.11,0.12,0.17
					C701.23,344.07,703.61,334.1,701.9,329.67z M607.01,342.71c-0.11,0.06-0.21,0.11-0.32,0.17c0,0.18-0.02,0.36,0,0.53
					c0.46,3.02,1.41,5.87,3.07,8.45c0.42,0.65,0.98,1.23,1.59,1.71c0.63,0.5,1.39,0.61,2.18-0.04c-1.74-1.36-2.57-3.21-3.36-5.09
					c-0.48-1.16-0.95-2.33-1.54-3.43C608.19,344.18,607.56,343.47,607.01,342.71z M689.24,303.44c0.06-0.1,0.12-0.2,0.19-0.3
					c-2.72-2.6-5.39-5.26-8.19-7.78c-1.45-1.31-3.08-2.45-4.73-3.51c-1.19-0.77-2.52-1.32-4.04-1.1c3.36,1.11,5.89,3.38,8.38,5.72
					c1.98,1.86,3.93,3.74,5.96,5.53C687.51,302.61,688.42,302.96,689.24,303.44z M707.25,342.66c1.02-3.51,1.81-7.04,2.07-10.96
					C707.63,333.29,706.24,340.83,707.25,342.66z M699.59,348.25c-0.1-0.05-0.2-0.11-0.3-0.16c-2.22,1.72-4.03,3.74-5.04,6.8
					c1.02-0.52,2.07-0.72,2.47-1.34C697.82,351.89,698.65,350.03,699.59,348.25z M701.25,307.65c-0.8-0.95-1.46-1.8-2.2-2.57
					c-0.14-0.14-0.67,0-0.95,0.14c-0.13,0.07-0.21,0.51-0.11,0.68c0.45,0.82,0.95,1.63,1.49,2.39c0.12,0.17,0.56,0.27,0.76,0.19
					C700.56,308.35,700.8,308.04,701.25,307.65z M703.55,324.19c0.15,0.11,0.31,0.21,0.46,0.32c0.53-0.66,1.26-1.26,1.51-2.01
					c0.19-0.56-0.23-1.33-0.38-2c-0.46,0.24-1.08,0.37-1.35,0.75C703.14,322.15,703.31,323.19,703.55,324.19z M695.03,356.37
					c-2.11,0.1-3.19,1.31-4.05,2.96C693.11,359.34,694.16,358.08,695.03,356.37z M700.7,328.2c1.41-1.42,1.52-2.33,0.59-3.99
					C700.16,324.98,700.08,325.49,700.7,328.2z M690.81,361.64c-1.87-0.19-2.51,0.18-3.73,2.06
					C688.7,363.71,689.89,363.04,690.81,361.64z M705.94,324.28c-0.12-0.03-0.25-0.06-0.37-0.08c-0.42,0.5-0.91,0.97-1.22,1.53
					c-0.13,0.24,0,0.77,0.21,1.01c0.21,0.25,0.66,0.45,0.98,0.42c0.2-0.02,0.46-0.52,0.48-0.82
					C706.05,325.65,705.97,324.96,705.94,324.28z M682.25,367.62c0.05,0.11,0.11,0.23,0.16,0.34c1.17-0.57,2.34-1.14,3.78-1.84
					C684.14,365.54,683.3,366.82,682.25,367.62z M700.83,311.06c1.33-0.7,1.37-0.89,0.53-2.01
					C700.07,309.63,700.01,309.85,700.83,311.06z M702.89,312.82c-1.12,0.23-1.35,0.69-0.9,1.38c0.21,0.32,0.6,0.52,0.9,0.77
					C702.89,314.3,702.89,313.63,702.89,312.82z M695.19,363.86c1.08,0.49,2-0.18,2.32-1.74
					C696.7,362.72,696.01,363.24,695.19,363.86z M700.09,322.17c0.14,0.01,0.28,0.03,0.42,0.04c0.58-0.67,0.27-1.32-0.42-1.97
					C700.09,320.88,700.09,321.53,700.09,322.17z M708.76,321.58c-0.15,0-0.3,0.01-0.45,0.01c-0.5,0.74-0.06,1.36,0.36,1.98
					c0.13-0.02,0.25-0.03,0.38-0.05C708.95,322.87,708.85,322.22,708.76,321.58z"/>
				<path d="M628.83,431.94c0-0.82,0-1.63,0-2.45c0-4.17-0.01-8.35-0.01-12.52c0-1.73,0.98-2.44,2.57-1.77
					c0.32,0.14,0.64,0.72,0.64,1.1c0.04,6.14,0.02,12.28,0.03,18.43c0,0.87-0.36,1.34-1.27,1.31c-0.04,0-0.08,0-0.12,0
					c-3.8,0.16-3.79,0.15-5.34-3.31c-1.98-4.42-3.97-8.83-5.97-13.24c-0.06-0.14-0.17-0.25-0.46-0.69
					c-0.07,0.73-0.14,1.15-0.15,1.57c-0.01,4.65-0.01,9.29-0.01,13.94c0,1.54-1.18,2.31-2.59,1.62c-0.3-0.15-0.58-0.67-0.58-1.02
					c-0.03-6.22-0.02-12.44-0.02-18.66c0-0.78,0.37-1.17,1.16-1.14c0.08,0,0.16,0,0.24,0c4.27,0.03,3.58-0.51,5.31,3.31
					c1.96,4.34,3.93,8.68,5.9,13.01c0.09,0.2,0.23,0.38,0.35,0.57C628.62,431.97,628.72,431.95,628.83,431.94z"/>
				<path d="M762.84,431.87c0.02-0.37,0.05-0.75,0.05-1.12c0-4.65,0-9.29,0-13.94c0-1.57,1.17-2.33,2.55-1.59
					c0.32,0.17,0.54,0.83,0.55,1.27c0.05,3.35,0.03,6.69,0.03,10.04c0,2.68-0.03,5.35,0.02,8.03c0.02,1.05-0.37,1.49-1.45,1.48
					c-4.21-0.02-3.59,0.29-5.13-3.09c-1.96-4.3-3.9-8.6-5.86-12.9c-0.16-0.34-0.33-0.68-0.77-0.98c-0.03,0.44-0.08,0.88-0.08,1.32
					c-0.01,4.65,0,9.29,0,13.94c0,1.54-1.42,2.36-2.71,1.53c-0.29-0.18-0.5-0.71-0.5-1.08c-0.02-6.14,0-12.28-0.01-18.42
					c0-0.92,0.42-1.26,1.3-1.25c4.47,0.04,3.65-0.58,5.43,3.3c1.9,4.15,3.77,8.32,5.66,12.47c0.17,0.37,0.38,0.73,0.56,1.1
					C762.6,431.94,762.72,431.9,762.84,431.87z"/>
				<path d="M640.5,425.56c0-2.99,0.02-5.98-0.01-8.97c-0.01-1.11,0.39-1.55,1.52-1.52c2.56,0.06,5.12-0.01,7.68,0.03
					c3.96,0.05,6.78,2.35,7.71,6.2c0.7,2.89,0.7,5.77-0.02,8.65c-0.94,3.75-3.66,5.97-7.57,6.07c-2.67,0.07-5.35-0.01-8.03,0.03
					c-1.01,0.01-1.3-0.48-1.29-1.38C640.51,431.62,640.5,428.59,640.5,425.56z M644.29,425.52c0,2.36,0.02,4.72-0.01,7.08
					c-0.01,0.79,0.22,1.16,1.07,1.13c1.14-0.05,2.28,0.02,3.42-0.03c2.36-0.11,4.06-1.36,4.71-3.62c0.86-2.98,0.82-6-0.02-8.97
					c-0.57-2.02-1.94-3.33-4.08-3.6c-1.28-0.16-2.59-0.09-3.88-0.19c-0.94-0.07-1.25,0.33-1.23,1.23
					C644.31,420.88,644.29,423.2,644.29,425.52z"/>
				<path d="M608.15,425.62c-0.29,1.78-0.41,3.6-0.9,5.32c-1,3.53-3.68,5.55-7.37,5.75c-0.98,0.05-1.98,0.09-2.94-0.07
					c-3.99-0.64-6.16-2.83-6.91-6.84c-0.52-2.77-0.56-5.55,0.01-8.32c1.13-5.43,4.73-7.58,10.02-7.01c4.93,0.53,7.47,3.58,7.84,9.02
					c0.05,0.7,0.01,1.42,0.01,2.12C607.98,425.6,608.06,425.61,608.15,425.62z M604.27,425.26c-0.31-1.81-0.48-3.59-0.94-5.28
					c-0.62-2.24-2.15-3.27-4.45-3.32c-2.24-0.05-3.8,1-4.58,3.18c-0.25,0.7-0.4,1.44-0.5,2.18c-0.4,2.87-0.37,5.74,0.39,8.55
					c0.49,1.8,1.45,3.25,3.43,3.67c2.72,0.57,4.81-0.53,5.61-3.21C603.77,429.15,603.94,427.17,604.27,425.26z"/>
				<path d="M742.11,426.07c-0.25,1.45-0.4,3.15-0.84,4.77c-0.98,3.57-3.59,5.61-7.29,5.84c-1.02,0.06-2.06,0.09-3.06-0.06
					c-3.89-0.58-6.09-2.72-6.88-6.74c-0.56-2.84-0.57-5.72,0.03-8.56c1.02-4.9,4.47-7.39,9.54-6.97c4.54,0.38,7.12,2.65,7.97,7.15
					C741.84,422.92,741.92,424.38,742.11,426.07z M727.35,425.22c0.31,1.91,0.47,3.76,0.94,5.54c0.65,2.46,2.2,3.61,4.48,3.62
					c2.25,0.01,3.85-1.13,4.56-3.55c1.04-3.59,1.06-7.24,0.05-10.84c-0.62-2.19-2.18-3.28-4.46-3.34c-2.25-0.06-3.91,0.96-4.55,3.17
					C727.83,421.58,727.66,423.43,727.35,425.22z"/>
				<path d="M672.98,415.1c0.43,0,0.87,0.03,1.3-0.01c0.86-0.07,1.31,0.37,1.55,1.14c1.94,6.15,3.89,12.3,5.83,18.45
					c0.28,0.89,0,1.38-0.99,1.35c-0.51-0.01-1.08,0.13-1.52-0.04c-0.55-0.22-1.2-0.59-1.45-1.08c-0.48-0.93-0.63-2.03-1.06-2.99
					c-0.16-0.36-0.69-0.76-1.07-0.78c-1.88-0.08-3.77-0.02-5.66-0.05c-0.71-0.01-1.09,0.27-1.29,0.93c-0.29,0.98-0.6,1.95-0.94,2.92
					c-0.35,0.97-2.64,1.64-3.28,0.89c-0.26-0.3-0.18-1.04-0.04-1.51c0.99-3.23,2.04-6.45,3.07-9.67c0.77-2.4,1.54-4.79,2.3-7.19
					C670.47,415.1,670.46,415.1,672.98,415.1z M672.81,419.23c-0.1-0.01-0.21-0.02-0.31-0.03c-0.92,3.13-1.83,6.25-2.78,9.5
					c2.04,0,3.92,0,5.91,0C674.66,425.44,673.74,422.34,672.81,419.23z"/>
				<path d="M720.16,358.99c-0.62-1.32-0.66-2.59-0.22-3.76c0.71-1.91,1.54-3.78,2.46-5.6c1.19-2.35,2.54-4.62,3.76-6.96
					c0.38-0.72,0.61-1.54,0.78-2.34c0.53-2.55-0.66-4.61-3.11-5.51c-2.09-0.77-4.2,0.11-5.43,2.34c-1.8,3.23-2.14,6.83-2.28,10.4
					c-0.27,6.81-1.31,13.47-3.5,19.93c-1.23,3.62-2.62,7.18-3.7,10.84c-1.31,4.45-2.43,8.96-3.47,13.47
					c-0.31,1.35-1.08,1.74-2.37,2.06c0.17-1.17,0.31-2.21,0.49-3.25c1.1-6.6,3.19-12.9,5.67-19.09c3.05-7.62,4.83-15.52,5.53-23.71
					c0.29-3.34,0.97-6.71,1.96-9.93c1.48-4.84,4.91-5.95,9.01-3c3.77,2.71,3.77,2.02,2.27,6.59c-1.09,3.34-2.87,6.46-4.31,9.69
					c-1.09,2.44-2.13,4.9-3.2,7.35C720.43,358.64,720.33,358.75,720.16,358.99z"/>
				<path d="M570.41,425.53c0-2.95,0.03-5.9-0.01-8.85c-0.02-1.1,0.38-1.58,1.51-1.56c3.34,0.04,6.69,0.03,10.03,0.01
					c1.05-0.01,1.35,0.52,1.37,1.47c0.02,0.96-0.37,1.36-1.33,1.34c-2.16-0.04-4.33-0.02-6.49-0.07c-0.85-0.02-1.22,0.26-1.19,1.15
					c0.05,1.34,0.04,2.68,0,4.01c-0.03,0.9,0.29,1.28,1.22,1.26c1.69-0.05,3.38,0,5.07-0.02c0.86-0.01,1.49,0.22,1.49,1.23
					c0,1.01-0.54,1.37-1.5,1.36c-1.69-0.03-3.38,0.05-5.07-0.02c-1.02-0.04-1.27,0.37-1.24,1.31c0.06,2.12,0,4.25,0.06,6.37
					c0.03,1.13-0.44,1.6-1.54,1.52c-0.27-0.02-0.55-0.02-0.83,0c-1.09,0.07-1.56-0.4-1.55-1.53
					C570.45,431.51,570.42,428.52,570.41,425.53C570.42,425.53,570.41,425.53,570.41,425.53z"/>
				<path d="M694.25,426.74c0-2.48-0.04-4.96,0.02-7.43c0.02-0.99-0.33-1.31-1.3-1.26c-1.37,0.08-2.75,0.03-4.13,0.08
					c-1,0.04-1.46-0.43-1.49-1.38c-0.03-0.96,0.28-1.6,1.4-1.59c4.99,0.01,9.99,0.02,14.98,0c1.14-0.01,1.37,0.61,1.37,1.58
					c0,1-0.4,1.44-1.42,1.4c-1.41-0.06-2.83,0.02-4.24-0.09c-0.99-0.08-1.2,0.31-1.19,1.2c0.05,4.72,0.05,9.44,0.07,14.15
					c0,0.51,0.11,1.09-0.09,1.51c-0.2,0.44-0.71,0.75-1.11,1.1c-0.07,0.06-0.23,0.01-0.35,0.02c-2.44,0.07-2.54-0.02-2.54-2.44
					C694.25,431.3,694.25,429.02,694.25,426.74z"/>
				<path d="M721.13,365.1c0.04-0.9-0.12-1.88,0.16-2.7c1.02-2.97,2.07-5.93,3.33-8.8c1.24-2.84,2.78-5.56,4.12-8.36
					c0.49-1.02,0.83-2.12,1.17-3.21c1.9-6.12-1.22-9.64-6.75-11.14c-2.51-0.68-4.56,0.28-6.12,2.31c-1.74,2.28-2.67,4.94-3.17,7.69
					c-0.73,3.94-1.17,7.93-1.76,11.9c-0.1,0.67-0.29,1.32-0.43,1.98c-0.13-0.01-0.25-0.02-0.38-0.03c-0.06-0.16-0.19-0.33-0.18-0.49
					c0.05-3.42,0.1-6.83,0.17-10.25c0.07-3.59,0.57-7.08,2.79-10.07c2.41-3.25,5.72-4.61,9.69-4.28c3.91,0.32,6.87,2.16,8.37,5.93
					c1.08,2.71,0.87,5.48-0.27,8.06c-1.25,2.83-2.78,5.55-4.3,8.25c-1.89,3.36-4.09,6.55-5.11,10.34c-0.19,0.72-0.29,1.47-0.47,2.19
					c-0.07,0.28-0.26,0.53-0.39,0.79C721.44,365.16,721.29,365.13,721.13,365.1z"/>
				<path d="M705.57,458.24c-0.86,0-1.73-0.01-2.59,0c-0.73,0.01-1.08-0.33-1.07-1.07c0.01-3.97,0.01-7.94,0.01-11.91
					c0-0.74,0.37-1.1,1.08-1.09c2.04,0.04,4.09-0.02,6.12,0.18c1.95,0.2,3.3,1.39,3.98,3.25c0.77,2.13,0.81,4.32,0.27,6.5
					c-0.65,2.62-2.44,4.01-5.19,4.14C707.3,458.28,706.44,458.24,705.57,458.24C705.57,458.24,705.57,458.24,705.57,458.24z
					 M704.73,451.08C704.72,451.08,704.72,451.08,704.73,451.08c-0.01,0.51-0.01,1.02-0.01,1.54c0,0.55-0.01,1.1,0,1.65
					c0.05,2.51-0.42,2.29,2.38,2.25c2.26-0.03,3.39-0.96,3.64-3.2c0.16-1.43,0.14-2.91-0.04-4.34c-0.25-1.98-1.44-2.96-3.42-3.1
					c-0.51-0.04-1.02,0.03-1.53,0c-0.78-0.05-1.04,0.32-1.03,1.06C704.75,448.32,704.73,449.7,704.73,451.08z"/>
				<path d="M670.97,383.67c2.47,0.07,4.95,0.27,7.42,0.18c8.25-0.33,15.47-3.02,20.92-9.53c2.58-3.09,4.22-6.69,5.74-10.39
					c0.92-2.25,0.5-4.72,1.69-6.94c0.9-0.16,1.48,0.25,1.26,1.39c-0.24,1.29-0.8,2.53-1.19,3.8c-0.13,0.44-0.14,0.91-0.2,1.37
					c-0.04,0.31-0.01,0.64-0.11,0.92c-2.89,8.13-7.61,14.74-15.65,18.48c-5.91,2.75-12.16,3.29-18.58,2.66
					c-0.99-0.1-0.87-0.84-1.08-1.42c-0.06-0.18-0.13-0.37-0.2-0.55C670.99,383.65,670.97,383.67,670.97,383.67z"/>
				<path d="M676.36,450.89c-0.13,1.18-0.15,2.09-0.33,2.97c-0.88,4.34-5.75,6.44-9.43,3.95c-0.96-0.65-1.75-1.85-2.15-2.96
					c-0.83-2.3-0.74-4.73-0.07-7.09c0.74-2.59,2.56-3.94,5.32-4c3.27-0.07,5.15,1.02,6,3.69
					C676.08,448.63,676.18,449.91,676.36,450.89z M673.56,451.06c-0.15-1.1-0.22-2.21-0.48-3.26c-0.4-1.62-1.4-2.35-2.94-2.37
					c-1.61-0.01-2.61,0.72-3.03,2.41c-0.57,2.25-0.53,4.52,0.07,6.76c0.43,1.61,1.47,2.4,2.95,2.39c1.44-0.01,2.55-0.85,2.93-2.43
					C673.32,453.42,673.39,452.24,673.56,451.06z"/>
				<path d="M622.82,451.88c0.82,1.55,1.64,3.06,2.42,4.6c0.25,0.5,0.94,1.06,0.19,1.65c-0.59,0.47-2.12,0.07-2.49-0.63
					c-0.78-1.46-1.5-2.94-2.26-4.41c-0.14-0.28-0.24-0.7-0.47-0.79c-0.47-0.2-1.01-0.31-1.52-0.29c-0.14,0.01-0.34,0.62-0.35,0.96
					c-0.04,1.34-0.06,2.67-0.01,4.01c0.04,1.11-0.58,1.29-1.49,1.29c-0.88,0-1.42-0.19-1.41-1.23c0.03-3.85,0.02-7.7,0-11.56
					c0-0.8,0.25-1.31,1.13-1.3c1.81,0.03,3.62-0.04,5.41,0.13c2,0.19,3.17,1.24,3.47,2.82c0.41,2.16-0.16,3.33-2.16,4.45
					C623.14,451.64,623.02,451.74,622.82,451.88z M618.31,448.18c0.04,2.55-0.38,2.28,2.35,2.26c1.53-0.01,2.22-0.77,2.23-2.27
					c0.01-1.46-0.61-2.12-2.11-2.25C618.31,445.71,618.31,445.71,618.31,448.18z"/>
				<path d="M749.4,451.86c0.87,1.62,1.71,3.13,2.48,4.67c0.24,0.48,0.97,1.05,0.11,1.61c-0.64,0.41-2.06,0.07-2.41-0.59
					c-0.8-1.49-1.55-3-2.33-4.5c-0.65-1.23-0.66-1.23-2.3-1.01c0,1.52,0.01,3.08,0,4.63c-0.01,1.44-0.22,1.58-1.67,1.58
					c-0.94,0-1.23-0.41-1.22-1.29c0.02-3.81,0.02-7.62,0-11.44c-0.01-0.93,0.32-1.39,1.3-1.36c1.76,0.07,3.54-0.01,5.29,0.15
					c2.02,0.19,3.15,1.26,3.45,2.98c0.35,2.02-0.27,3.23-2.15,4.24C749.8,451.61,749.67,451.7,749.4,451.86z M744.94,448.13
					c0.07,2.48-0.54,2.36,2.31,2.31c1.5-0.03,2.23-0.75,2.26-2.13c0.04-1.58-0.53-2.22-2.09-2.4
					C744.94,445.62,744.93,445.63,744.94,448.13z"/>
				<path d="M607.91,451.89c0.81,1.51,1.63,2.98,2.37,4.49c0.25,0.52,1.05,1.1,0.23,1.72c-0.68,0.51-2.13,0.08-2.55-0.71
					c-0.81-1.53-1.56-3.08-2.38-4.61c-0.17-0.32-0.44-0.7-0.75-0.82c-0.97-0.36-1.46,0.02-1.47,1.08c-0.02,1.38-0.03,2.75-0.01,4.13
					c0.02,1.15-0.78,1.05-1.54,1.08c-0.8,0.03-1.28-0.19-1.27-1.1c0.02-3.93,0.01-7.86,0.01-11.79c0-0.68,0.19-1.18,0.98-1.17
					c1.81,0.02,3.62-0.05,5.41,0.11c2.18,0.2,3.28,1.21,3.6,2.96c0.38,2.09-0.25,3.3-2.29,4.38
					C608.19,451.66,608.13,451.72,607.91,451.89z M603.36,448.06c0.03,2.65-0.36,2.39,2.24,2.38c1.61-0.01,2.33-0.68,2.36-2.12
					c0.04-1.71-0.51-2.29-2.28-2.42C603.36,445.74,603.36,445.74,603.36,448.06z"/>
				<path d="M712.19,425.6c0-2.99-0.01-5.98,0.01-8.96c0.01-1.39,0.17-1.53,1.58-1.55c0.12,0,0.24,0,0.35,0
					c1.9,0,2.01,0.11,2.01,1.98c0,5.66,0.02,11.32-0.02,16.98c0,0.61-0.23,1.68-0.54,1.74c-0.95,0.22-1.99,0.12-2.98-0.01
					c-0.19-0.03-0.4-0.79-0.4-1.22C712.18,431.58,712.19,428.59,712.19,425.6z"/>
				<path d="M728.1,458.25c-0.91,0.14-1.41-0.35-1.72-1.35c-0.73-2.35-0.33-1.84-2.63-1.91c-0.16,0-0.31,0-0.47,0
					c-2.24,0-2.21,0.01-3.02,2.07c-0.18,0.45-0.6,0.99-1.02,1.11c-1.39,0.41-1.82-0.1-1.39-1.47c1.19-3.74,2.41-7.48,3.57-11.23
					c0.31-1,0.86-1.39,1.89-1.33c1.02,0.06,1.98-0.12,2.39,1.28c1.13,3.84,2.41,7.64,3.61,11.46
					C729.68,458.05,729.5,458.26,728.1,458.25z M723.51,447.59c-0.1,0-0.2,0-0.3-0.01c-0.55,1.84-1.09,3.69-1.67,5.65
					c1.27,0,2.38,0,3.65,0C724.61,451.27,724.06,449.43,723.51,447.59z"/>
				<path d="M586.7,451.3c0-1.93,0.02-3.85-0.01-5.78c-0.01-0.9,0.33-1.27,1.25-1.25c2.2,0.04,4.4,0.02,6.6,0
					c0.74,0,1.24,0.23,1.21,1.07c-0.03,0.78-0.52,0.96-1.2,0.94c-1.34-0.03-2.67,0-4.01-0.05c-0.76-0.03-1.06,0.24-1.04,1.02
					c0.08,3.29-0.47,2.76,2.67,2.82c0.71,0.01,1.43-0.08,2.11,0.06c0.32,0.07,0.78,0.57,0.77,0.87c0,0.3-0.49,0.83-0.79,0.86
					c-1.21,0.1-2.44,0.09-3.65,0.04c-0.79-0.03-1.1,0.2-1.12,1.05c-0.08,3.21-0.11,3.21,3.1,3.19c0.83-0.01,1.65-0.01,2.48-0.03
					c0.73-0.02,0.95,0.43,0.97,1.05c0.02,0.64-0.22,1.09-0.93,1.09c-2.48,0.01-4.95,0-7.43,0c-0.79,0-0.99-0.47-0.99-1.16
					C586.7,455.15,586.69,453.23,586.7,451.3C586.69,451.3,586.7,451.3,586.7,451.3z"/>
				<path d="M757.01,451.2c0-1.89,0.03-3.77-0.01-5.66c-0.02-0.88,0.26-1.3,1.21-1.28c2.2,0.04,4.4,0.03,6.6,0.01
					c0.75,0,1.2,0.23,1.18,1.08c-0.02,0.82-0.51,0.95-1.18,0.94c-1.34-0.03-2.67,0-4.01-0.05c-0.7-0.02-1,0.22-0.99,0.94
					c0.06,3.5-0.4,2.82,2.71,2.89c0.67,0.02,1.37-0.1,1.99,0.06c0.36,0.09,0.6,0.63,0.9,0.96c-0.32,0.27-0.61,0.75-0.95,0.78
					c-1.21,0.1-2.44,0.08-3.65,0.03c-0.79-0.03-0.99,0.29-1.01,1.03c-0.09,3.22-0.11,3.22,3.08,3.2c0.79-0.01,1.57-0.02,2.36-0.04
					c0.76-0.02,1.04,0.39,1.02,1.11c-0.01,0.67-0.28,1.04-0.98,1.04c-2.44,0-4.88,0-7.31,0.01c-0.8,0-0.98-0.45-0.98-1.15
					C757.02,455.13,757.01,453.17,757.01,451.2z"/>
				<path d="M630.38,451.22c0-1.89,0.03-3.78-0.01-5.66c-0.02-0.88,0.27-1.31,1.21-1.29c2.24,0.04,4.48,0.03,6.72,0.01
					c0.74,0,1.08,0.3,1.06,1.05c-0.02,0.72-0.39,0.96-1.05,0.95c-1.38-0.02-2.75-0.01-4.13-0.05c-0.69-0.02-1,0.22-0.99,0.95
					c0.05,3.53-0.42,2.8,2.7,2.88c0.67,0.02,1.36-0.08,2,0.05c0.34,0.07,0.88,0.6,0.84,0.82c-0.08,0.37-0.53,0.89-0.86,0.92
					c-1.25,0.11-2.51,0.07-3.77,0.04c-0.66-0.02-0.92,0.22-0.9,0.89c0.1,4.13-0.68,3.23,3.17,3.33c0.71,0.02,1.41-0.01,2.12-0.04
					c0.77-0.03,1.16,0.26,1.16,1.1c0,0.85-0.42,1.08-1.18,1.08c-2.32-0.02-4.64-0.02-6.96-0.01c-0.79,0-1.14-0.31-1.13-1.13
					C630.41,455.15,630.39,453.18,630.38,451.22C630.38,451.22,630.38,451.22,630.38,451.22z"/>
				<path d="M650.91,455.05c1.39,0.49,2.66,1.1,4,1.36c1.37,0.26,2.08-0.33,2.29-1.44c0.22-1.18-0.37-2.09-1.63-2.49
					c-0.52-0.16-1.07-0.26-1.6-0.42c-2.73-0.81-4.07-3.61-2.84-6.19c0.31-0.66,0.94-1.34,1.59-1.63c1.85-0.82,3.76-0.71,5.59,0.19
					c0.84,0.41,0.86,1.3,0.13,2.62c-0.83-0.4-1.62-0.92-2.5-1.16c-1.39-0.4-2.45,0.13-2.72,1.14c-0.29,1.11,0.37,1.99,1.82,2.42
					c0.38,0.11,0.76,0.19,1.14,0.3c3.06,0.88,4.45,4.34,2.87,7.11c-0.86,1.5-2.96,2.2-5.26,1.72c-0.54-0.11-1.06-0.29-1.57-0.49
					C650.31,457.33,650.14,456.89,650.91,455.05z"/>
				<path d="M717.25,357.25c0.09-2.15,0.17-4.3,0.29-6.45c0.25-4.59,1.07-9.04,3.23-13.17c0.42-0.8,0.88-1.05,1.76-0.9
					c2.13,0.38,3.07,1.62,2.3,3.63c-1.53,3.99-3.24,7.91-4.92,11.85c-0.73,1.72-1.57,3.4-2.37,5.1
					C717.45,357.29,717.35,357.27,717.25,357.25z M719.93,346.9c0.15,0.06,0.3,0.12,0.45,0.18c0.9-1.81,1.88-3.58,2.66-5.45
					c0.46-1.09,0.35-2.27-0.69-3.35C720.3,340.95,720.09,343.92,719.93,346.9z"/>
				<path d="M707.32,391.61c0.37-1.94,0.6-3.73,1.08-5.46c1.25-4.55,2.58-9.08,3.94-13.6c0.56-1.87,0.63-1.85,2.02-2.46
					c-0.06,0.72-0.12,1.37-0.17,2.02c-0.31,4.32,0.16,8.58,1.31,12.74c0.33,1.2-0.05,1.75-1.35,2.16c-0.58-2.82-1.14-5.57-1.77-8.62
					c-0.22,0.54-0.39,0.85-0.48,1.18c-0.8,3.25-1.66,6.48-2.35,9.75C709.3,390.52,708.74,391.19,707.32,391.61z"/>
				<path d="M696.12,396.72c-0.18-1.23-0.29-2.48-0.55-3.7c-0.82-3.94-3.38-5.82-7.34-5.26c-3.03,0.43-6.02,1.17-9.05,1.61
					c-1.9,0.27-3.84,0.26-5.76,0.31c-1.25,0.03-1.05-0.99-1.25-1.93c0.42,0,0.76-0.02,1.08,0c3.87,0.3,7.7,0.16,11.42-1.12
					c0.96-0.33,1.99-0.46,2.97-0.75c4.05-1.2,8.28,1.53,9.48,5.54c0.33,1.09,0.53,2.22,0.68,3.34
					C698.02,396.38,697.87,396.52,696.12,396.72z"/>
				<path d="M577.71,452.19c0,1.57-0.04,3.15,0.01,4.72c0.03,1.06-0.44,1.37-1.42,1.35c-0.93-0.02-1.48-0.21-1.46-1.32
					c0.05-3.15-0.02-6.3,0.03-9.44c0.02-1-0.32-1.33-1.28-1.23c-0.74,0.08-1.49,0.05-2.24,0.07c-0.66,0.02-1.03-0.22-1.03-0.96
					c0-0.74,0.29-1.07,1.05-1.06c3.27,0.02,6.53,0.02,9.8,0c0.73,0,1.11,0.25,1.11,1.01c0,0.79-0.45,1.01-1.14,0.99
					c-0.83-0.02-1.65,0-2.48-0.06c-0.72-0.04-0.97,0.24-0.96,0.96C577.74,448.89,577.72,450.54,577.71,452.19
					C577.72,452.19,577.71,452.19,577.71,452.19z"/>
				<path d="M708.99,363.25c1.4,0.56,1.29,1.34,0.84,2.29c-3.64,7.6-6.27,15.52-7.69,23.83c-0.25,1.43-0.55,2.87-0.61,4.32
					c-0.06,1.34-0.84,1.59-2.05,1.76C700.67,384.08,704.26,373.55,708.99,363.25z"/>
				<path d="M681.02,451.22c0-1.89,0.02-3.78-0.01-5.66c-0.02-1.09,0.52-1.42,1.54-1.42c1.03-0.01,1.4,0.44,1.4,1.42
					c-0.02,3.11,0.03,6.21-0.03,9.32c-0.02,1.11,0.38,1.48,1.44,1.39c0.94-0.08,1.88-0.07,2.83-0.09c0.75-0.02,1.05,0.39,1.06,1.1
					c0.01,0.73-0.4,0.96-1.04,0.96c-2.01,0-4.01-0.02-6.02,0c-0.88,0.01-1.17-0.43-1.16-1.24
					C681.04,455.08,681.03,453.15,681.02,451.22C681.03,451.22,681.03,451.22,681.02,451.22z"/>
				<path d="M672.89,390.91c1.82-0.15,3.57-0.3,5.33-0.43c3.92-0.29,7.85-0.58,11.77-0.84c2-0.13,2.87,0.42,3.35,2.37
					c0.35,1.44,0.42,2.95,0.61,4.43c0.15,1.1-0.42,1.46-1.5,1.43c0-0.75,0.01-1.45,0-2.14c-0.07-3.43-1.33-4.67-4.76-4.38
					c-3.6,0.3-7.2,0.77-10.79,1.16c-0.74,0.08-1.49,0.15-2.23,0.25C673.01,392.99,672.91,392.9,672.89,390.91z"/>
				<path d="M741.32,303.5c-10.57-5.58-21.52-6.64-33.14-2.71c1.99-2.2,4.12-3.32,6.83-3.65c9.08-1.1,17.52,0.82,25.52,5.02
					c0.41,0.22,0.71,0.65,1.06,0.98C741.51,303.26,741.41,303.38,741.32,303.5z"/>
				<path d="M740.72,299.51c-8.29-3.85-16.82-5.97-26-3.78c0.53-0.98,1.94-2.04,2.88-2.13c7.77-0.8,15.21,0.47,22.34,3.6
					C740.74,297.55,740.88,298,740.72,299.51z"/>
				<path d="M717.19,384.66c-0.36-1.78-0.78-3.48-1.04-5.21c-0.81-5.51-0.44-10.97,0.93-16.37c0.17-0.68,0.25-1.51,1.28-1.32
					c0.63,0.11,1.1,1.28,0.82,2.05c-2.2,6.24-2.28,12.54-0.63,18.91C718.81,383.72,718.71,383.84,717.19,384.66z"/>
				<path d="M736.78,451.31c0,1.89-0.04,3.78,0.01,5.66c0.03,1.13-0.6,1.26-1.5,1.28c-0.95,0.02-1.34-0.29-1.33-1.29
					c0.04-3.77,0.03-7.55,0.01-11.33c-0.01-1,0.26-1.52,1.4-1.49c1.1,0.02,1.45,0.47,1.42,1.5
					C736.74,447.54,736.78,449.43,736.78,451.31z"/>
				<path d="M693.84,451.32c0-1.96,0.03-3.93-0.01-5.89c-0.02-1.02,0.48-1.27,1.38-1.27c0.88,0.01,1.44,0.24,1.43,1.25
					c-0.01,3.89-0.01,7.78,0.01,11.67c0.01,1.08-0.64,1.17-1.48,1.17c-0.82,0.01-1.36-0.15-1.34-1.16
					C693.88,455.17,693.85,453.24,693.84,451.32C693.85,451.32,693.84,451.32,693.84,451.32z"/>
				<path d="M673.77,395.03c5.33-0.07,10.54-0.58,15.87-2.2c0.22,1.86,0.47,3.58,0.59,5.32c0.01,0.21-0.64,0.48-1.2,0.86
					c0-1.37,0-2.43,0-3.7c-1,0.09-1.88,0.16-2.75,0.25c-3.63,0.4-7.26,0.8-10.89,1.22C674.07,396.93,674.23,395.75,673.77,395.03z"
					/>
				<path d="M739.97,294.87c-3.19-0.89-6.35-1.96-9.6-2.62c-3.25-0.66-6.58-0.9-9.89-1.33c0.59-0.7,1.26-1.38,2.48-1.33
					c5.63,0.26,11.03,1.53,16.22,3.69C740.03,293.64,740.05,293.75,739.97,294.87z"/>
				<path d="M697.3,388.64c-0.04-2.98-2.13-3.66-4.44-4.54c1.32-1.02,2.41-2.02,3.65-2.77c1.02-0.62,2.34-0.24,3.12,0.65
					c0.14,0.16,0.32,0.44,0.27,0.6C699.35,384.61,698.98,386.73,697.3,388.64z"/>
				<path d="M739.06,290.1c-4.8-0.94-9.53-1.86-14.27-2.79c0.51-0.68,1.17-1.25,2.25-1.05c3.58,0.67,7.15,1.34,10.73,2
					C738.93,288.48,739.1,289.26,739.06,290.1z"/>
				<path d="M738.13,286.62c-3.32-0.69-6.64-1.38-9.94-2.07c0.67-1.35,1.43-1.8,2.86-1.59c1.55,0.23,3.11,0.47,4.65,0.76
					C737.66,284.09,737.91,284.42,738.13,286.62z"/>
				<path d="M676.28,398.48c3.67-0.68,7.13-1.32,10.79-2c0,0.65,0.11,1.39-0.05,2.08c-0.07,0.28-0.72,0.54-1.12,0.58
					c-0.62,0.06-1.27-0.17-1.89-0.1c-2.02,0.22-4.02,0.88-6.05,0.1C677.46,398.94,676.96,398.75,676.28,398.48z"/>
				<path d="M718.77,373.64c1.75,0.77,2.32,2.14,2.57,3.69c0.14,0.85,0.14,1.73,0.28,2.58c0.17,1.02-0.27,1.64-1.48,2.16
					C719.66,379.18,719.22,376.41,718.77,373.64z"/>
				<path d="M709.62,362.87c-1.09-2.91,0.66-5.29,0.86-7.89C712.86,356.28,711.74,359.7,709.62,362.87z"/>
				<path d="M712.01,382.58c0.34,1.61,0.71,3.21,1,4.82c0.05,0.28-0.09,0.71-0.3,0.89c-0.55,0.48-1.19,0.85-1.8,1.27
					c-0.11-0.04-0.23-0.09-0.34-0.13c0.38-2.3,0.76-4.59,1.13-6.89C711.81,382.55,711.91,382.57,712.01,382.58z"/>
				<path d="M720.37,373.42c-1.42-1.65-1.04-4.23,0.8-5.43C721.41,369.9,721.59,371.72,720.37,373.42z"/>
				<path d="M736.19,281.6c-1.5-0.26-2.79-0.48-4.32-0.74c0.74-0.75,1.05-1.64,2.16-1.62C735.44,279.27,735.81,280.26,736.19,281.6z
					"/>
				<path d="M723.57,374.01c1.23,1.38,1.08,4.14,0,4.85C723.57,377.33,723.57,375.81,723.57,374.01z"/>
				<path class="st1" d="M708.58,319.34c-0.17,0.42-0.34,0.85-0.55,1.37c-1.14-1.21-1.18-1.98-0.24-2.62
					c0.26,0.36,0.52,0.72,0.79,1.08C708.58,319.23,708.58,319.29,708.58,319.34z"/>
				<path class="st1" d="M602.17,342.49c-1.11,0.91-1.88,0.28-2.2-0.68c-0.9-2.71-1.88-5.44-2.39-8.23
					c-1.15-6.35,0.3-12.44,2.48-18.38c2.57-7,5.96-13.54,11.07-19.07c0.97-1.05,2.15-1.89,3.24-2.83c0.12,0.09,0.23,0.19,0.35,0.28
					c-0.24,0.44-0.45,0.9-0.72,1.32c-2.58,4-5.28,7.93-7.75,12c-3.55,5.86-5.93,12.17-6.51,19.05c-0.34,4.01-0.17,8.02,0.81,11.97
					c0-0.55,0.02-1.1,0-1.64c-0.43-8.2,0.83-16.09,4.31-23.56c2.44-5.25,5.9-9.75,10.21-13.59c0.27-0.24,0.73-0.28,1.09-0.41
					c0.01,0.47,0.22,1.08,0,1.38c-1.05,1.42-2.22,2.75-3.35,4.11c-0.32,0.39-0.66,0.76-1.02,1.16c0.64,0.16,1.18,0.3,1.73,0.44
					c-0.24,0.52-0.37,1.15-0.76,1.51c-0.33,0.3-0.95,0.29-1.54,0.28c-2.59,3.65-4.54,7.71-5.71,12.12
					c-3.26,12.26-1.44,23.85,5.07,34.63c7.62,12.62,18.73,20.43,33.28,23.03c8.18,1.46,16.23,0.48,24.06-2.31
					c0.36-0.13,0.73-0.25,1.2-0.16c-0.34,0.17-0.67,0.37-1.02,0.51c-12.4,4.88-24.76,4.76-36.98-0.52
					c-11.99-5.17-21.25-13.62-28.46-24.4c-0.39-0.58-0.49-1.47-0.43-2.19C602.37,346.37,602.88,344.48,602.17,342.49z"/>
				<path class="st1" d="M618.62,292.24c0.79-2.49,2.53-4.11,4.75-5.25c3.16-1.62,6.61-2.25,10.07-2.82
					c3.48-0.58,6.97-1.12,10.47-1.69c-0.44-1.64-0.88-1.82-2.27-1.16c-0.82,0.39-1.71,0.65-2.56,0.97
					c-0.08-0.12-0.16-0.25-0.24-0.37c0.34-0.38,0.64-0.81,1.04-1.12c2.36-1.92,5.17-2.6,8.12-2.78c4.91-0.3,9.72,0.53,14.52,1.46
					c0.19,0.04,0.38,0.12,0.55,0.2c0.1,0.05,0.18,0.13,0.32,0.24c-0.47,1.13-1.37,1.3-2.4,1.13c-1.01-0.16-2-0.48-3.01-0.57
					c-0.82-0.07-1.66,0.08-2.49,0.14c0,0.11,0,0.22,0,0.33c2.53,0.6,5.08,1.16,7.59,1.82c7.63,2,14.94,4.73,21.16,9.76
					c1.85,1.5,3.5,3.23,5.24,4.86c-0.08,0.1-0.16,0.2-0.24,0.3c-0.11-0.06-0.24-0.09-0.33-0.18c-5.52-5.66-12.35-8.98-19.81-11.19
					c-8.05-2.39-16.3-3.08-24.64-2.56c-7.48,0.46-14.73,2.01-21.38,5.66C621.54,290.27,620.11,291.29,618.62,292.24z"/>
				<path class="st1" d="M702.54,356.77c0.06,0.53,0.12,0.71,0.09,0.88c-1,5.99-2.85,11.62-7.07,16.2c-4.61,5-10.48,6.8-17.17,6.55
					c0.24-0.16,0.46-0.33,0.71-0.46c3.33-1.76,6.67-3.52,10-5.28c4.34-2.29,7.45-5.71,9.36-10.23c0.78-1.85,1.57-3.69,2.46-5.49
					C701.25,358.22,701.86,357.65,702.54,356.77z"/>
				<path class="st1" d="M665.38,281.9c6.57-1.81,23.45,7.86,26.92,15.29c-3.83-3.53-7.87-6.77-12.39-9.36
					C675.41,285.25,670.63,283.34,665.38,281.9z"/>
				<path class="st1" d="M701.9,329.67c1.71,4.43-0.67,14.4-3.73,16.87c-0.04-0.06-0.13-0.12-0.12-0.17
					c0.85-4.22,1.68-8.45,2.59-12.67C700.94,332.33,701.47,331.01,701.9,329.67z"/>
				<path class="st1" d="M607.01,342.71c0.55,0.76,1.18,1.47,1.63,2.29c0.59,1.1,1.06,2.27,1.54,3.43c0.79,1.89,1.61,3.74,3.36,5.09
					c-0.8,0.65-1.55,0.54-2.18,0.04c-0.6-0.48-1.17-1.06-1.59-1.71c-1.66-2.58-2.61-5.43-3.07-8.45c-0.03-0.17,0-0.35,0-0.53
					C606.79,342.82,606.9,342.77,607.01,342.71z"/>
				<path class="st1" d="M689.24,303.44c-0.81-0.47-1.73-0.83-2.42-1.44c-2.04-1.79-3.99-3.68-5.96-5.53
					c-2.49-2.34-5.02-4.61-8.38-5.72c1.52-0.22,2.85,0.34,4.04,1.1c1.65,1.06,3.27,2.2,4.73,3.51c2.8,2.52,5.46,5.18,8.19,7.78
					C689.36,303.24,689.3,303.34,689.24,303.44z"/>
				<path class="st1" d="M707.25,342.66c-1.01-1.83,0.38-9.37,2.07-10.96C709.06,335.61,708.26,339.15,707.25,342.66z"/>
				<path class="st1" d="M699.59,348.25c-0.94,1.78-1.76,3.63-2.86,5.31c-0.41,0.62-1.45,0.81-2.47,1.34
					c1.01-3.05,2.81-5.08,5.04-6.8C699.39,348.15,699.49,348.2,699.59,348.25z"/>
				<path class="st1" d="M701.25,307.65c-0.45,0.39-0.7,0.7-1.01,0.83c-0.2,0.08-0.64-0.02-0.76-0.19
					c-0.54-0.76-1.04-1.57-1.49-2.39c-0.09-0.17-0.02-0.62,0.11-0.68c0.28-0.14,0.81-0.29,0.95-0.14
					C699.8,305.84,700.45,306.7,701.25,307.65z"/>
				<path class="st1" d="M703.55,324.19c-0.24-1-0.4-2.04,0.24-2.95c0.27-0.38,0.89-0.51,1.35-0.75c0.15,0.67,0.57,1.44,0.38,2
					c-0.26,0.75-0.99,1.35-1.51,2.01C703.85,324.4,703.7,324.29,703.55,324.19z"/>
				<path class="st1" d="M695.03,356.37c-0.87,1.71-1.93,2.97-4.05,2.96C691.84,357.69,692.92,356.48,695.03,356.37z"/>
				<path class="st1" d="M700.7,328.2c-0.62-2.71-0.54-3.23,0.59-3.99C702.22,325.87,702.1,326.78,700.7,328.2z"/>
				<path class="st1" d="M690.81,361.64c-0.93,1.4-2.11,2.07-3.73,2.06C688.31,361.82,688.95,361.45,690.81,361.64z"/>
				<path class="st1" d="M705.94,324.28c0.03,0.68,0.12,1.37,0.07,2.05c-0.02,0.3-0.28,0.8-0.48,0.82
					c-0.32,0.04-0.77-0.16-0.98-0.42c-0.2-0.24-0.34-0.77-0.21-1.01c0.31-0.56,0.8-1.03,1.22-1.53
					C705.69,324.22,705.81,324.25,705.94,324.28z"/>
				<path class="st1" d="M682.25,367.62c1.06-0.8,1.9-2.07,3.94-1.5c-1.44,0.7-2.61,1.27-3.78,1.84
					C682.35,367.85,682.3,367.73,682.25,367.62z"/>
				<path class="st1" d="M707.16,314.65c0.22,1.64,0.22,1.64-1,2.03c-0.04-0.7-0.07-1.34-0.11-1.98c0.38-0.01,0.75-0.02,1.13-0.03
					C707.18,314.68,707.16,314.65,707.16,314.65z"/>
				<path class="st1" d="M700.83,311.06c-0.82-1.21-0.75-1.43,0.53-2.01C702.2,310.17,702.15,310.36,700.83,311.06z"/>
				<path class="st1" d="M702.89,312.82c0,0.81,0,1.48,0,2.15c-0.31-0.25-0.7-0.45-0.9-0.77
					C701.55,313.51,701.77,313.05,702.89,312.82z"/>
				<path class="st1" d="M695.19,363.86c0.82-0.61,1.51-1.13,2.32-1.74C697.2,363.67,696.27,364.35,695.19,363.86z"/>
				<path class="st1" d="M700.09,322.17c0-0.65,0-1.29,0-1.94c0.69,0.65,0.99,1.3,0.42,1.97
					C700.36,322.2,700.22,322.18,700.09,322.17z"/>
				<path class="st1" d="M708.76,321.58c0.1,0.65,0.19,1.29,0.29,1.94c-0.13,0.02-0.25,0.03-0.38,0.05
					c-0.42-0.62-0.85-1.23-0.36-1.98C708.46,321.58,708.61,321.58,708.76,321.58z"/>
				<path class="st1" d="M644.29,425.52c0-2.32,0.03-4.64-0.01-6.96c-0.01-0.9,0.29-1.3,1.23-1.23c1.29,0.09,2.6,0.03,3.88,0.19
					c2.14,0.27,3.51,1.58,4.08,3.6c0.83,2.97,0.88,5.99,0.02,8.97c-0.65,2.25-2.35,3.51-4.71,3.62c-1.14,0.05-2.28-0.02-3.42,0.03
					c-0.85,0.04-1.08-0.34-1.07-1.13C644.31,430.24,644.29,427.88,644.29,425.52z"/>
				<path class="st1" d="M604.27,425.26c-0.33,1.92-0.49,3.9-1.05,5.76c-0.79,2.68-2.89,3.78-5.61,3.21
					c-1.98-0.42-2.94-1.87-3.43-3.67c-0.77-2.81-0.79-5.68-0.39-8.55c0.1-0.74,0.25-1.48,0.5-2.18c0.78-2.18,2.33-3.23,4.58-3.18
					c2.31,0.05,3.83,1.08,4.45,3.32C603.79,421.67,603.96,423.45,604.27,425.26z"/>
				<path class="st1" d="M727.35,425.22c0.32-1.78,0.48-3.64,1-5.39c0.65-2.21,2.3-3.23,4.55-3.17c2.28,0.06,3.84,1.14,4.46,3.34
					c1.01,3.6,0.99,7.25-0.05,10.84c-0.7,2.42-2.3,3.56-4.56,3.55c-2.27-0.01-3.83-1.16-4.48-3.62
					C727.82,428.98,727.66,427.13,727.35,425.22z"/>
				<path class="st1" d="M672.81,419.23c0.92,3.1,1.85,6.21,2.82,9.47c-1.99,0-3.87,0-5.91,0c0.95-3.24,1.87-6.37,2.78-9.5
					C672.6,419.22,672.71,419.22,672.81,419.23z"/>
				<path class="st1" d="M704.73,451.08c0-1.38,0.02-2.76-0.01-4.13c-0.02-0.74,0.25-1.11,1.03-1.06c0.51,0.03,1.02-0.04,1.53,0
					c1.98,0.14,3.17,1.12,3.42,3.1c0.18,1.43,0.2,2.91,0.04,4.34c-0.25,2.23-1.38,3.17-3.64,3.2c-2.8,0.03-2.33,0.26-2.38-2.25
					c-0.01-0.55,0-1.1,0-1.65C704.72,452.1,704.72,451.59,704.73,451.08C704.72,451.08,704.72,451.08,704.73,451.08z"/>
				<path class="st1" d="M673.56,451.06c-0.17,1.18-0.24,2.36-0.51,3.5c-0.38,1.57-1.49,2.41-2.93,2.43
					c-1.47,0.01-2.52-0.77-2.95-2.39c-0.6-2.24-0.64-4.51-0.07-6.76c0.43-1.69,1.42-2.42,3.03-2.41c1.54,0.01,2.54,0.75,2.94,2.37
					C673.34,448.86,673.4,449.96,673.56,451.06z"/>
				<path class="st1" d="M618.31,448.18c0-2.48,0-2.48,2.48-2.26c1.5,0.13,2.12,0.79,2.11,2.25c-0.01,1.5-0.71,2.26-2.23,2.27
					C617.94,450.46,618.35,450.73,618.31,448.18z"/>
				<path class="st1" d="M744.94,448.13c-0.01-2.5,0-2.5,2.48-2.22c1.57,0.18,2.13,0.82,2.09,2.4c-0.03,1.38-0.76,2.11-2.26,2.13
					C744.41,450.49,745.01,450.61,744.94,448.13z"/>
				<path class="st1" d="M603.36,448.06c0-2.32,0-2.32,2.32-2.15c1.77,0.13,2.32,0.71,2.28,2.42c-0.03,1.44-0.75,2.11-2.36,2.12
					C603,450.45,603.4,450.71,603.36,448.06z"/>
				<path class="st1" d="M723.51,447.59c0.55,1.84,1.1,3.69,1.68,5.65c-1.27,0-2.38,0-3.65,0c0.58-1.97,1.13-3.81,1.67-5.65
					C723.31,447.58,723.41,447.58,723.51,447.59z"/>
				<path class="st1" d="M719.93,346.9c0.16-2.98,0.37-5.95,2.43-8.62c1.03,1.09,1.14,2.26,0.69,3.35
					c-0.78,1.86-1.76,3.63-2.66,5.45C720.23,347.02,720.08,346.96,719.93,346.9z"/>
			</g>
		</g>
	</g>
</g>
<rect x="348.28" y="296.24" class="st3" width="144.03" height="168.7"/>
<text transform="matrix(1 0 0 1 348.2792 387.1874)" class="st13 st14">50</text>
<g>
	<path d="M366.82,424.55c-0.09,1.14-0.14,2.28-0.14,3.43c0,2.59,0.12,4.54,0.36,5.86c0.02,0.11,0.02,0.2,0.02,0.27
		c0,0.31-0.11,0.57-0.33,0.77c-0.22,0.2-0.47,0.3-0.76,0.3c-0.48,0-0.84-0.35-1.06-1.05c-0.56,0.41-1.14,0.72-1.74,0.93
		s-1.23,0.32-1.88,0.32c-1.61,0-2.94-0.54-4-1.61c-1.09-1.1-1.63-2.5-1.63-4.22c0-2.07,0.55-3.74,1.65-4.99
		c1.1-1.25,2.53-1.88,4.28-1.88c0.9,0,1.6,0.14,2.08,0.42l1.1,0.8c0.11-3.27,0.24-5.47,0.38-6.61c0.1-0.69,0.45-1.04,1.06-1.04
		c0.71,0,1.06,0.38,1.06,1.13C367.28,418.48,367.13,420.87,366.82,424.55z M361.64,424.86c-1.3,0-2.28,0.39-2.94,1.16
		c-0.65,0.77-0.98,1.94-0.98,3.49c0,1,0.36,1.86,1.07,2.59c0.71,0.72,1.54,1.08,2.5,1.08c0.65,0,1.2-0.12,1.65-0.36
		c0.26-0.14,0.7-0.46,1.29-0.97c0.12-0.1,0.23-0.22,0.34-0.36l-0.03-2.02l0.01-1.35l0.02-1.37c-0.3-0.63-0.69-1.1-1.18-1.42
		C362.91,425.02,362.33,424.86,361.64,424.86z"/>
	<path d="M375.54,435.38c-1.75,0-3.18-0.44-4.26-1.32c-1.19-0.97-1.78-2.33-1.78-4.08c0-2.02,0.49-3.71,1.47-5.08
		c1.06-1.49,2.48-2.24,4.26-2.24c1.29,0,2.34,0.22,3.16,0.65c1,0.54,1.5,1.36,1.5,2.47c0,0.78-0.44,1.48-1.32,2.12
		c-0.39,0.28-1.21,0.71-2.47,1.3l-4.45,2.11c0.44,0.65,0.98,1.13,1.62,1.46c0.65,0.33,1.4,0.49,2.27,0.49c0.54,0,1.17-0.1,1.89-0.3
		c0.92-0.26,1.51-0.59,1.77-1.01c0.26-0.42,0.55-0.62,0.85-0.62c0.27,0,0.51,0.1,0.73,0.31c0.21,0.21,0.32,0.45,0.32,0.72
		c0,0.86-0.69,1.6-2.08,2.23C377.83,435.11,376.67,435.38,375.54,435.38z M375.23,424.76c-0.95,0-1.74,0.37-2.36,1.1
		c-0.63,0.73-1.1,1.84-1.41,3.31l3.58-1.7c1.41-0.68,2.41-1.28,3.01-1.78C377.37,425.08,376.43,424.76,375.23,424.76z"/>
	<path d="M399.24,435.67c-0.67,0-1.04-0.37-1.13-1.1l-0.33-2.55c-0.11-0.91-0.16-1.76-0.16-2.55c0-0.22,0.01-0.59,0.04-1.11
		c0.03-0.52,0.04-0.89,0.04-1.11c0-1.68-0.31-2.52-0.93-2.52c-0.87,0-1.7,0.52-2.49,1.55c-0.71,0.94-1.27,2.13-1.68,3.57
		c-0.02,0.3-0.05,0.68-0.11,1.14c-0.05,0.39-0.07,0.77-0.07,1.13c0,0.23,0.02,0.58,0.07,1.05c0.05,0.47,0.07,0.82,0.07,1.05
		c0,0.35-0.11,0.63-0.32,0.85c-0.21,0.22-0.49,0.33-0.82,0.33c-0.34,0-0.62-0.11-0.83-0.33c-0.21-0.22-0.31-0.5-0.31-0.85
		c0-0.23-0.03-0.58-0.08-1.05c-0.05-0.47-0.08-0.82-0.08-1.05c0-0.8,0.06-1.91,0.17-3.33c0.11-1.42,0.17-2.53,0.17-3.33
		c0-0.25-0.01-0.62-0.04-1.11c-0.03-0.49-0.04-0.86-0.04-1.11c0-0.33,0.11-0.61,0.33-0.82c0.22-0.21,0.5-0.32,0.82-0.32
		c0.71,0,1.11,0.51,1.18,1.51l0.04,1.36c1.3-1.74,2.64-2.61,4.02-2.61c1.24,0,2.11,0.55,2.6,1.64c0.33,0.73,0.52,1.81,0.55,3.24
		v1.18l-0.01,1.08c0,0.65,0.08,1.48,0.25,2.5c0.17,1.02,0.25,1.85,0.25,2.49c0,0.34-0.11,0.62-0.33,0.83
		C399.85,435.56,399.57,435.67,399.24,435.67z"/>
	<path d="M407.16,435.53c-1.3,0-2.43-0.48-3.37-1.44c-1.05-1.07-1.6-2.51-1.66-4.32c-0.05-1.75,0.4-3.3,1.33-4.64
		c1.09-1.58,2.6-2.37,4.54-2.37c1.55,0,2.73,0.71,3.53,2.13c0.64,1.15,0.94,2.53,0.92,4.15c-0.02,1.72-0.47,3.2-1.35,4.41
		C410.12,434.84,408.8,435.53,407.16,435.53z M407.86,425.13c-1.14-0.01-2.03,0.54-2.67,1.63c-0.51,0.88-0.76,1.88-0.76,3.01
		s0.31,2,0.92,2.63c0.51,0.52,1.11,0.78,1.81,0.78c0.81,0,1.5-0.29,2.09-0.89c0.66-0.65,1.01-1.53,1.05-2.64
		C410.4,426.64,409.59,425.13,407.86,425.13z"/>
	<path d="M423.2,425.87c-0.43,0-0.73-0.14-0.9-0.43c-0.12-0.2-0.22-0.62-0.3-1.26c-0.58,0.15-1.48,0.42-2.69,0.82
		c-1.25,0.5-1.88,1.11-1.89,1.84c0.23,0.09,0.46,0.15,0.69,0.19c1.79,0.32,3.11,0.76,3.98,1.32c1.27,0.82,1.9,2,1.9,3.54
		c0,1.27-0.55,2.22-1.64,2.87c-0.91,0.53-2.06,0.79-3.45,0.79c-1.02,0-1.99-0.17-2.91-0.51c-1.2-0.44-1.79-1.04-1.79-1.82
		c0-0.31,0.12-0.58,0.37-0.82c0.24-0.23,0.52-0.35,0.83-0.35c0.24,0,0.55,0.19,0.93,0.56c0.19,0.18,0.61,0.33,1.26,0.44
		c0.52,0.09,0.96,0.14,1.32,0.14c0.65,0,1.23-0.08,1.72-0.23c0.72-0.23,1.08-0.58,1.08-1.07c0-1.06-0.74-1.77-2.21-2.14l-1.21-0.27
		c-1.03-0.22-1.77-0.49-2.2-0.79c-0.63-0.43-0.94-1.09-0.94-1.97c0-1.62,0.77-2.78,2.29-3.47c0.47-0.21,1.21-0.46,2.24-0.75
		c1.03-0.29,1.76-0.54,2.2-0.74c0.32-0.14,0.66-0.21,1.04-0.21c0.33,0,0.61,0.11,0.82,0.33s0.32,0.5,0.32,0.85
		c0,0.23,0.05,0.56,0.15,0.99c0.1,0.44,0.15,0.77,0.15,0.99c0,0.35-0.11,0.63-0.32,0.85C423.81,425.76,423.54,425.87,423.2,425.87z"
		/>
	<path d="M439.53,435.33c-1.19,0-2.27-0.23-3.24-0.7c-0.25,0.37-0.55,0.56-0.91,0.56c-0.3,0-0.55-0.1-0.75-0.31
		c-0.21-0.21-0.31-0.46-0.31-0.78c0-0.2,0.01-0.5,0.03-0.9s0.03-0.7,0.03-0.9c0-0.82-0.02-2.06-0.06-3.7
		c-0.04-1.64-0.06-2.88-0.06-3.7c0-0.57,0-1.64,0.01-3.22c0.01-1.58,0.01-2.66,0.01-3.23c0-0.47,0.1-0.89,0.29-1.26
		c0.26-0.47,0.61-0.71,1.06-0.71c0.58,0,0.87,0.34,0.87,1.01c0,0.11-0.02,0.27-0.06,0.48c-0.04,0.21-0.06,0.37-0.06,0.48l-0.03,2.55
		l-0.02,2.97c0.68-0.46,1.32-0.8,1.93-1.03c0.61-0.23,1.18-0.34,1.72-0.34c1.67,0,3.03,0.64,4.07,1.92c0.98,1.2,1.47,2.68,1.47,4.44
		c0,1.77-0.57,3.27-1.71,4.51C442.65,434.71,441.23,435.33,439.53,435.33z M439.97,424.81c-0.64,0-1.29,0.18-1.96,0.54
		c-0.33,0.18-0.89,0.56-1.68,1.15l-0.02,2.01l0.01,1.82l0.01,1.91c0.37,0.17,0.9,0.39,1.57,0.65c0.48,0.15,1.02,0.22,1.62,0.22
		c1.13,0,2.05-0.4,2.77-1.19c0.72-0.79,1.08-1.78,1.08-2.96c0-1.16-0.29-2.12-0.87-2.9C441.88,425.23,441.03,424.81,439.97,424.81z"
		/>
	<path d="M453.68,435.38c-1.75,0-3.18-0.44-4.26-1.32c-1.19-0.97-1.78-2.33-1.78-4.08c0-2.02,0.49-3.71,1.47-5.08
		c1.06-1.49,2.48-2.24,4.26-2.24c1.29,0,2.34,0.22,3.16,0.65c1,0.54,1.5,1.36,1.5,2.47c0,0.78-0.44,1.48-1.32,2.12
		c-0.39,0.28-1.21,0.71-2.47,1.3l-4.45,2.11c0.44,0.65,0.98,1.13,1.62,1.46c0.65,0.33,1.4,0.49,2.27,0.49c0.54,0,1.17-0.1,1.89-0.3
		c0.92-0.26,1.51-0.59,1.77-1.01c0.26-0.42,0.55-0.62,0.85-0.62c0.27,0,0.51,0.1,0.73,0.31c0.21,0.21,0.32,0.45,0.32,0.72
		c0,0.86-0.69,1.6-2.08,2.23C455.96,435.11,454.81,435.38,453.68,435.38z M453.37,424.76c-0.95,0-1.74,0.37-2.36,1.1
		c-0.63,0.73-1.1,1.84-1.41,3.31l3.58-1.7c1.41-0.68,2.41-1.28,3.01-1.78C455.51,425.08,454.57,424.76,453.37,424.76z
		 M453.55,421.01c-0.28,0-0.53-0.11-0.74-0.33c-0.21-0.22-0.32-0.47-0.32-0.75c0-0.26,0.12-0.52,0.36-0.76
		c0.33-0.33,0.84-0.94,1.53-1.85c0.51-0.67,1.08-1.22,1.71-1.67c0.21-0.15,0.41-0.22,0.62-0.22c0.28,0,0.52,0.11,0.73,0.33
		c0.21,0.22,0.31,0.47,0.31,0.75c0,0.31-0.15,0.58-0.44,0.82c-0.54,0.44-1.07,1-1.57,1.69c-0.53,0.73-1.03,1.29-1.5,1.69
		C454.02,420.92,453.79,421.01,453.55,421.01z"/>
	<path d="M470.25,435.67c-0.67,0-1.04-0.37-1.13-1.1l-0.33-2.55c-0.11-0.91-0.16-1.76-0.16-2.55c0-0.22,0.01-0.59,0.04-1.11
		c0.03-0.52,0.04-0.89,0.04-1.11c0-1.68-0.31-2.52-0.93-2.52c-0.87,0-1.7,0.52-2.49,1.55c-0.71,0.94-1.27,2.13-1.68,3.57
		c-0.02,0.3-0.05,0.68-0.11,1.14c-0.05,0.39-0.07,0.77-0.07,1.13c0,0.23,0.02,0.58,0.07,1.05c0.05,0.47,0.07,0.82,0.07,1.05
		c0,0.35-0.11,0.63-0.32,0.85c-0.21,0.22-0.49,0.33-0.82,0.33c-0.34,0-0.62-0.11-0.83-0.33c-0.21-0.22-0.31-0.5-0.31-0.85
		c0-0.23-0.03-0.58-0.08-1.05c-0.05-0.47-0.08-0.82-0.08-1.05c0-0.8,0.06-1.91,0.17-3.33c0.11-1.42,0.17-2.53,0.17-3.33
		c0-0.25-0.01-0.62-0.04-1.11c-0.03-0.49-0.04-0.86-0.04-1.11c0-0.33,0.11-0.61,0.33-0.82c0.22-0.21,0.5-0.32,0.82-0.32
		c0.71,0,1.11,0.51,1.18,1.51l0.04,1.36c1.3-1.74,2.64-2.61,4.02-2.61c1.24,0,2.11,0.55,2.6,1.64c0.33,0.73,0.52,1.81,0.55,3.24
		v1.18l-0.01,1.08c0,0.65,0.08,1.48,0.25,2.5c0.17,1.02,0.25,1.85,0.25,2.49c0,0.34-0.11,0.62-0.33,0.83
		C470.86,435.56,470.58,435.67,470.25,435.67z"/>
	<path d="M479.24,435.38c-1.75,0-3.18-0.44-4.26-1.32c-1.19-0.97-1.78-2.33-1.78-4.08c0-2.02,0.49-3.71,1.47-5.08
		c1.06-1.49,2.48-2.24,4.26-2.24c1.29,0,2.34,0.22,3.16,0.65c1,0.54,1.5,1.36,1.5,2.47c0,0.78-0.44,1.48-1.32,2.12
		c-0.39,0.28-1.21,0.71-2.47,1.3l-4.45,2.11c0.44,0.65,0.98,1.13,1.62,1.46c0.65,0.33,1.4,0.49,2.27,0.49c0.54,0,1.17-0.1,1.89-0.3
		c0.92-0.26,1.51-0.59,1.77-1.01c0.26-0.42,0.55-0.62,0.85-0.62c0.27,0,0.51,0.1,0.73,0.31s0.32,0.45,0.32,0.72
		c0,0.86-0.69,1.6-2.08,2.23C481.53,435.11,480.37,435.38,479.24,435.38z M478.93,424.76c-0.95,0-1.74,0.37-2.36,1.1
		c-0.63,0.73-1.1,1.84-1.41,3.31l3.58-1.7c1.41-0.68,2.41-1.28,3.01-1.78C481.07,425.08,480.13,424.76,478.93,424.76z
		 M479.11,421.01c-0.28,0-0.53-0.11-0.74-0.33c-0.21-0.22-0.32-0.47-0.32-0.75c0-0.26,0.12-0.52,0.36-0.76
		c0.33-0.33,0.84-0.94,1.53-1.85c0.51-0.67,1.08-1.22,1.71-1.67c0.21-0.15,0.41-0.22,0.62-0.22c0.28,0,0.52,0.11,0.73,0.33
		c0.21,0.22,0.31,0.47,0.31,0.75c0,0.31-0.15,0.58-0.44,0.82c-0.54,0.44-1.07,1-1.57,1.69c-0.53,0.73-1.03,1.29-1.5,1.69
		C479.58,420.92,479.35,421.01,479.11,421.01z"/>
	<path d="M494.7,418.46c-1.88,0-2.93,1.3-3.16,3.91l-0.03,0.72c1.32-0.09,2.17-0.14,2.56-0.14c1.23,0,1.85,0.39,1.85,1.17
		c0,0.57-0.3,0.91-0.91,1.01c-0.26,0.05-0.57,0.07-0.93,0.05c-0.35-0.01-1.25,0.04-2.69,0.16l-0.09,2.66c0,0.48,0.02,1.2,0.05,2.17
		c0.03,0.96,0.05,1.68,0.05,2.16c0,1.48-0.09,2.62-0.26,3.45c-0.13,0.62-0.49,0.93-1.08,0.93c-0.32,0-0.59-0.1-0.82-0.31
		c-0.22-0.21-0.34-0.46-0.34-0.78c0-0.06,0.01-0.14,0.02-0.23c0.16-1.01,0.25-2.11,0.25-3.3l-0.04-3.18v-3.38
		c-0.97,0.08-1.58,0.12-1.84,0.12c-0.78,0-1.18-0.38-1.18-1.13c0-0.77,0.68-1.17,2.04-1.21l1.12-0.04c0.02-0.43,0.08-1.03,0.18-1.77
		c0.2-1.72,0.64-2.99,1.3-3.81c0.81-0.99,2.07-1.48,3.79-1.48c1.11,0,1.67,0.38,1.67,1.13C496.22,418.09,495.71,418.46,494.7,418.46
		z"/>
	<path d="M501.75,429.55c0,0.47,0.01,1.16,0.04,2.09c0.03,0.93,0.04,1.62,0.04,2.09c0,0.34-0.1,0.62-0.32,0.84
		c-0.21,0.22-0.48,0.33-0.83,0.33c-0.33,0-0.61-0.11-0.82-0.33c-0.21-0.22-0.32-0.5-0.32-0.84c0-0.47-0.01-1.16-0.04-2.09
		c-0.03-0.93-0.04-1.62-0.04-2.09c0-0.73,0.04-1.64,0.12-2.73c0.08-1.09,0.12-2,0.12-2.73c0-0.35,0.11-0.63,0.32-0.85
		c0.21-0.22,0.49-0.33,0.82-0.33c0.33,0,0.61,0.11,0.82,0.33s0.32,0.5,0.32,0.85c0,0.73-0.04,1.64-0.12,2.73
		C501.79,427.91,501.75,428.82,501.75,429.55z M501.23,420.09c-0.37,0-0.7-0.13-0.97-0.4c-0.27-0.26-0.41-0.58-0.41-0.96
		s0.14-0.69,0.41-0.96c0.27-0.26,0.59-0.4,0.97-0.4s0.69,0.13,0.96,0.4c0.27,0.26,0.4,0.58,0.4,0.96s-0.13,0.69-0.4,0.96
		C501.92,419.96,501.6,420.09,501.23,420.09z"/>
	<path d="M510.95,435.58c-1.59,0-2.92-0.48-3.98-1.44c-1.12-1.01-1.68-2.34-1.68-4c0-1.58,0.52-3.2,1.57-4.88
		c1.17-1.86,2.48-2.8,3.94-2.8c0.76,0,1.61,0.18,2.55,0.54c1.19,0.46,1.78,1.02,1.78,1.68c0,0.3-0.1,0.56-0.29,0.79
		c-0.19,0.23-0.44,0.34-0.72,0.34c-0.22,0-0.42-0.07-0.59-0.2c-0.17-0.14-0.33-0.27-0.48-0.4c-0.46-0.37-1.21-0.55-2.25-0.55
		c-0.79,0-1.58,0.71-2.35,2.12c-0.71,1.3-1.06,2.42-1.06,3.37c0,1.03,0.35,1.83,1.05,2.42c0.65,0.55,1.49,0.83,2.52,0.83
		c0.47,0,0.96-0.12,1.49-0.37l1.35-0.72c0.23-0.12,0.4-0.19,0.5-0.19c0.29,0,0.54,0.12,0.75,0.34c0.21,0.23,0.32,0.49,0.32,0.79
		c0,0.57-0.6,1.11-1.8,1.64C512.52,435.34,511.65,435.58,510.95,435.58z"/>
	<path d="M523.39,435.38c-1.75,0-3.18-0.44-4.26-1.32c-1.19-0.97-1.78-2.33-1.78-4.08c0-2.02,0.49-3.71,1.47-5.08
		c1.06-1.49,2.48-2.24,4.26-2.24c1.29,0,2.34,0.22,3.16,0.65c1,0.54,1.5,1.36,1.5,2.47c0,0.78-0.44,1.48-1.32,2.12
		c-0.39,0.28-1.21,0.71-2.47,1.3l-4.45,2.11c0.44,0.65,0.98,1.13,1.62,1.46c0.65,0.33,1.4,0.49,2.27,0.49c0.54,0,1.17-0.1,1.89-0.3
		c0.92-0.26,1.51-0.59,1.77-1.01c0.26-0.42,0.55-0.62,0.85-0.62c0.27,0,0.51,0.1,0.73,0.31s0.32,0.45,0.32,0.72
		c0,0.86-0.69,1.6-2.08,2.23C525.67,435.11,524.51,435.38,523.39,435.38z M523.07,424.76c-0.95,0-1.74,0.37-2.36,1.1
		c-0.63,0.73-1.1,1.84-1.41,3.31l3.58-1.7c1.41-0.68,2.41-1.28,3.01-1.78C525.21,425.08,524.28,424.76,523.07,424.76z"/>
	<path d="M538.88,425.87c-0.43,0-0.73-0.14-0.9-0.43c-0.12-0.2-0.22-0.62-0.3-1.26c-0.58,0.15-1.48,0.42-2.69,0.82
		c-1.25,0.5-1.88,1.11-1.89,1.84c0.23,0.09,0.46,0.15,0.69,0.19c1.79,0.32,3.11,0.76,3.98,1.32c1.27,0.82,1.9,2,1.9,3.54
		c0,1.27-0.55,2.22-1.64,2.87c-0.91,0.53-2.06,0.79-3.45,0.79c-1.02,0-1.99-0.17-2.91-0.51c-1.2-0.44-1.79-1.04-1.79-1.82
		c0-0.31,0.12-0.58,0.37-0.82c0.24-0.23,0.52-0.35,0.83-0.35c0.24,0,0.55,0.19,0.93,0.56c0.19,0.18,0.61,0.33,1.26,0.44
		c0.52,0.09,0.96,0.14,1.32,0.14c0.65,0,1.23-0.08,1.72-0.23c0.72-0.23,1.08-0.58,1.08-1.07c0-1.06-0.74-1.77-2.21-2.14l-1.21-0.27
		c-1.03-0.22-1.77-0.49-2.2-0.79c-0.63-0.43-0.94-1.09-0.94-1.97c0-1.62,0.77-2.78,2.29-3.47c0.47-0.21,1.21-0.46,2.24-0.75
		c1.03-0.29,1.76-0.54,2.2-0.74c0.32-0.14,0.66-0.21,1.04-0.21c0.33,0,0.61,0.11,0.82,0.33c0.21,0.22,0.32,0.5,0.32,0.85
		c0,0.23,0.05,0.56,0.15,0.99c0.1,0.44,0.15,0.77,0.15,0.99c0,0.35-0.11,0.63-0.32,0.85C539.49,425.76,539.21,425.87,538.88,425.87z
		"/>
	<path d="M363.95,448.5c-0.43,0-0.73-0.14-0.9-0.43c-0.12-0.2-0.22-0.62-0.3-1.26c-0.58,0.15-1.48,0.42-2.69,0.82
		c-1.25,0.5-1.88,1.11-1.89,1.84c0.23,0.09,0.46,0.15,0.69,0.19c1.79,0.32,3.11,0.76,3.98,1.32c1.27,0.82,1.9,2,1.9,3.54
		c0,1.27-0.55,2.22-1.64,2.87c-0.91,0.53-2.06,0.79-3.45,0.79c-1.02,0-1.99-0.17-2.91-0.51c-1.2-0.44-1.79-1.04-1.79-1.82
		c0-0.31,0.12-0.58,0.37-0.82c0.24-0.23,0.52-0.35,0.83-0.35c0.24,0,0.55,0.19,0.93,0.56c0.19,0.18,0.61,0.33,1.26,0.44
		c0.52,0.09,0.96,0.14,1.32,0.14c0.65,0,1.23-0.08,1.72-0.23c0.72-0.23,1.08-0.58,1.08-1.07c0-1.06-0.74-1.77-2.21-2.14l-1.21-0.27
		c-1.03-0.22-1.77-0.49-2.2-0.79c-0.63-0.43-0.94-1.09-0.94-1.97c0-1.62,0.77-2.78,2.29-3.47c0.47-0.21,1.21-0.46,2.24-0.75
		c1.03-0.29,1.76-0.54,2.2-0.74c0.32-0.14,0.66-0.21,1.04-0.21c0.33,0,0.61,0.11,0.82,0.33s0.32,0.5,0.32,0.85
		c0,0.23,0.05,0.56,0.15,0.99c0.1,0.44,0.15,0.77,0.15,0.99c0,0.35-0.11,0.63-0.32,0.85C364.56,448.39,364.28,448.5,363.95,448.5z"
		/>
	<path d="M372.07,458.16c-1.3,0-2.43-0.48-3.37-1.44c-1.05-1.07-1.6-2.51-1.66-4.32c-0.05-1.75,0.4-3.3,1.33-4.64
		c1.09-1.58,2.6-2.37,4.54-2.37c1.55,0,2.73,0.71,3.53,2.13c0.64,1.15,0.94,2.53,0.92,4.15c-0.02,1.72-0.47,3.2-1.35,4.41
		C375.03,457.47,373.71,458.16,372.07,458.16z M372.77,447.76c-1.14-0.01-2.03,0.54-2.67,1.63c-0.51,0.88-0.76,1.88-0.76,3.01
		s0.31,2,0.92,2.63c0.51,0.52,1.11,0.78,1.81,0.78c0.81,0,1.5-0.29,2.09-0.89c0.66-0.65,1.01-1.53,1.05-2.64
		C375.31,449.27,374.5,447.76,372.77,447.76z"/>
	<path d="M389.19,458.3c-0.67,0-1.04-0.37-1.13-1.1l-0.33-2.55c-0.11-0.91-0.16-1.76-0.16-2.55c0-0.22,0.01-0.59,0.04-1.11
		c0.03-0.52,0.04-0.89,0.04-1.11c0-1.68-0.31-2.52-0.93-2.52c-0.87,0-1.7,0.52-2.49,1.55c-0.71,0.94-1.27,2.13-1.68,3.57
		c-0.02,0.3-0.05,0.68-0.11,1.14c-0.05,0.39-0.07,0.77-0.07,1.13c0,0.23,0.02,0.58,0.07,1.05c0.05,0.47,0.07,0.82,0.07,1.05
		c0,0.35-0.11,0.63-0.32,0.85c-0.21,0.22-0.49,0.33-0.82,0.33c-0.34,0-0.62-0.11-0.83-0.33c-0.21-0.22-0.31-0.5-0.31-0.85
		c0-0.23-0.03-0.58-0.08-1.05c-0.05-0.47-0.08-0.82-0.08-1.05c0-0.8,0.06-1.91,0.17-3.33c0.11-1.42,0.17-2.53,0.17-3.33
		c0-0.25-0.01-0.62-0.04-1.11s-0.04-0.86-0.04-1.11c0-0.33,0.11-0.61,0.33-0.82c0.22-0.21,0.5-0.32,0.82-0.32
		c0.71,0,1.11,0.51,1.18,1.51l0.04,1.36c1.3-1.74,2.64-2.61,4.02-2.61c1.24,0,2.11,0.55,2.6,1.64c0.33,0.73,0.52,1.81,0.55,3.24
		v1.18l-0.01,1.08c0,0.65,0.08,1.48,0.25,2.5c0.17,1.02,0.25,1.85,0.25,2.49c0,0.34-0.11,0.62-0.33,0.83
		C389.8,458.19,389.52,458.3,389.19,458.3z"/>
	<path d="M400.53,447.55c-0.16,0-0.36-0.01-0.58-0.02c-0.22-0.02-0.41-0.02-0.58-0.02c-0.18,0-0.71,0.06-1.58,0.17l0.22,6.89
		l0.01,0.51l0.01,0.59c0.03,1.7-0.38,2.55-1.22,2.55c-0.31,0-0.58-0.1-0.81-0.3c-0.23-0.2-0.34-0.45-0.34-0.76
		c0-0.29,0.01-0.74,0.04-1.33c0.02-0.59,0.03-1.03,0.03-1.33l-0.23-6.8c-0.57-0.02-1.43-0.09-2.59-0.2
		c-0.69-0.09-1.04-0.48-1.04-1.15c0-0.34,0.1-0.62,0.31-0.85c0.21-0.23,0.48-0.34,0.8-0.34l2.45,0.2c0-0.4-0.02-0.93-0.05-1.59
		c-0.04-0.66-0.05-1.14-0.05-1.44c0-0.33,0.11-0.6,0.34-0.81c0.23-0.21,0.5-0.32,0.83-0.32c0.7,0,1.11,0.57,1.22,1.71
		c0.02,0.29,0.04,0.63,0.04,1.04l-0.02,0.68l-0.01,0.72c0.96-0.12,1.52-0.19,1.66-0.19c0.81,0,1.34,0.04,1.58,0.12
		c0.47,0.16,0.71,0.52,0.71,1.1c0,0.34-0.11,0.62-0.32,0.84C401.14,447.44,400.87,447.55,400.53,447.55z"/>
	<path d="M427.31,448.86c-0.06,0.97-0.44,1.46-1.17,1.46c-0.67,0-1-0.39-1-1.15c0-0.15-0.01-0.42-0.03-0.82l-0.03-0.98
		c-1.23,0.15-2.21,0.49-2.95,1.04c-0.69,0.51-1.27,1.27-1.72,2.28l0.02,6.38c0,0.78-0.38,1.18-1.15,1.18
		c-0.68,0-1.03-0.39-1.03-1.18v-8.18c0-0.26,0.01-0.64,0.03-1.15c0.02-0.51,0.03-0.9,0.03-1.15c0-0.78,0.34-1.18,1.03-1.18
		c0.76,0,1.15,0.65,1.15,1.93c1.49-1.44,3.15-2.15,4.96-2.15c0.63,0,1.1,0.24,1.41,0.71c0.31,0.47,0.47,1.19,0.47,2.14
		C427.32,448.45,427.32,448.72,427.31,448.86z"/>
	<path d="M435.15,458.01c-1.75,0-3.18-0.44-4.26-1.32c-1.19-0.97-1.78-2.33-1.78-4.08c0-2.02,0.49-3.71,1.47-5.08
		c1.06-1.49,2.48-2.24,4.26-2.24c1.29,0,2.34,0.22,3.16,0.65c1,0.54,1.5,1.36,1.5,2.47c0,0.78-0.44,1.48-1.32,2.12
		c-0.39,0.28-1.21,0.71-2.47,1.3l-4.45,2.11c0.44,0.65,0.98,1.13,1.62,1.46s1.4,0.49,2.27,0.49c0.54,0,1.17-0.1,1.89-0.3
		c0.92-0.26,1.51-0.59,1.77-1.01c0.26-0.42,0.55-0.62,0.85-0.62c0.27,0,0.51,0.1,0.73,0.31c0.21,0.21,0.32,0.45,0.32,0.72
		c0,0.86-0.69,1.6-2.08,2.23C437.43,457.75,436.27,458.01,435.15,458.01z M434.83,447.4c-0.95,0-1.74,0.37-2.36,1.1
		c-0.63,0.73-1.1,1.84-1.41,3.31l3.58-1.7c1.41-0.68,2.41-1.28,3.01-1.78C436.97,447.71,436.04,447.4,434.83,447.4z"/>
	<path d="M448.15,456.87c-0.02,0.71-0.38,1.07-1.06,1.07c-0.57,0-0.98-0.33-1.24-1l-1.78-4.73l-2.07-5.35
		c-0.08-0.2-0.12-0.38-0.12-0.54c0-0.32,0.12-0.59,0.36-0.82c0.24-0.22,0.52-0.34,0.84-0.34c0.47,0,0.8,0.24,1,0.71l2.96,8.14
		c0.58-1.24,1.32-3.05,2.2-5.41c0.21-0.62,0.54-1.5,0.99-2.63c0.24-0.5,0.58-0.75,1.03-0.75c0.32,0,0.6,0.11,0.84,0.34
		c0.24,0.23,0.36,0.49,0.36,0.8c0,0.3-0.64,1.96-1.92,4.99L448.15,456.87z"/>
	<path d="M459.82,458.01c-1.75,0-3.18-0.44-4.26-1.32c-1.19-0.97-1.78-2.33-1.78-4.08c0-2.02,0.49-3.71,1.47-5.08
		c1.06-1.49,2.48-2.24,4.26-2.24c1.29,0,2.34,0.22,3.16,0.65c1,0.54,1.5,1.36,1.5,2.47c0,0.78-0.44,1.48-1.32,2.12
		c-0.39,0.28-1.21,0.71-2.47,1.3l-4.45,2.11c0.44,0.65,0.98,1.13,1.62,1.46s1.4,0.49,2.27,0.49c0.54,0,1.17-0.1,1.89-0.3
		c0.92-0.26,1.51-0.59,1.77-1.01c0.26-0.42,0.55-0.62,0.85-0.62c0.27,0,0.51,0.1,0.73,0.31s0.32,0.45,0.32,0.72
		c0,0.86-0.69,1.6-2.08,2.23C462.11,457.75,460.95,458.01,459.82,458.01z M459.51,447.4c-0.95,0-1.74,0.37-2.36,1.1
		c-0.63,0.73-1.1,1.84-1.41,3.31l3.58-1.7c1.41-0.68,2.41-1.28,3.01-1.78C461.65,447.71,460.71,447.4,459.51,447.4z"/>
	<path d="M476.52,448.86c-0.06,0.97-0.44,1.46-1.17,1.46c-0.67,0-1-0.39-1-1.15c0-0.15-0.01-0.42-0.03-0.82l-0.03-0.98
		c-1.23,0.15-2.21,0.49-2.95,1.04c-0.69,0.51-1.27,1.27-1.72,2.28l0.02,6.38c0,0.78-0.38,1.18-1.15,1.18
		c-0.68,0-1.03-0.39-1.03-1.18v-8.18c0-0.26,0.01-0.64,0.03-1.15c0.02-0.51,0.03-0.9,0.03-1.15c0-0.78,0.34-1.18,1.03-1.18
		c0.76,0,1.15,0.65,1.15,1.93c1.49-1.44,3.15-2.15,4.96-2.15c0.63,0,1.1,0.24,1.41,0.71c0.31,0.47,0.47,1.19,0.47,2.14
		C476.53,448.45,476.53,448.72,476.52,448.86z"/>
	<path d="M486.78,448.5c-0.43,0-0.73-0.14-0.9-0.43c-0.12-0.2-0.22-0.62-0.3-1.26c-0.58,0.15-1.48,0.42-2.69,0.82
		c-1.25,0.5-1.88,1.11-1.89,1.84c0.23,0.09,0.46,0.15,0.69,0.19c1.79,0.32,3.11,0.76,3.98,1.32c1.27,0.82,1.9,2,1.9,3.54
		c0,1.27-0.55,2.22-1.64,2.87c-0.91,0.53-2.06,0.79-3.45,0.79c-1.02,0-1.99-0.17-2.91-0.51c-1.2-0.44-1.79-1.04-1.79-1.82
		c0-0.31,0.12-0.58,0.37-0.82c0.24-0.23,0.52-0.35,0.83-0.35c0.24,0,0.55,0.19,0.93,0.56c0.19,0.18,0.61,0.33,1.26,0.44
		c0.52,0.09,0.96,0.14,1.32,0.14c0.65,0,1.23-0.08,1.72-0.23c0.72-0.23,1.08-0.58,1.08-1.07c0-1.06-0.74-1.77-2.21-2.14l-1.21-0.27
		c-1.03-0.22-1.77-0.49-2.2-0.79c-0.63-0.43-0.94-1.09-0.94-1.97c0-1.62,0.77-2.78,2.29-3.47c0.47-0.21,1.21-0.46,2.24-0.75
		c1.03-0.29,1.76-0.54,2.2-0.74c0.32-0.14,0.66-0.21,1.04-0.21c0.33,0,0.61,0.11,0.82,0.33s0.32,0.5,0.32,0.85
		c0,0.23,0.05,0.56,0.15,0.99c0.1,0.44,0.15,0.77,0.15,0.99c0,0.35-0.11,0.63-0.32,0.85C487.39,448.39,487.12,448.5,486.78,448.5z"
		/>
	<path d="M495.98,458.01c-1.75,0-3.18-0.44-4.26-1.32c-1.19-0.97-1.78-2.33-1.78-4.08c0-2.02,0.49-3.71,1.47-5.08
		c1.06-1.49,2.48-2.24,4.26-2.24c1.29,0,2.34,0.22,3.16,0.65c1,0.54,1.5,1.36,1.5,2.47c0,0.78-0.44,1.48-1.32,2.12
		c-0.39,0.28-1.21,0.71-2.47,1.3l-4.45,2.11c0.44,0.65,0.98,1.13,1.62,1.46s1.4,0.49,2.27,0.49c0.54,0,1.17-0.1,1.89-0.3
		c0.92-0.26,1.51-0.59,1.77-1.01c0.26-0.42,0.55-0.62,0.85-0.62c0.27,0,0.51,0.1,0.73,0.31s0.32,0.45,0.32,0.72
		c0,0.86-0.69,1.6-2.08,2.23C498.26,457.75,497.1,458.01,495.98,458.01z M495.66,447.4c-0.95,0-1.74,0.37-2.36,1.1
		c-0.63,0.73-1.1,1.84-1.41,3.31l3.58-1.7c1.41-0.68,2.41-1.28,3.01-1.78C497.8,447.71,496.86,447.4,495.66,447.4z M495.85,443.64
		c-0.28,0-0.53-0.11-0.74-0.33c-0.21-0.22-0.32-0.47-0.32-0.75c0-0.26,0.12-0.52,0.36-0.76c0.33-0.33,0.84-0.94,1.53-1.85
		c0.51-0.67,1.08-1.22,1.71-1.67c0.21-0.15,0.41-0.22,0.62-0.22c0.28,0,0.52,0.11,0.73,0.33c0.21,0.22,0.31,0.47,0.31,0.75
		c0,0.31-0.15,0.58-0.44,0.82c-0.54,0.44-1.07,1-1.57,1.69c-0.53,0.73-1.03,1.29-1.5,1.69
		C496.32,443.55,496.09,443.64,495.85,443.64z"/>
	<path d="M511.47,448.5c-0.43,0-0.73-0.14-0.9-0.43c-0.12-0.2-0.22-0.62-0.3-1.26c-0.58,0.15-1.48,0.42-2.69,0.82
		c-1.25,0.5-1.88,1.11-1.89,1.84c0.23,0.09,0.46,0.15,0.69,0.19c1.79,0.32,3.11,0.76,3.98,1.32c1.27,0.82,1.9,2,1.9,3.54
		c0,1.27-0.55,2.22-1.64,2.87c-0.91,0.53-2.06,0.79-3.45,0.79c-1.02,0-1.99-0.17-2.91-0.51c-1.2-0.44-1.79-1.04-1.79-1.82
		c0-0.31,0.12-0.58,0.37-0.82c0.24-0.23,0.52-0.35,0.83-0.35c0.24,0,0.55,0.19,0.93,0.56c0.19,0.18,0.61,0.33,1.26,0.44
		c0.52,0.09,0.96,0.14,1.32,0.14c0.65,0,1.23-0.08,1.72-0.23c0.72-0.23,1.08-0.58,1.08-1.07c0-1.06-0.74-1.77-2.21-2.14l-1.21-0.27
		c-1.03-0.22-1.77-0.49-2.2-0.79c-0.63-0.43-0.94-1.09-0.94-1.97c0-1.62,0.77-2.78,2.29-3.47c0.47-0.21,1.21-0.46,2.24-0.75
		c1.03-0.29,1.76-0.54,2.2-0.74c0.32-0.14,0.66-0.21,1.04-0.21c0.33,0,0.61,0.11,0.82,0.33s0.32,0.5,0.32,0.85
		c0,0.23,0.05,0.56,0.15,0.99c0.1,0.44,0.15,0.77,0.15,0.99c0,0.35-0.11,0.63-0.32,0.85C512.08,448.39,511.8,448.5,511.47,448.5z"/>
	<path d="M538.75,458.24c-0.15,0-0.41-0.17-0.8-0.51c-0.35-0.32-0.61-0.6-0.78-0.85c-0.75,0.4-1.4,0.71-1.97,0.91
		c-0.57,0.21-1.04,0.31-1.42,0.31c-1.82,0-3.14-0.51-3.97-1.54c-0.78-0.96-1.18-2.44-1.18-4.43c0-1.88,0.65-3.49,1.94-4.82
		c1.29-1.34,2.84-2,4.63-2c0.68,0,1.43,0.17,2.27,0.52c1.06,0.44,1.58,0.96,1.58,1.57c0,0.21-0.08,0.4-0.23,0.56
		c-0.08,0.3-0.14,0.78-0.18,1.46c-0.04,0.68-0.07,1.54-0.08,2.6c-0.01,0.96,0.06,1.72,0.2,2.28c0.08,0.34,0.32,1.03,0.73,2.05
		c0.06,0.14,0.14,0.35,0.27,0.62l0.07,0.2c0,0.31-0.11,0.57-0.33,0.77C539.3,458.14,539.04,458.24,538.75,458.24z M536.33,450.15
		c0-0.33,0.02-0.7,0.07-1.09c0.04-0.39,0.11-0.81,0.19-1.25c-0.29-0.15-0.53-0.26-0.74-0.33c-0.21-0.07-0.37-0.11-0.5-0.11
		c-1.2,0-2.24,0.49-3.12,1.47c-0.87,0.98-1.31,2.11-1.31,3.4c0,1.27,0.23,2.23,0.68,2.87c0.45,0.64,1.13,0.96,2.03,0.96
		c0.75,0,1.38-0.13,1.9-0.41c0.28-0.15,0.67-0.44,1.18-0.89C536.46,452.71,536.33,451.17,536.33,450.15z M536.58,442.79
		c0,0.28-0.11,0.52-0.33,0.73c-0.22,0.2-0.47,0.31-0.75,0.31c-0.33,0-0.61-0.16-0.84-0.49l-1.17-1.74
		c-0.41-0.57-0.89-1.06-1.44-1.49c-0.3-0.23-0.45-0.51-0.45-0.83c0-0.28,0.1-0.53,0.31-0.75c0.2-0.22,0.45-0.33,0.73-0.33
		c0.48,0,1.27,0.65,2.35,1.93C536.04,441.41,536.58,442.3,536.58,442.79z"/>
</g>
<g>
	<path d="M504.38,294.77c-4.18,0-7.49-1.45-9.91-4.35c-2.24-2.72-3.36-6.19-3.36-10.4c0-2.93,1.52-5.72,4.57-8.38
		c2.93-2.54,5.87-3.81,8.83-3.81c4.33,0,7.79,1.43,10.36,4.3c2.45,2.78,3.68,6.35,3.68,10.72c0,3.65-1.52,6.59-4.57,8.83
		C511.26,293.74,508.06,294.77,504.38,294.77z M504.38,275.36c-1.38,0-2.66,0.45-3.86,1.35c-1.29,0.99-1.93,2.09-1.93,3.32
		c0,2.39,0.49,4.19,1.46,5.4c0.97,1.21,2.41,1.82,4.33,1.82c1.61,0,3.08-0.36,4.39-1.08c1.49-0.84,2.24-1.94,2.24-3.32
		c0-2.51-0.55-4.39-1.66-5.63C508.25,275.98,506.59,275.36,504.38,275.36z M539.85,275.63c-1.11,1.79-2.29,4.17-3.54,7.13
		l-3.18,7.26l-8.88,19.05l-10.04,21.16c-0.93,2.3-2.44,5.69-4.53,10.18c-0.84,1.58-1.96,2.38-3.36,2.38c-0.99,0-1.88-0.35-2.67-1.05
		c-0.79-0.7-1.19-1.58-1.19-2.62c0-0.45,0.09-0.94,0.27-1.48c1.46-4.04,3.83-9.31,7.08-15.83c3.86-7.68,6.37-12.9,7.53-15.65
		l12.11-26.9c1.61-3.98,3.09-6.69,4.44-8.16c0.93-1.02,1.88-1.52,2.87-1.52c1.02,0,1.92,0.38,2.71,1.14
		c0.79,0.76,1.19,1.65,1.19,2.67C540.65,274.05,540.38,274.79,539.85,275.63z M541.01,342.3c-4.07,0-7.44-1.21-10.13-3.63
		c-2.81-2.54-4.21-5.84-4.21-9.91c0-4.42,1.26-8.08,3.77-10.98c2.63-3.11,6.13-4.66,10.49-4.66c4.06,0,7.62,1.14,10.67,3.41
		c3.38,2.54,5.07,5.8,5.07,9.77c0,4.57-1.47,8.38-4.39,11.43C549.34,340.77,545.58,342.3,541.01,342.3z M540.92,320.64
		c-2.15,0-3.84,0.81-5.07,2.42c-1.11,1.49-1.66,3.39-1.66,5.69c0,2,0.65,3.51,1.95,4.53c1.3,1.02,3.25,1.52,5.85,1.52
		c2.39,0,4.18-0.71,5.36-2.13c1.18-1.42,1.77-3.55,1.77-6.39c0-1.73-0.93-3.15-2.78-4.26C544.73,321.11,542.92,320.64,540.92,320.64
		z"/>
</g>
<g>
	<g>
		<rect x="539.3" y="380.08" width="19.7" height="2.92"/>
	</g>
	<g>
		<circle cx="539.3" cy="381.54" r="1.44"/>
	</g>
	<g>
		<ellipse cx="559.15" cy="381.52" rx="1.24" ry="1.41"/>
	</g>
	<g>
		<line x1="551.15" y1="375.85" x2="558.99" y2="381.54"/>
		<rect x="553.61" y="373.85" transform="matrix(0.5873 -0.8093 0.8093 0.5873 -77.4399 605.5143)" width="2.92" height="9.69"/>
	</g>
	<g>
		<line x1="558.94" y1="381.54" x2="551.1" y2="387.24"/>
		<rect x="550.17" y="382.93" transform="matrix(0.8093 -0.5874 0.5874 0.8093 -119.9479 399.2873)" width="9.69" height="2.92"/>
	</g>
	<g>
		<circle cx="551.15" cy="375.85" r="1.44"/>
	</g>
	<g>
		<circle cx="551.15" cy="387.24" r="1.44"/>
	</g>
</g>
<path class="st11" d="M241.25,503.87V245.55c0-5.52,4.48-10,10-10h613.99c5.52,0,10,4.48,10,10v258.33c0,5.52-4.48,10-10,10H251.25
	C245.73,513.87,241.25,509.4,241.25,503.87z"/>
</svg>
